<svg xmlns="http://www.w3.org/2000/svg" width="980" height="460" viewBox="0 0 980 460">
<rect width="100%" height="100%" fill="#ffffff"/>
<text x="86" y="24" font-size="20" font-family="Arial, sans-serif" fill="#111827">Dev Stage 3 Matched Accuracy</text>
<text x="86" y="442" font-size="12" font-family="Arial, sans-serif" fill="#4b5563">step / epoch</text>
<text x="18" y="52" font-size="12" font-family="Arial, sans-serif" fill="#4b5563" transform="rotate(-90 18 52)">dev/stage3_matched_acc</text>
<line x1="86" y1="396.00" x2="956" y2="396.00" stroke="#e5e7eb" stroke-width="1"/>
<text x="76" y="400.00" font-size="11" text-anchor="end" font-family="Arial, sans-serif" fill="#6b7280">0.334861</text>
<line x1="86" y1="307.00" x2="956" y2="307.00" stroke="#e5e7eb" stroke-width="1"/>
<text x="76" y="311.00" font-size="11" text-anchor="end" font-family="Arial, sans-serif" fill="#6b7280">0.400402</text>
<line x1="86" y1="218.00" x2="956" y2="218.00" stroke="#e5e7eb" stroke-width="1"/>
<text x="76" y="222.00" font-size="11" text-anchor="end" font-family="Arial, sans-serif" fill="#6b7280">0.465944</text>
<line x1="86" y1="129.00" x2="956" y2="129.00" stroke="#e5e7eb" stroke-width="1"/>
<text x="76" y="133.00" font-size="11" text-anchor="end" font-family="Arial, sans-serif" fill="#6b7280">0.531486</text>
<line x1="86" y1="40.00" x2="956" y2="40.00" stroke="#e5e7eb" stroke-width="1"/>
<text x="76" y="44.00" font-size="11" text-anchor="end" font-family="Arial, sans-serif" fill="#6b7280">0.597028</text>
<line x1="86.00" y1="40" x2="86.00" y2="396" stroke="#f3f4f6" stroke-width="1"/>
<text x="86.00" y="420" font-size="11" text-anchor="middle" font-family="Arial, sans-serif" fill="#6b7280">-11.4000</text>
<line x1="260.00" y1="40" x2="260.00" y2="396" stroke="#f3f4f6" stroke-width="1"/>
<text x="260.00" y="420" font-size="11" text-anchor="middle" font-family="Arial, sans-serif" fill="#6b7280">91.5600</text>
<line x1="434.00" y1="40" x2="434.00" y2="396" stroke="#f3f4f6" stroke-width="1"/>
<text x="434.00" y="420" font-size="11" text-anchor="middle" font-family="Arial, sans-serif" fill="#6b7280">194.52</text>
<line x1="608.00" y1="40" x2="608.00" y2="396" stroke="#f3f4f6" stroke-width="1"/>
<text x="608.00" y="420" font-size="11" text-anchor="middle" font-family="Arial, sans-serif" fill="#6b7280">297.48</text>
<line x1="782.00" y1="40" x2="782.00" y2="396" stroke="#f3f4f6" stroke-width="1"/>
<text x="782.00" y="420" font-size="11" text-anchor="middle" font-family="Arial, sans-serif" fill="#6b7280">400.44</text>
<line x1="956.00" y1="40" x2="956.00" y2="396" stroke="#f3f4f6" stroke-width="1"/>
<text x="956.00" y="420" font-size="11" text-anchor="middle" font-family="Arial, sans-serif" fill="#6b7280">503.40</text>
<rect x="86" y="40" width="870" height="356" fill="none" stroke="#d1d5db" stroke-width="1"/>
<polyline points="125.55,371.45 145.83,322.63 166.10,322.63 186.38,207.49 206.66,211.69 226.94,211.69 247.22,211.69 267.50,291.57 287.78,211.69 308.06,131.82 328.34,211.69 348.62,211.69 368.90,341.49 389.18,341.49 409.46,217.02 429.74,171.76 450.02,86.89 470.30,171.76 490.58,131.82 510.86,211.69 531.14,291.57 551.42,291.57 571.70,291.57 591.98,291.57 612.26,291.57 632.54,211.69 652.82,247.19 673.10,131.82 693.38,171.76 713.66,64.55 733.94,64.55 754.22,64.55 774.50,64.55 794.78,64.55 815.06,64.55 835.34,64.55 855.62,64.55 875.90,64.55 896.17,64.55 916.45,64.55" fill="none" stroke="#2563eb" stroke-width="2.5"/>
<circle cx="916.45" cy="64.55" r="3.5" fill="#2563eb"/>
<line x1="776" y1="26" x2="794" y2="26" stroke="#2563eb" stroke-width="3"/>
<text x="800" y="30" font-size="11" font-family="Arial, sans-serif" fill="#374151">trial-20260321-cleandata1</text>
</svg>