<svg xmlns="http://www.w3.org/2000/svg" width="980" height="460" viewBox="0 0 980 460">
<rect width="100%" height="100%" fill="#ffffff"/>
<text x="86" y="24" font-size="20" font-family="Arial, sans-serif" fill="#111827">Peak GPU Memory</text>
<text x="86" y="442" font-size="12" font-family="Arial, sans-serif" fill="#4b5563">step / epoch</text>
<text x="18" y="52" font-size="12" font-family="Arial, sans-serif" fill="#4b5563" transform="rotate(-90 18 52)">gpu/mem_peak_allocated_gb</text>
<line x1="86" y1="396.00" x2="956" y2="396.00" stroke="#e5e7eb" stroke-width="1"/>
<text x="76" y="400.00" font-size="11" text-anchor="end" font-family="Arial, sans-serif" fill="#6b7280">7.7469</text>
<line x1="86" y1="307.00" x2="956" y2="307.00" stroke="#e5e7eb" stroke-width="1"/>
<text x="76" y="311.00" font-size="11" text-anchor="end" font-family="Arial, sans-serif" fill="#6b7280">12.6845</text>
<line x1="86" y1="218.00" x2="956" y2="218.00" stroke="#e5e7eb" stroke-width="1"/>
<text x="76" y="222.00" font-size="11" text-anchor="end" font-family="Arial, sans-serif" fill="#6b7280">17.6220</text>
<line x1="86" y1="129.00" x2="956" y2="129.00" stroke="#e5e7eb" stroke-width="1"/>
<text x="76" y="133.00" font-size="11" text-anchor="end" font-family="Arial, sans-serif" fill="#6b7280">22.5595</text>
<line x1="86" y1="40.00" x2="956" y2="40.00" stroke="#e5e7eb" stroke-width="1"/>
<text x="76" y="44.00" font-size="11" text-anchor="end" font-family="Arial, sans-serif" fill="#6b7280">27.4971</text>
<line x1="86.00" y1="40" x2="86.00" y2="396" stroke="#f3f4f6" stroke-width="1"/>
<text x="86.00" y="420" font-size="11" text-anchor="middle" font-family="Arial, sans-serif" fill="#6b7280">-24.0000</text>
<line x1="260.00" y1="40" x2="260.00" y2="396" stroke="#f3f4f6" stroke-width="1"/>
<text x="260.00" y="420" font-size="11" text-anchor="middle" font-family="Arial, sans-serif" fill="#6b7280">81.6000</text>
<line x1="434.00" y1="40" x2="434.00" y2="396" stroke="#f3f4f6" stroke-width="1"/>
<text x="434.00" y="420" font-size="11" text-anchor="middle" font-family="Arial, sans-serif" fill="#6b7280">187.20</text>
<line x1="608.00" y1="40" x2="608.00" y2="396" stroke="#f3f4f6" stroke-width="1"/>
<text x="608.00" y="420" font-size="11" text-anchor="middle" font-family="Arial, sans-serif" fill="#6b7280">292.80</text>
<line x1="782.00" y1="40" x2="782.00" y2="396" stroke="#f3f4f6" stroke-width="1"/>
<text x="782.00" y="420" font-size="11" text-anchor="middle" font-family="Arial, sans-serif" fill="#6b7280">398.40</text>
<line x1="956.00" y1="40" x2="956.00" y2="396" stroke="#f3f4f6" stroke-width="1"/>
<text x="956.00" y="420" font-size="11" text-anchor="middle" font-family="Arial, sans-serif" fill="#6b7280">504.00</text>
<rect x="86" y="40" width="870" height="356" fill="none" stroke="#d1d5db" stroke-width="1"/>
<polyline points="127.19,371.45 128.84,371.45 130.49,371.45 132.14,371.45 133.78,371.45 125.55,371.45 127.19,176.43 128.84,159.42 130.49,159.42 132.14,159.42 133.78,159.42 135.43,159.40 137.08,159.40 138.73,112.46 140.38,66.07 142.02,66.07 142.02,66.07 143.67,66.07 145.32,66.07 145.32,66.07 145.32,66.07 145.32,66.07 145.32,66.07 145.32,66.07 146.97,66.07 148.61,66.07 150.26,66.07 151.91,66.07 153.56,66.07 155.20,66.07 156.85,66.07 158.50,66.07 158.50,66.07 160.15,66.07 161.80,66.07 163.44,66.07 165.09,66.07 165.09,66.07 165.09,66.07 165.09,66.07 165.09,66.07 165.09,66.07 166.74,66.07 168.39,66.07 170.03,66.07 171.68,66.07 173.33,64.73 174.98,64.73 174.98,64.73 176.62,64.73 178.27,64.73 179.92,64.73 181.57,64.73 183.22,64.73 184.86,64.73 184.86,64.73 184.86,64.73 184.86,64.73 184.86,64.73 184.86,64.73 186.51,64.73 188.16,64.73 189.81,64.73 191.45,64.73 191.45,64.73 193.10,64.73 194.75,64.73 196.40,64.73 198.05,64.73 199.69,64.73 201.34,64.73 202.99,64.73 204.64,64.73 204.64,64.73 204.64,64.73 204.64,64.73 204.64,64.73 204.64,64.73 206.28,64.73 207.93,64.73 207.93,64.73 209.58,64.73 211.23,64.73 212.88,64.73 214.52,64.73 216.17,64.73 217.82,64.73 219.47,64.73 221.11,64.73 222.76,64.73 224.41,64.73 224.41,64.73 224.41,64.73 224.41,64.73 224.41,64.73 224.41,64.73 224.41,64.73 226.06,64.73 227.70,64.73 229.35,64.73 231.00,64.73 232.65,64.73 234.30,64.73 235.94,64.73 237.59,64.73 239.24,64.73 240.89,64.73 240.89,64.73 242.53,64.73 244.18,64.73 244.18,64.73 244.18,64.73 244.18,64.73 244.18,64.73 244.18,64.73 245.83,64.73 247.48,64.73 249.12,64.73 250.77,64.73 252.42,64.73 254.07,64.73 255.72,64.73 257.36,64.73 257.36,64.73 259.01,64.73 260.66,64.73 262.31,64.73 263.95,64.73 263.95,64.73 263.95,64.73 263.95,64.73 263.95,64.73 263.95,64.73 265.60,64.73 267.25,64.73 268.90,64.73 270.55,64.73 272.19,64.73 273.84,64.73 273.84,64.73 275.49,64.73 277.14,64.73 278.78,64.73 280.43,64.73 282.08,64.73 283.73,64.73 283.73,64.73 283.73,64.73 283.73,64.73 283.73,64.73 283.73,64.73 285.38,64.73 287.02,64.73 288.67,64.73 290.32,64.73 290.32,64.73 291.97,64.73 293.61,64.73 295.26,64.73 296.91,64.73 298.56,64.73 300.20,64.73 301.85,64.73 303.50,64.73 303.50,64.73 303.50,64.73 303.50,64.73 303.50,64.73 303.50,64.73 305.15,64.73 306.80,64.73 306.80,64.73 308.44,64.73 310.09,64.73 311.74,64.73 313.39,64.73 315.03,64.73 316.68,64.73 318.33,64.73 319.98,64.73 321.62,64.73 323.27,64.73 323.27,64.73 323.27,64.73 323.27,64.73 323.27,64.73 323.27,64.73 323.27,64.73 324.92,64.73 326.57,64.73 328.22,64.73 329.86,64.73 331.51,64.73 333.16,64.73 334.81,64.73 336.45,64.73 338.10,64.73 339.75,64.73 339.75,64.73 341.40,64.73 343.05,64.73 343.05,64.73 343.05,64.73 343.05,64.73 343.05,64.73 343.05,64.73 344.69,64.73 346.34,64.73 347.99,64.73 349.64,64.73 351.28,64.73 352.93,64.73 354.58,64.73 356.23,64.73 356.23,64.73 357.88,64.73 359.52,64.73 361.17,64.73 362.82,64.73 362.82,64.73 362.82,64.73 362.82,64.73 362.82,64.73 362.82,64.73 364.47,64.73 366.11,64.73 367.76,64.73 369.41,64.73 371.06,64.73 372.70,64.73 372.70,64.73 374.35,64.73 376.00,64.73 377.65,64.73 379.30,64.73 380.94,64.73 382.59,64.73 382.59,64.73 382.59,64.73 382.59,64.73 382.59,64.73 382.59,64.73 384.24,64.73 385.89,64.73 387.53,64.73 389.18,64.73 389.18,64.73 390.83,64.73 392.48,64.73 394.12,64.73 395.77,64.73 397.42,64.73 399.07,64.73 400.72,64.73 402.36,64.73 402.36,64.73 402.36,64.73 402.36,64.73 402.36,64.73 402.36,64.73 404.01,64.73 405.66,64.73 405.66,64.73 407.31,64.73 408.95,64.73 410.60,64.73 412.25,64.73 413.90,64.73 415.55,64.73 417.19,64.73 418.84,64.73 420.49,64.73 422.14,64.73 422.14,64.73 422.14,64.73 422.14,64.73 422.14,64.73 422.14,64.73 422.14,64.73 423.78,64.73 425.43,64.73 427.08,64.73 428.73,64.73 430.38,64.73 432.02,64.73 433.67,64.73 435.32,64.73 436.97,64.73 438.61,64.73 438.61,64.73 440.26,64.73 441.91,64.73 441.91,64.73 441.91,64.73 441.91,64.73 441.91,64.73 443.56,64.73 445.20,64.73 446.85,64.73 448.50,64.73 450.15,64.73 451.80,64.73 453.44,64.73 455.09,64.73 455.09,64.73 456.74,64.73 458.39,64.73 460.03,64.73 461.68,64.73 461.68,64.73 461.68,64.73 461.68,64.73 461.68,64.73 461.68,64.73 463.33,64.73 464.98,64.73 466.62,64.73 468.27,64.73 469.92,64.64 471.57,64.64 471.57,64.64 473.22,64.64 474.86,64.64 476.51,64.64 478.16,64.64 479.81,64.64 481.45,64.64 481.45,64.64 481.45,64.64 481.45,64.64 481.45,64.64 481.45,64.64 483.10,64.64 484.75,64.64 486.40,64.64 488.05,64.64 488.05,64.64 489.69,64.64 491.34,64.64 492.99,64.64 494.64,64.64 496.28,64.64 497.93,64.64 499.58,64.64 501.23,64.64 501.23,64.64 501.23,64.64 501.23,64.64 501.23,64.64 501.23,64.64 502.88,64.64 504.52,64.64 504.52,64.64 506.17,64.64 507.82,64.64 509.47,64.64 511.11,64.64 512.76,64.64 514.41,64.64 516.06,64.64 517.70,64.64 519.35,64.64 521.00,64.64 521.00,64.64 521.00,64.64 521.00,64.64 521.00,64.64 521.00,64.64 521.00,64.64 522.65,64.64 524.30,64.64 525.94,64.64 527.59,64.64 529.24,64.64 530.89,64.64 532.53,64.64 534.18,64.64 535.83,64.64 537.48,64.64 537.48,64.64 539.12,64.64 540.77,64.64 540.77,64.64 540.77,64.64 540.77,64.64 540.77,64.64 542.42,64.64 544.07,64.64 545.72,64.64 547.36,64.64 549.01,64.64 550.66,64.64 552.31,64.64 553.95,64.64 553.95,64.64 555.60,64.64 557.25,64.64 558.90,64.64 560.55,64.64 560.55,64.64 560.55,64.64 560.55,64.64 560.55,64.64 562.19,64.64 563.84,64.64 565.49,64.64 567.14,64.64 568.78,64.64 570.43,64.64 570.43,64.64 572.08,64.64 573.73,64.64 575.38,64.64 577.02,64.64 578.67,64.64 580.32,64.64 580.32,64.64 580.32,64.64 580.32,64.64 580.32,64.64 580.32,64.64 581.97,64.64 583.61,64.64 585.26,64.64 586.91,64.64 586.91,64.64 588.56,64.64 590.20,64.64 591.85,64.64 593.50,64.64 595.15,64.64 596.80,64.64 598.44,64.64 600.09,64.64 600.09,64.64 600.09,64.64 600.09,64.64 600.09,64.64 600.09,64.64 601.74,64.64 603.39,64.64 603.39,64.64 605.03,64.64 606.68,64.64 608.33,64.64 609.98,64.64 611.62,64.64 613.27,64.64 614.92,64.64 616.57,64.64 618.22,64.64 619.86,64.64 619.86,64.64 619.86,64.64 619.86,64.64 619.86,64.64 619.86,64.64 619.86,64.64 621.51,64.64 623.16,64.64 624.81,64.64 626.45,64.64 628.10,64.64 629.75,64.64 631.40,64.64 633.05,64.64 634.69,64.64 636.34,64.64 636.34,64.64 637.99,64.64 639.64,64.64 639.64,64.64 639.64,64.64 639.64,64.64 639.64,64.64 641.28,64.64 642.93,64.64 644.58,64.64 646.23,64.64 647.88,64.64 649.52,64.64 651.17,64.64 652.82,64.64 652.82,64.64 654.47,64.64 656.11,64.64 657.76,64.64 659.41,64.64 659.41,64.64 659.41,64.64 659.41,64.64 659.41,64.64 661.06,64.64 662.70,64.64 664.35,64.64 666.00,64.64 667.65,64.64 669.30,64.64 669.30,64.64 670.94,64.64 672.59,64.64 674.24,64.64 675.89,64.64 677.53,64.64 679.18,64.64 679.18,64.64 679.18,64.64 679.18,64.64 679.18,64.64 680.83,64.64 682.48,64.64 684.12,64.64 685.77,64.64 685.77,64.64 687.42,64.64 689.07,64.64 690.72,64.64 692.36,64.64 694.01,64.64 695.66,64.64 697.31,64.64 698.95,64.64 698.95,64.64 698.95,64.64 698.95,64.64 698.95,64.64 700.60,64.64 702.25,64.64 702.25,64.64 703.90,64.64 705.55,64.64 707.19,64.64 708.84,64.64 710.49,64.64 712.14,64.64 713.78,64.64 715.43,64.64 717.08,64.64 718.73,64.64 718.73,64.64 718.73,64.64 718.73,64.64 718.73,64.64 718.73,64.64 720.38,64.64 722.02,64.64 723.67,64.64 725.32,64.64 726.97,64.64 728.61,64.64 730.26,64.64 731.91,64.64 733.56,64.64 735.20,64.64 735.20,64.64 736.85,64.64 738.50,64.64 738.50,64.64 738.50,64.64 738.50,64.64 738.50,64.64 740.15,64.64 741.80,64.64 743.44,64.64 745.09,64.64 746.74,64.64 748.39,64.64 750.03,64.64 751.68,64.64 751.68,64.64 753.33,64.64 754.98,64.64 756.62,64.64 758.27,64.64 758.27,64.64 758.27,64.64 758.27,64.64 758.27,64.64 759.92,64.64 761.57,64.64 763.22,64.64 764.86,64.64 766.51,64.64 768.16,64.64 768.16,64.64 769.81,64.64 771.45,64.64 773.10,64.64 774.75,64.64 776.40,64.64 778.05,64.64 778.05,64.64 778.05,64.64 778.05,64.64 778.05,64.64 779.69,64.64 781.34,64.64 782.99,64.64 784.64,64.64 784.64,64.64 786.28,64.64 787.93,64.64 789.58,64.64 791.23,64.64 792.88,64.64 794.52,64.64 796.17,64.64 797.82,64.64 797.82,64.64 797.82,64.64 797.82,64.64 797.82,64.64 799.47,64.64 801.11,64.64 801.11,64.64 802.76,64.64 804.41,64.64 806.06,64.64 807.70,64.64 809.35,64.64 811.00,64.64 812.65,64.64 814.30,64.64 815.94,64.64 817.59,64.64 817.59,64.64 817.59,64.64 817.59,64.64 817.59,64.64 817.59,64.64 819.24,64.64 820.89,64.64 822.53,64.64 824.18,64.64 825.83,64.64 827.48,64.64 829.12,64.64 830.77,64.64 832.42,64.64 834.07,64.64 834.07,64.64 835.72,64.64 837.36,64.64 837.36,64.64 837.36,64.64 837.36,64.64 837.36,64.64 839.01,64.64 840.66,64.64 842.31,64.64 843.95,64.64 845.60,64.64 847.25,64.64 848.90,64.64 850.55,64.64 850.55,64.64 852.19,64.64 853.84,64.64 855.49,64.64 857.14,64.64 857.14,64.64 857.14,64.64 857.14,64.64 857.14,64.64 858.78,64.55 860.43,64.55 862.08,64.55 863.73,64.55 865.38,64.55 867.02,64.55 867.02,64.55 868.67,64.55 870.32,64.55 871.97,64.55 873.61,64.55 875.26,64.55 876.91,64.55 876.91,64.55 876.91,64.55 876.91,64.55 876.91,64.55 878.56,64.55 880.20,64.55 881.85,64.55 883.50,64.55 883.50,64.55 885.15,64.55 886.80,64.55 888.44,64.55 890.09,64.55 891.74,64.55 893.39,64.55 895.03,64.55 896.68,64.55 896.68,64.55 896.68,64.55 896.68,64.55 896.68,64.55 898.33,64.55 899.98,64.55 899.98,64.55 901.62,64.55 903.27,64.55 904.92,64.55 906.57,64.55 908.22,64.55 909.86,64.55 911.51,64.55 913.16,64.55 914.81,64.55 916.45,64.55 916.45,64.55 916.45,64.55 916.45,64.55 916.45,64.55 916.45,64.55" fill="none" stroke="#2563eb" stroke-width="2.5"/>
<circle cx="916.45" cy="64.55" r="3.5" fill="#2563eb"/>
<line x1="776" y1="26" x2="794" y2="26" stroke="#2563eb" stroke-width="3"/>
<text x="800" y="30" font-size="11" font-family="Arial, sans-serif" fill="#374151">trial-20260321-cleandata1</text>
</svg>