<svg xmlns="http://www.w3.org/2000/svg" width="980" height="460" viewBox="0 0 980 460">
<rect width="100%" height="100%" fill="#ffffff"/>
<text x="86" y="24" font-size="20" font-family="Arial, sans-serif" fill="#111827">Train Step Stage 3 Accuracy</text>
<text x="86" y="442" font-size="12" font-family="Arial, sans-serif" fill="#4b5563">step / epoch</text>
<text x="18" y="52" font-size="12" font-family="Arial, sans-serif" fill="#4b5563" transform="rotate(-90 18 52)">train_step/stage3_acc</text>
<line x1="86" y1="396.00" x2="956" y2="396.00" stroke="#e5e7eb" stroke-width="1"/>
<text x="76" y="400.00" font-size="11" text-anchor="end" font-family="Arial, sans-serif" fill="#6b7280">-0.080000</text>
<line x1="86" y1="307.00" x2="956" y2="307.00" stroke="#e5e7eb" stroke-width="1"/>
<text x="76" y="311.00" font-size="11" text-anchor="end" font-family="Arial, sans-serif" fill="#6b7280">0.210000</text>
<line x1="86" y1="218.00" x2="956" y2="218.00" stroke="#e5e7eb" stroke-width="1"/>
<text x="76" y="222.00" font-size="11" text-anchor="end" font-family="Arial, sans-serif" fill="#6b7280">0.500000</text>
<line x1="86" y1="129.00" x2="956" y2="129.00" stroke="#e5e7eb" stroke-width="1"/>
<text x="76" y="133.00" font-size="11" text-anchor="end" font-family="Arial, sans-serif" fill="#6b7280">0.790000</text>
<line x1="86" y1="40.00" x2="956" y2="40.00" stroke="#e5e7eb" stroke-width="1"/>
<text x="76" y="44.00" font-size="11" text-anchor="end" font-family="Arial, sans-serif" fill="#6b7280">1.0800</text>
<line x1="86.00" y1="40" x2="86.00" y2="396" stroke="#f3f4f6" stroke-width="1"/>
<text x="86.00" y="420" font-size="11" text-anchor="middle" font-family="Arial, sans-serif" fill="#6b7280">-22.9500</text>
<line x1="260.00" y1="40" x2="260.00" y2="396" stroke="#f3f4f6" stroke-width="1"/>
<text x="260.00" y="420" font-size="11" text-anchor="middle" font-family="Arial, sans-serif" fill="#6b7280">82.4300</text>
<line x1="434.00" y1="40" x2="434.00" y2="396" stroke="#f3f4f6" stroke-width="1"/>
<text x="434.00" y="420" font-size="11" text-anchor="middle" font-family="Arial, sans-serif" fill="#6b7280">187.81</text>
<line x1="608.00" y1="40" x2="608.00" y2="396" stroke="#f3f4f6" stroke-width="1"/>
<text x="608.00" y="420" font-size="11" text-anchor="middle" font-family="Arial, sans-serif" fill="#6b7280">293.19</text>
<line x1="782.00" y1="40" x2="782.00" y2="396" stroke="#f3f4f6" stroke-width="1"/>
<text x="782.00" y="420" font-size="11" text-anchor="middle" font-family="Arial, sans-serif" fill="#6b7280">398.57</text>
<line x1="956.00" y1="40" x2="956.00" y2="396" stroke="#f3f4f6" stroke-width="1"/>
<text x="956.00" y="420" font-size="11" text-anchor="middle" font-family="Arial, sans-serif" fill="#6b7280">503.95</text>
<rect x="86" y="40" width="870" height="356" fill="none" stroke="#d1d5db" stroke-width="1"/>
<polyline points="125.55,64.55 127.20,371.45 128.85,64.55 130.50,218.00 132.15,64.55 133.80,269.15 135.45,218.00 137.10,64.55 138.75,371.45 140.41,64.55 140.41,177.08 142.06,64.55 143.71,269.15 145.36,64.55 147.01,371.45 148.66,64.55 150.31,218.00 151.96,64.55 153.62,218.00 155.27,218.00 156.92,218.00 156.92,177.08 158.57,64.55 160.22,64.55 161.87,218.00 163.52,64.55 165.17,218.00 166.82,64.55 168.48,64.55 170.13,64.55 171.78,371.45 173.43,64.55 173.43,125.93 175.08,64.55 176.73,64.55 178.38,64.55 180.03,218.00 181.69,64.55 183.34,218.00 184.99,64.55 186.64,64.55 188.29,64.55 189.94,218.00 189.94,110.59 191.59,218.00 193.24,64.55 194.89,166.85 196.55,64.55 198.20,64.55 199.85,64.55 201.50,218.00 203.15,371.45 204.80,64.55 206.45,218.00 206.45,151.51 208.10,218.00 209.75,64.55 211.41,64.55 213.06,64.55 214.71,371.45 216.36,64.55 218.01,269.15 219.66,218.00 221.31,218.00 222.96,64.55 222.96,161.74 224.62,64.55 226.27,64.55 227.92,218.00 229.57,218.00 231.22,64.55 232.87,371.45 234.52,64.55 236.17,64.55 237.82,371.45 239.48,371.45 239.48,187.31 241.13,64.55 242.78,64.55 244.43,64.55 246.08,64.55 247.73,218.00 249.38,64.55 251.03,64.55 252.69,166.85 254.34,64.55 255.99,218.00 255.99,105.47 257.64,218.00 259.29,64.55 260.94,218.00 262.59,64.55 264.24,64.55 265.89,64.55 267.55,64.55 269.20,64.55 270.85,64.55 272.50,64.55 272.50,95.24 274.15,371.45 275.80,371.45 277.45,166.85 279.10,64.55 280.76,64.55 282.41,371.45 284.06,64.55 285.71,64.55 287.36,64.55 289.01,64.55 289.01,166.85 290.66,64.55 292.31,64.55 293.96,64.55 295.62,64.55 297.27,64.55 298.92,218.00 300.57,64.55 302.22,218.00 303.87,64.55 305.52,141.28 305.52,102.91 307.17,218.00 308.83,64.55 310.48,218.00 312.13,64.55 313.78,64.55 315.43,64.55 317.08,218.00 318.73,64.55 320.38,64.55 322.03,218.00 322.03,125.93 323.69,64.55 325.34,64.55 326.99,218.00 328.64,64.55 330.29,64.55 331.94,371.45 333.59,64.55 335.24,218.00 336.89,166.85 338.55,166.85 338.55,146.39 340.20,64.55 341.85,64.55 343.50,371.45 345.15,64.55 346.80,64.55 348.45,64.55 350.10,64.55 351.76,64.55 353.41,64.55 355.06,64.55 355.06,95.24 356.71,371.45 358.36,64.55 360.01,218.00 361.66,64.55 363.31,64.55 364.96,64.55 366.62,64.55 368.27,371.45 369.92,371.45 371.57,218.00 371.57,187.31 373.22,64.55 374.87,64.55 376.52,64.55 378.17,218.00 379.83,166.85 381.48,166.85 383.13,269.15 384.78,64.55 386.43,64.55 388.08,64.55 388.08,120.82 389.73,64.55 391.38,64.55 393.03,64.55 394.69,64.55 396.34,64.55 397.99,64.55 399.64,64.55 401.29,64.55 402.94,64.55 404.59,64.55 404.59,64.55 406.24,64.55 407.90,166.85 409.55,64.55 411.20,64.55 412.85,64.55 414.50,218.00 416.15,64.55 417.80,218.00 419.45,64.55 421.10,64.55 421.10,105.47 422.76,64.55 424.41,218.00 426.06,218.00 427.71,371.45 429.36,64.55 431.01,64.55 432.66,64.55 434.31,371.45 435.96,64.55 437.62,64.55 437.62,156.62 439.27,64.55 440.92,64.55 442.57,371.45 444.22,64.55 445.87,218.00 447.52,64.55 449.17,371.45 450.83,64.55 452.48,64.55 454.13,218.00 454.13,156.62 455.78,64.55 457.43,141.28 459.08,218.00 460.73,64.55 462.38,64.55 464.03,371.45 465.69,64.55 467.34,64.55 468.99,64.55 470.64,64.55 470.64,118.26 472.29,64.55 473.94,64.55 475.59,64.55 477.24,269.15 478.90,64.55 480.55,64.55 482.20,64.55 483.85,64.55 485.50,64.55 487.15,371.45 487.15,115.70 488.80,64.55 490.45,64.55 492.10,64.55 493.76,64.55 495.41,64.55 497.06,218.00 498.71,64.55 500.36,166.85 502.01,64.55 503.66,371.45 503.66,120.82 505.31,64.55 506.97,64.55 508.62,218.00 510.27,64.55 511.92,64.55 513.57,64.55 515.22,64.55 516.87,64.55 518.52,269.15 520.17,166.85 520.17,110.59 521.83,64.55 523.48,64.55 525.13,64.55 526.78,371.45 528.43,64.55 530.08,218.00 531.73,64.55 533.38,64.55 535.03,166.85 536.69,64.55 536.69,120.82 538.34,269.15 539.99,218.00 541.64,64.55 543.29,64.55 544.94,64.55 546.59,64.55 548.24,64.55 549.90,371.45 551.55,218.00 553.20,166.85 553.20,156.62 554.85,64.55 556.50,187.31 558.15,64.55 559.80,64.55 561.45,64.55 563.10,64.55 564.76,64.55 566.41,64.55 568.06,64.55 569.71,64.55 569.71,76.83 571.36,64.55 573.01,64.55 574.66,64.55 576.31,64.55 577.97,64.55 579.62,64.55 581.27,371.45 582.92,64.55 584.57,64.55 586.22,64.55 586.22,95.24 587.87,64.55 589.52,218.00 591.17,64.55 592.83,64.55 594.48,64.55 596.13,64.55 597.78,371.45 599.43,64.55 601.08,64.55 602.73,64.55 602.73,110.59 604.38,64.55 606.04,64.55 607.69,64.55 609.34,64.55 610.99,64.55 612.64,64.55 614.29,64.55 615.94,64.55 617.59,64.55 619.24,64.55 619.24,64.55 620.90,218.00 622.55,64.55 624.20,64.55 625.85,64.55 627.50,64.55 629.15,218.00 630.80,64.55 632.45,371.45 634.10,371.45 635.76,64.55 635.76,156.62 637.41,371.45 639.06,371.45 640.71,64.55 642.36,371.45 644.01,64.55 645.66,64.55 647.31,64.55 648.97,64.55 650.62,64.55 652.27,64.55 652.27,156.62 653.92,64.55 655.57,64.55 657.22,218.00 658.87,64.55 660.52,64.55 662.17,64.55 663.83,64.55 665.48,64.55 667.13,371.45 668.78,64.55 668.78,110.59 670.43,218.00 672.08,64.55 673.73,64.55 675.38,371.45 677.04,371.45 678.69,64.55 680.34,64.55 681.99,141.28 683.64,64.55 685.29,64.55 685.29,148.95 686.94,64.55 688.59,64.55 690.24,64.55 691.90,64.55 693.55,64.55 695.20,64.55 696.85,64.55 698.50,64.55 700.15,64.55 701.80,64.55 701.80,64.55 703.45,371.45 705.11,371.45 706.76,64.55 708.41,64.55 710.06,64.55 711.71,64.55 713.36,64.55 715.01,64.55 716.66,218.00 718.31,166.85 718.31,151.51 719.97,64.55 721.62,64.55 723.27,64.55 724.92,64.55 726.57,64.55 728.22,64.55 729.87,64.55 731.52,269.15 733.17,64.55 734.83,64.55 734.83,85.01 736.48,64.55 738.13,64.55 739.78,64.55 741.43,64.55 743.08,64.55 744.73,64.55 746.38,166.85 748.04,64.55 749.69,64.55 751.34,371.45 751.34,105.47 752.99,64.55 754.64,64.55 756.29,64.55 757.94,166.85 759.59,64.55 761.24,371.45 762.90,371.45 764.55,64.55 766.20,218.00 767.85,64.55 767.85,151.51 769.50,64.55 771.15,64.55 772.80,64.55 774.45,371.45 776.11,218.00 777.76,64.55 779.41,64.55 781.06,64.55 782.71,64.55 784.36,64.55 784.36,110.59 786.01,64.55 787.66,64.55 789.31,64.55 790.97,64.55 792.62,218.00 794.27,218.00 795.92,64.55 797.57,64.55 799.22,64.55 800.87,64.55 800.87,95.24 802.52,64.55 804.18,64.55 805.83,64.55 807.48,218.00 809.13,64.55 810.78,64.55 812.43,371.45 814.08,64.55 815.73,371.45 817.38,218.00 817.38,156.62 819.04,64.55 820.69,64.55 822.34,371.45 823.99,64.55 825.64,64.55 827.29,64.55 828.94,218.00 830.59,64.55 832.25,64.55 833.90,187.31 833.90,122.86 835.55,64.55 837.20,371.45 838.85,64.55 840.50,64.55 842.15,64.55 843.80,218.00 845.45,64.55 847.11,64.55 848.76,166.85 850.41,64.55 850.41,120.82 852.06,64.55 853.71,64.55 855.36,64.55 857.01,218.00 858.66,64.55 860.31,218.00 861.97,64.55 863.62,269.15 865.27,64.55 866.92,371.45 866.92,146.39 868.57,371.45 870.22,64.55 871.87,64.55 873.52,64.55 875.18,64.55 876.83,64.55 878.48,64.55 880.13,64.55 881.78,64.55 883.43,218.00 883.43,110.59 885.08,166.85 886.73,64.55 888.38,64.55 890.04,64.55 891.69,64.55 893.34,64.55 894.99,64.55 896.64,64.55 898.29,64.55 899.94,64.55 899.94,74.78 901.59,64.55 903.25,64.55 904.90,64.55 906.55,64.55 908.20,64.55 909.85,125.93 911.50,64.55 913.15,64.55 914.80,64.55 916.45,218.00 916.45,86.03" fill="none" stroke="#2563eb" stroke-width="2.5"/>
<circle cx="916.45" cy="86.03" r="3.5" fill="#2563eb"/>
<line x1="776" y1="26" x2="794" y2="26" stroke="#2563eb" stroke-width="3"/>
<text x="800" y="30" font-size="11" font-family="Arial, sans-serif" fill="#374151">trial-20260321-cleandata1</text>
</svg>