<svg xmlns="http://www.w3.org/2000/svg" width="980" height="460" viewBox="0 0 980 460">
<rect width="100%" height="100%" fill="#ffffff"/>
<text x="86" y="24" font-size="20" font-family="Arial, sans-serif" fill="#111827">Train Step Stage 3 Loss</text>
<text x="86" y="442" font-size="12" font-family="Arial, sans-serif" fill="#4b5563">step / epoch</text>
<text x="18" y="52" font-size="12" font-family="Arial, sans-serif" fill="#4b5563" transform="rotate(-90 18 52)">train_step/loss_stage3</text>
<line x1="86" y1="396.00" x2="956" y2="396.00" stroke="#e5e7eb" stroke-width="1"/>
<text x="76" y="400.00" font-size="11" text-anchor="end" font-family="Arial, sans-serif" fill="#6b7280">-0.738379</text>
<line x1="86" y1="307.00" x2="956" y2="307.00" stroke="#e5e7eb" stroke-width="1"/>
<text x="76" y="311.00" font-size="11" text-anchor="end" font-family="Arial, sans-serif" fill="#6b7280">2.0108</text>
<line x1="86" y1="218.00" x2="956" y2="218.00" stroke="#e5e7eb" stroke-width="1"/>
<text x="76" y="222.00" font-size="11" text-anchor="end" font-family="Arial, sans-serif" fill="#6b7280">4.7600</text>
<line x1="86" y1="129.00" x2="956" y2="129.00" stroke="#e5e7eb" stroke-width="1"/>
<text x="76" y="133.00" font-size="11" text-anchor="end" font-family="Arial, sans-serif" fill="#6b7280">7.5092</text>
<line x1="86" y1="40.00" x2="956" y2="40.00" stroke="#e5e7eb" stroke-width="1"/>
<text x="76" y="44.00" font-size="11" text-anchor="end" font-family="Arial, sans-serif" fill="#6b7280">10.2584</text>
<line x1="86.00" y1="40" x2="86.00" y2="396" stroke="#f3f4f6" stroke-width="1"/>
<text x="86.00" y="420" font-size="11" text-anchor="middle" font-family="Arial, sans-serif" fill="#6b7280">-22.9500</text>
<line x1="260.00" y1="40" x2="260.00" y2="396" stroke="#f3f4f6" stroke-width="1"/>
<text x="260.00" y="420" font-size="11" text-anchor="middle" font-family="Arial, sans-serif" fill="#6b7280">82.4300</text>
<line x1="434.00" y1="40" x2="434.00" y2="396" stroke="#f3f4f6" stroke-width="1"/>
<text x="434.00" y="420" font-size="11" text-anchor="middle" font-family="Arial, sans-serif" fill="#6b7280">187.81</text>
<line x1="608.00" y1="40" x2="608.00" y2="396" stroke="#f3f4f6" stroke-width="1"/>
<text x="608.00" y="420" font-size="11" text-anchor="middle" font-family="Arial, sans-serif" fill="#6b7280">293.19</text>
<line x1="782.00" y1="40" x2="782.00" y2="396" stroke="#f3f4f6" stroke-width="1"/>
<text x="782.00" y="420" font-size="11" text-anchor="middle" font-family="Arial, sans-serif" fill="#6b7280">398.57</text>
<line x1="956.00" y1="40" x2="956.00" y2="396" stroke="#f3f4f6" stroke-width="1"/>
<text x="956.00" y="420" font-size="11" text-anchor="middle" font-family="Arial, sans-serif" fill="#6b7280">503.95</text>
<rect x="86" y="40" width="870" height="356" fill="none" stroke="#d1d5db" stroke-width="1"/>
<polyline points="125.55,370.06 127.20,223.38 128.85,364.92 130.50,358.60 132.15,340.86 133.80,302.08 135.45,342.22 137.10,365.57 138.75,273.46 140.41,363.77 140.41,330.49 142.06,366.63 143.71,310.25 145.36,367.67 147.01,237.55 148.66,370.26 150.31,352.97 151.96,366.63 153.62,322.49 155.27,333.08 156.92,354.05 156.92,338.16 158.57,357.81 160.22,364.10 161.87,347.93 163.52,368.97 165.17,316.52 166.82,363.42 168.48,350.22 170.13,357.14 171.78,339.47 173.43,365.68 173.43,353.12 175.08,365.93 176.73,343.77 178.38,367.32 180.03,348.86 181.69,361.09 183.34,351.72 184.99,353.40 186.64,369.55 188.29,367.77 189.94,321.73 189.94,355.11 191.59,313.61 193.24,364.57 194.89,343.25 196.55,363.11 198.20,357.46 199.85,354.87 201.50,314.32 203.15,299.76 204.80,345.54 206.45,332.47 206.45,338.90 208.10,330.81 209.75,365.52 211.41,369.79 213.06,365.90 214.71,336.94 216.36,350.00 218.01,319.60 219.66,346.80 221.31,338.63 222.96,348.32 222.96,347.23 224.62,364.41 226.27,358.99 227.92,342.85 229.57,330.76 231.22,366.06 232.87,120.19 234.52,363.47 236.17,366.34 237.82,307.35 239.48,283.58 239.48,320.40 241.13,363.88 242.78,369.61 244.43,355.40 246.08,356.23 247.73,335.64 249.38,368.63 251.03,346.80 252.69,352.90 254.34,368.79 255.99,345.70 255.99,356.36 257.64,328.39 259.29,369.64 260.94,293.85 262.59,368.65 264.24,365.72 265.89,368.92 267.55,334.66 269.20,370.46 270.85,365.47 272.50,347.18 272.50,351.29 274.15,327.58 275.80,235.52 277.45,356.49 279.10,367.35 280.76,367.54 282.41,344.40 284.06,369.71 285.71,369.35 287.36,368.73 289.01,368.25 289.01,347.49 290.66,354.27 292.31,370.46 293.96,370.21 295.62,361.05 297.27,355.93 298.92,346.78 300.57,370.12 302.22,339.19 303.87,367.27 305.52,316.75 305.52,355.20 307.17,340.62 308.83,369.11 310.48,335.56 312.13,370.17 313.78,370.67 315.43,369.89 317.08,274.17 318.73,364.13 320.38,369.39 322.03,345.89 322.03,350.96 323.69,360.97 325.34,369.39 326.99,323.58 328.64,366.83 330.29,368.50 331.94,306.34 333.59,370.56 335.24,338.49 336.89,351.90 338.55,353.01 338.55,350.96 340.20,365.43 341.85,366.06 343.50,270.93 345.15,358.82 346.80,370.30 348.45,357.24 350.10,362.36 351.76,365.49 353.41,370.56 355.06,365.77 355.06,355.30 356.71,324.30 358.36,337.95 360.01,334.29 361.66,368.27 363.31,369.25 364.96,363.58 366.62,369.99 368.27,340.23 369.92,329.35 371.57,336.18 371.57,347.34 373.22,361.75 374.87,367.20 376.52,367.45 378.17,344.49 379.83,351.03 381.48,344.55 383.13,336.60 384.78,359.13 386.43,361.86 388.08,370.37 388.08,356.44 389.73,367.51 391.38,358.25 393.03,360.60 394.69,364.20 396.34,333.40 397.99,364.64 399.64,358.44 401.29,364.66 402.94,366.62 404.59,367.73 404.59,360.61 406.24,369.58 407.90,343.30 409.55,363.04 411.20,369.28 412.85,336.69 414.50,351.64 416.15,370.57 417.80,328.03 419.45,361.57 421.10,370.21 421.10,356.39 422.76,366.04 424.41,346.31 426.06,348.64 427.71,320.50 429.36,370.31 431.01,370.63 432.66,367.01 434.31,64.55 435.96,370.63 437.62,371.08 437.62,329.57 439.27,358.00 440.92,364.53 442.57,285.09 444.22,369.56 445.87,342.19 447.52,359.10 449.17,333.15 450.83,371.00 452.48,359.89 454.13,337.36 454.13,347.99 455.78,352.62 457.43,342.20 459.08,356.44 460.73,370.25 462.38,368.91 464.03,302.29 465.69,370.61 467.34,359.87 468.99,369.69 470.64,366.07 470.64,355.90 472.29,371.06 473.94,370.34 475.59,348.07 477.24,345.10 478.90,369.88 480.55,365.11 482.20,369.58 483.85,370.59 485.50,365.42 487.15,318.23 487.15,359.34 488.80,367.95 490.45,366.43 492.10,343.64 493.76,367.07 495.41,368.27 497.06,345.50 498.71,367.08 500.36,360.13 502.01,370.88 503.66,307.35 503.66,356.43 505.31,368.31 506.97,367.91 508.62,307.97 510.27,370.79 511.92,345.67 513.57,369.69 515.22,370.52 516.87,360.44 518.52,346.67 520.17,344.58 520.17,355.25 521.83,370.59 523.48,356.61 525.13,370.50 526.78,320.00 528.43,370.71 530.08,341.03 531.73,370.70 533.38,366.74 535.03,333.74 536.69,366.72 536.69,356.73 538.34,337.01 539.99,349.70 541.64,361.98 543.29,350.09 544.94,370.90 546.59,365.14 548.24,370.78 549.90,317.47 551.55,328.73 553.20,357.34 553.20,350.91 554.85,369.09 556.50,339.21 558.15,354.27 559.80,361.48 561.45,342.13 563.10,369.79 564.76,347.56 566.41,370.52 568.06,361.01 569.71,364.03 569.71,357.91 571.36,358.12 573.01,367.02 574.66,367.92 576.31,368.38 577.97,368.20 579.62,370.44 581.27,323.28 582.92,360.52 584.57,348.95 586.22,370.32 586.22,360.31 587.87,370.18 589.52,351.00 591.17,370.66 592.83,369.05 594.48,370.97 596.13,371.00 597.78,312.66 599.43,371.12 601.08,350.09 602.73,351.86 602.73,358.86 604.38,355.97 606.04,356.66 607.69,370.67 609.34,370.42 610.99,369.40 612.64,370.07 614.29,367.95 615.94,371.35 617.59,338.46 619.24,366.60 619.24,363.76 620.90,346.68 622.55,370.96 624.20,370.91 625.85,368.43 627.50,371.15 629.15,328.63 630.80,364.01 632.45,340.10 634.10,324.55 635.76,363.54 635.76,354.90 637.41,321.77 639.06,329.61 640.71,367.16 642.36,329.61 644.01,368.94 645.66,361.47 647.31,370.93 648.97,370.42 650.62,369.31 652.27,331.38 652.27,352.06 653.92,369.76 655.57,369.35 657.22,339.94 658.87,348.95 660.52,356.29 662.17,370.54 663.83,367.75 665.48,369.79 667.13,314.94 668.78,360.21 668.78,356.75 670.43,340.67 672.08,369.50 673.73,370.26 675.38,281.05 677.04,326.07 678.69,367.22 680.34,371.06 681.99,353.21 683.64,367.62 685.29,369.23 685.29,351.59 686.94,366.56 688.59,371.02 690.24,359.13 691.90,369.84 693.55,369.16 695.20,368.76 696.85,369.83 698.50,371.10 700.15,369.25 701.80,370.74 701.80,368.54 703.45,316.96 705.11,326.57 706.76,357.17 708.41,371.06 710.06,370.15 711.71,367.80 713.36,361.98 715.01,365.55 716.66,354.02 718.31,333.85 718.31,352.51 719.97,364.96 721.62,333.40 723.27,369.12 724.92,362.93 726.57,371.05 728.22,370.95 729.87,361.03 731.52,337.66 733.17,364.33 734.83,370.89 734.83,360.63 736.48,369.08 738.13,368.33 739.78,370.89 741.43,354.30 743.08,371.11 744.73,371.05 746.38,346.57 748.04,368.55 749.69,370.91 751.34,332.39 751.34,362.32 752.99,368.58 754.64,352.87 756.29,370.42 757.94,348.16 759.59,370.83 761.24,329.86 762.90,304.32 764.55,369.83 766.20,306.64 767.85,347.69 767.85,346.92 769.50,370.65 771.15,369.53 772.80,371.08 774.45,310.64 776.11,349.65 777.76,363.08 779.41,371.26 781.06,369.09 782.71,343.26 784.36,371.02 784.36,358.93 786.01,365.93 787.66,370.67 789.31,369.38 790.97,369.07 792.62,318.06 794.27,354.82 795.92,363.50 797.57,362.16 799.22,369.49 800.87,371.16 800.87,361.42 802.52,367.72 804.18,370.52 805.83,371.25 807.48,330.96 809.13,368.09 810.78,370.35 812.43,319.74 814.08,370.34 815.73,341.75 817.38,343.20 817.38,355.39 819.04,370.94 820.69,368.22 822.34,332.14 823.99,368.46 825.64,360.50 827.29,352.75 828.94,344.62 830.59,370.39 832.25,336.69 833.90,352.27 833.90,355.70 835.55,368.40 837.20,327.58 838.85,356.73 840.50,369.03 842.15,369.63 843.80,343.41 845.45,368.36 847.11,370.30 848.76,352.65 850.41,370.83 850.41,359.69 852.06,369.91 853.71,371.45 855.36,370.87 857.01,331.13 858.66,361.05 860.31,329.86 861.97,358.64 863.62,332.48 865.27,365.34 866.92,237.55 866.92,342.83 868.57,302.17 870.22,370.08 871.87,357.49 873.52,370.37 875.18,369.52 876.83,367.73 878.48,371.12 880.13,370.52 881.78,368.39 883.43,358.60 883.43,360.60 885.08,354.43 886.73,361.48 888.38,367.77 890.04,369.88 891.69,364.19 893.34,371.10 894.99,371.20 896.64,366.81 898.29,367.06 899.94,352.50 899.94,364.64 901.59,326.57 903.25,370.16 904.90,368.63 906.55,370.63 908.20,369.10 909.85,333.80 911.50,365.25 913.15,360.97 914.80,371.33 916.45,339.33 916.45,357.58" fill="none" stroke="#2563eb" stroke-width="2.5"/>
<circle cx="916.45" cy="357.58" r="3.5" fill="#2563eb"/>
<line x1="776" y1="26" x2="794" y2="26" stroke="#2563eb" stroke-width="3"/>
<text x="800" y="30" font-size="11" font-family="Arial, sans-serif" fill="#374151">trial-20260321-cleandata1</text>
</svg>