<svg xmlns="http://www.w3.org/2000/svg" width="980" height="460" viewBox="0 0 980 460">
<rect width="100%" height="100%" fill="#ffffff"/>
<text x="86" y="24" font-size="20" font-family="Arial, sans-serif" fill="#111827">Train Step Total Loss</text>
<text x="86" y="442" font-size="12" font-family="Arial, sans-serif" fill="#4b5563">step / epoch</text>
<text x="18" y="52" font-size="12" font-family="Arial, sans-serif" fill="#4b5563" transform="rotate(-90 18 52)">train_step/loss_total</text>
<line x1="86" y1="396.00" x2="956" y2="396.00" stroke="#e5e7eb" stroke-width="1"/>
<text x="76" y="400.00" font-size="11" text-anchor="end" font-family="Arial, sans-serif" fill="#6b7280">-0.385559</text>
<line x1="86" y1="307.00" x2="956" y2="307.00" stroke="#e5e7eb" stroke-width="1"/>
<text x="76" y="311.00" font-size="11" text-anchor="end" font-family="Arial, sans-serif" fill="#6b7280">4.0796</text>
<line x1="86" y1="218.00" x2="956" y2="218.00" stroke="#e5e7eb" stroke-width="1"/>
<text x="76" y="222.00" font-size="11" text-anchor="end" font-family="Arial, sans-serif" fill="#6b7280">8.5448</text>
<line x1="86" y1="129.00" x2="956" y2="129.00" stroke="#e5e7eb" stroke-width="1"/>
<text x="76" y="133.00" font-size="11" text-anchor="end" font-family="Arial, sans-serif" fill="#6b7280">13.0100</text>
<line x1="86" y1="40.00" x2="956" y2="40.00" stroke="#e5e7eb" stroke-width="1"/>
<text x="76" y="44.00" font-size="11" text-anchor="end" font-family="Arial, sans-serif" fill="#6b7280">17.4752</text>
<line x1="86.00" y1="40" x2="86.00" y2="396" stroke="#f3f4f6" stroke-width="1"/>
<text x="86.00" y="420" font-size="11" text-anchor="middle" font-family="Arial, sans-serif" fill="#6b7280">-22.9500</text>
<line x1="260.00" y1="40" x2="260.00" y2="396" stroke="#f3f4f6" stroke-width="1"/>
<text x="260.00" y="420" font-size="11" text-anchor="middle" font-family="Arial, sans-serif" fill="#6b7280">82.4300</text>
<line x1="434.00" y1="40" x2="434.00" y2="396" stroke="#f3f4f6" stroke-width="1"/>
<text x="434.00" y="420" font-size="11" text-anchor="middle" font-family="Arial, sans-serif" fill="#6b7280">187.81</text>
<line x1="608.00" y1="40" x2="608.00" y2="396" stroke="#f3f4f6" stroke-width="1"/>
<text x="608.00" y="420" font-size="11" text-anchor="middle" font-family="Arial, sans-serif" fill="#6b7280">293.19</text>
<line x1="782.00" y1="40" x2="782.00" y2="396" stroke="#f3f4f6" stroke-width="1"/>
<text x="782.00" y="420" font-size="11" text-anchor="middle" font-family="Arial, sans-serif" fill="#6b7280">398.57</text>
<line x1="956.00" y1="40" x2="956.00" y2="396" stroke="#f3f4f6" stroke-width="1"/>
<text x="956.00" y="420" font-size="11" text-anchor="middle" font-family="Arial, sans-serif" fill="#6b7280">503.95</text>
<rect x="86" y="40" width="870" height="356" fill="none" stroke="#d1d5db" stroke-width="1"/>
<polyline points="125.55,342.95 127.20,187.10 128.85,328.68 130.50,325.71 132.15,304.94 133.80,290.53 135.45,311.13 137.10,323.66 138.75,243.20 140.41,327.71 140.41,298.56 142.06,322.59 143.71,279.35 145.36,333.68 147.01,210.16 148.66,346.56 150.31,319.88 151.96,331.54 153.62,311.84 155.27,317.54 156.92,319.84 156.92,309.30 158.57,331.60 160.22,329.27 161.87,322.55 163.52,345.66 165.17,302.12 166.82,336.29 168.48,318.67 170.13,326.58 171.78,314.54 173.43,335.27 173.43,326.25 175.08,349.27 176.73,307.17 178.38,344.63 180.03,331.81 181.69,332.81 183.34,334.84 184.99,333.00 186.64,357.43 188.29,335.40 189.94,295.64 189.94,332.20 191.59,291.84 193.24,340.01 194.89,333.63 196.55,331.21 198.20,343.46 199.85,334.74 201.50,290.61 203.15,277.50 204.80,314.38 206.45,301.82 206.45,315.92 208.10,307.22 209.75,345.44 211.41,361.50 213.06,336.18 214.71,317.65 216.36,330.44 218.01,312.05 219.66,321.08 221.31,312.78 222.96,333.34 222.96,327.77 224.62,351.58 226.27,328.89 227.92,342.81 229.57,319.87 231.22,340.06 232.87,107.05 234.52,337.84 236.17,337.10 237.82,287.06 239.48,259.98 239.48,301.22 241.13,358.06 242.78,343.89 244.43,344.51 246.08,341.73 247.73,326.08 249.38,352.75 251.03,344.84 252.69,344.56 254.34,337.68 255.99,315.41 255.99,340.95 257.64,324.15 259.29,360.02 260.94,270.68 262.59,365.65 264.24,353.95 265.89,340.15 267.55,304.56 269.20,356.66 270.85,335.13 272.50,331.81 272.50,334.28 274.15,306.54 275.80,216.50 277.45,326.66 279.10,341.47 280.76,331.82 282.41,329.34 284.06,360.66 285.71,342.74 287.36,338.57 289.01,361.92 289.01,325.62 290.66,343.08 292.31,361.09 293.96,345.17 295.62,333.94 297.27,326.87 298.92,312.76 300.57,341.74 302.22,319.14 303.87,337.29 305.52,307.94 305.52,332.90 307.17,314.10 308.83,361.14 310.48,311.02 312.13,359.58 313.78,356.86 315.43,352.97 317.08,253.79 318.73,337.58 320.38,359.26 322.03,316.81 322.03,332.31 323.69,354.72 325.34,334.56 326.99,322.42 328.64,359.77 330.29,343.39 331.94,302.24 333.59,347.82 335.24,335.95 336.89,323.13 338.55,337.43 338.55,336.14 340.20,353.40 341.85,363.24 343.50,249.87 345.15,328.23 346.80,361.26 348.45,331.34 350.10,336.48 351.76,339.63 353.41,362.90 355.06,340.17 355.06,336.65 356.71,312.38 358.36,338.93 360.01,332.42 361.66,343.60 363.31,343.84 364.96,357.59 366.62,360.48 368.27,335.66 369.92,318.64 371.57,312.21 371.57,335.57 373.22,346.16 374.87,349.36 376.52,342.31 378.17,316.83 379.83,322.08 381.48,339.39 383.13,332.07 384.78,353.67 386.43,337.24 388.08,350.74 388.08,338.99 389.73,347.09 391.38,335.33 393.03,332.16 394.69,355.43 396.34,305.99 397.99,339.62 399.64,334.45 401.29,338.07 402.94,360.36 404.59,339.04 404.59,338.75 406.24,345.68 407.90,319.73 409.55,343.56 411.20,347.09 412.85,312.02 414.50,331.52 416.15,344.91 417.80,305.66 419.45,357.49 421.10,350.97 421.10,335.86 422.76,351.18 424.41,319.03 426.06,323.22 427.71,292.54 429.36,347.83 431.01,368.77 432.66,344.92 434.31,64.55 435.96,351.31 437.62,360.16 437.62,312.35 439.27,333.39 440.92,336.67 442.57,260.05 444.22,359.51 445.87,317.43 447.52,337.99 449.17,336.49 450.83,362.48 452.48,337.70 454.13,309.30 454.13,329.10 455.78,341.30 457.43,333.00 459.08,330.54 460.73,360.75 462.38,344.36 464.03,280.92 465.69,363.82 467.34,330.28 468.99,346.52 470.64,351.35 470.64,338.28 472.29,360.53 473.94,345.00 475.59,332.86 477.24,340.70 478.90,336.03 480.55,341.74 482.20,345.78 483.85,347.26 485.50,356.47 487.15,294.03 487.15,340.04 488.80,369.48 490.45,358.93 492.10,333.30 493.76,345.55 495.41,362.28 497.06,320.61 498.71,345.91 500.36,355.86 502.01,361.07 503.66,287.22 503.66,344.02 505.31,345.09 506.97,343.33 508.62,304.77 510.27,369.68 511.92,348.24 513.57,342.70 515.22,347.49 516.87,355.95 518.52,342.16 520.17,344.01 520.17,344.34 521.83,354.06 523.48,334.02 525.13,347.47 526.78,296.02 528.43,355.53 530.08,320.25 531.73,351.41 533.38,357.59 535.03,312.10 536.69,340.74 536.69,336.92 538.34,337.65 539.99,345.60 541.64,361.91 543.29,339.49 544.94,347.01 546.59,340.86 548.24,361.99 549.90,313.28 551.55,320.76 553.20,351.53 553.20,342.01 554.85,348.35 556.50,335.90 558.15,351.40 559.80,364.12 561.45,328.86 563.10,344.84 564.76,350.56 566.41,337.10 568.06,353.97 569.71,344.25 569.71,345.93 571.36,336.04 573.01,369.02 574.66,339.80 576.31,362.91 577.97,344.27 579.62,362.72 581.27,311.69 582.92,339.89 584.57,324.33 586.22,367.97 586.22,345.86 587.87,350.30 589.52,324.68 591.17,342.36 592.83,360.66 594.48,351.99 596.13,348.34 597.78,309.70 599.43,350.96 601.08,352.89 602.73,336.88 602.73,342.88 604.38,360.12 606.04,351.95 607.69,351.57 609.34,350.72 610.99,349.02 612.64,344.46 614.29,343.73 615.94,352.75 617.59,314.65 619.24,340.75 619.24,345.97 620.90,328.84 622.55,350.96 624.20,342.72 625.85,350.06 627.50,368.13 629.15,328.32 630.80,343.69 632.45,335.17 634.10,315.41 635.76,358.19 635.76,342.15 637.41,296.70 639.06,307.11 640.71,344.20 642.36,306.58 644.01,340.95 645.66,335.69 647.31,361.28 648.97,342.64 650.62,346.25 652.27,313.83 652.27,329.52 653.92,356.94 655.57,347.96 657.22,333.15 658.87,326.48 660.52,338.87 662.17,357.91 663.83,346.26 665.48,366.53 667.13,311.75 668.78,350.59 668.78,343.64 670.43,318.77 672.08,344.81 673.73,342.74 675.38,262.30 677.04,304.25 678.69,359.53 680.34,347.87 681.99,343.71 683.64,340.27 685.29,340.11 685.29,330.43 686.94,345.29 688.59,361.28 690.24,349.63 691.90,344.29 693.55,350.40 695.20,345.79 696.85,344.83 698.50,364.69 700.15,343.71 701.80,354.62 701.80,350.45 703.45,292.30 705.11,302.41 706.76,331.74 708.41,359.35 710.06,362.14 711.71,347.96 713.36,337.09 715.01,353.29 716.66,345.04 718.31,311.84 718.31,334.32 719.97,357.54 721.62,308.66 723.27,349.54 724.92,358.65 726.57,364.55 728.22,368.37 729.87,351.57 731.52,338.26 733.17,345.95 734.83,364.50 734.83,350.76 736.48,345.89 738.13,369.24 739.78,364.38 741.43,337.32 743.08,370.63 744.73,363.52 746.38,346.65 748.04,348.98 749.69,367.26 751.34,329.73 751.34,354.36 752.99,362.57 754.64,323.13 756.29,347.37 757.94,344.80 759.59,351.97 761.24,308.98 762.90,295.00 764.55,362.61 766.20,283.34 767.85,323.46 767.85,330.32 769.50,364.90 771.15,364.95 772.80,370.95 774.45,290.30 776.11,327.17 777.76,357.62 779.41,361.51 781.06,364.11 782.71,333.72 784.36,371.45 784.36,350.67 786.01,341.82 787.66,345.94 789.31,351.15 790.97,340.92 792.62,293.65 794.27,335.78 795.92,335.02 797.57,357.67 799.22,344.39 800.87,351.30 800.87,339.76 802.52,346.57 804.18,362.89 805.83,370.72 807.48,305.50 809.13,345.83 810.78,346.35 812.43,298.44 814.08,351.73 815.73,324.30 817.38,323.20 817.38,337.55 819.04,365.02 820.69,363.32 822.34,309.69 823.99,340.66 825.64,363.26 827.29,330.05 828.94,344.56 830.59,368.27 832.25,313.42 833.90,348.64 833.90,344.69 835.55,340.40 837.20,316.34 838.85,347.69 840.50,363.16 842.15,341.21 843.80,319.81 845.45,363.95 847.11,357.59 848.76,340.13 850.41,347.09 850.41,343.74 852.06,345.90 853.71,361.63 855.36,367.64 857.01,305.89 858.66,337.82 860.31,328.98 861.97,354.54 863.62,329.31 865.27,344.01 866.92,242.34 866.92,331.81 868.57,300.21 870.22,345.65 871.87,338.85 873.52,351.83 875.18,360.22 876.83,344.75 878.48,361.36 880.13,363.15 881.78,344.26 883.43,337.37 883.43,344.77 885.08,350.33 886.73,337.84 888.38,349.41 890.04,351.48 891.69,351.89 893.34,367.32 894.99,368.75 896.64,360.37 898.29,360.79 899.94,339.81 899.94,353.80 901.59,323.12 903.25,362.79 904.90,340.60 906.55,347.54 908.20,343.13 909.85,331.32 911.50,360.31 913.15,334.54 914.80,361.67 916.45,313.28 916.45,341.83" fill="none" stroke="#2563eb" stroke-width="2.5"/>
<circle cx="916.45" cy="341.83" r="3.5" fill="#2563eb"/>
<line x1="776" y1="26" x2="794" y2="26" stroke="#2563eb" stroke-width="3"/>
<text x="800" y="30" font-size="11" font-family="Arial, sans-serif" fill="#374151">trial-20260321-cleandata1</text>
</svg>