<svg xmlns="http://www.w3.org/2000/svg" width="980" height="460" viewBox="0 0 980 460">
<rect width="100%" height="100%" fill="#ffffff"/>
<text x="86" y="24" font-size="20" font-family="Arial, sans-serif" fill="#111827">Train Step Stage 1 Loss</text>
<text x="86" y="442" font-size="12" font-family="Arial, sans-serif" fill="#4b5563">step / epoch</text>
<text x="18" y="52" font-size="12" font-family="Arial, sans-serif" fill="#4b5563" transform="rotate(-90 18 52)">train_step/loss_stage1</text>
<line x1="86" y1="396.00" x2="956" y2="396.00" stroke="#e5e7eb" stroke-width="1"/>
<text x="76" y="400.00" font-size="11" text-anchor="end" font-family="Arial, sans-serif" fill="#6b7280">0.133769</text>
<line x1="86" y1="307.00" x2="956" y2="307.00" stroke="#e5e7eb" stroke-width="1"/>
<text x="76" y="311.00" font-size="11" text-anchor="end" font-family="Arial, sans-serif" fill="#6b7280">0.798977</text>
<line x1="86" y1="218.00" x2="956" y2="218.00" stroke="#e5e7eb" stroke-width="1"/>
<text x="76" y="222.00" font-size="11" text-anchor="end" font-family="Arial, sans-serif" fill="#6b7280">1.4642</text>
<line x1="86" y1="129.00" x2="956" y2="129.00" stroke="#e5e7eb" stroke-width="1"/>
<text x="76" y="133.00" font-size="11" text-anchor="end" font-family="Arial, sans-serif" fill="#6b7280">2.1294</text>
<line x1="86" y1="40.00" x2="956" y2="40.00" stroke="#e5e7eb" stroke-width="1"/>
<text x="76" y="44.00" font-size="11" text-anchor="end" font-family="Arial, sans-serif" fill="#6b7280">2.7946</text>
<line x1="86.00" y1="40" x2="86.00" y2="396" stroke="#f3f4f6" stroke-width="1"/>
<text x="86.00" y="420" font-size="11" text-anchor="middle" font-family="Arial, sans-serif" fill="#6b7280">-22.9500</text>
<line x1="260.00" y1="40" x2="260.00" y2="396" stroke="#f3f4f6" stroke-width="1"/>
<text x="260.00" y="420" font-size="11" text-anchor="middle" font-family="Arial, sans-serif" fill="#6b7280">82.4300</text>
<line x1="434.00" y1="40" x2="434.00" y2="396" stroke="#f3f4f6" stroke-width="1"/>
<text x="434.00" y="420" font-size="11" text-anchor="middle" font-family="Arial, sans-serif" fill="#6b7280">187.81</text>
<line x1="608.00" y1="40" x2="608.00" y2="396" stroke="#f3f4f6" stroke-width="1"/>
<text x="608.00" y="420" font-size="11" text-anchor="middle" font-family="Arial, sans-serif" fill="#6b7280">293.19</text>
<line x1="782.00" y1="40" x2="782.00" y2="396" stroke="#f3f4f6" stroke-width="1"/>
<text x="782.00" y="420" font-size="11" text-anchor="middle" font-family="Arial, sans-serif" fill="#6b7280">398.57</text>
<line x1="956.00" y1="40" x2="956.00" y2="396" stroke="#f3f4f6" stroke-width="1"/>
<text x="956.00" y="420" font-size="11" text-anchor="middle" font-family="Arial, sans-serif" fill="#6b7280">503.95</text>
<rect x="86" y="40" width="870" height="356" fill="none" stroke="#d1d5db" stroke-width="1"/>
<polyline points="125.55,174.16 127.20,64.55 128.85,124.75 130.50,150.24 132.15,121.82 133.80,254.22 135.45,149.12 137.10,120.10 138.75,117.59 140.41,143.88 140.41,142.04 142.06,69.60 143.71,143.23 145.36,130.27 147.01,108.87 148.66,185.67 150.31,151.43 151.96,133.46 153.62,274.89 155.27,272.82 156.92,152.91 156.92,162.32 158.57,204.13 160.22,122.54 161.87,202.36 163.52,196.78 165.17,243.15 166.82,186.37 168.48,153.61 170.13,156.64 171.78,170.01 173.43,170.03 173.43,180.56 175.08,263.85 176.73,105.46 178.38,247.67 180.03,237.73 181.69,153.86 183.34,260.15 184.99,215.46 186.64,291.39 188.29,143.36 189.94,176.38 189.94,209.53 191.59,197.23 193.24,194.16 194.89,298.93 196.55,164.63 198.20,287.61 199.85,242.40 201.50,202.38 203.15,172.32 204.80,186.23 206.45,165.98 206.45,211.19 208.10,201.38 209.75,245.93 211.41,317.23 213.06,174.07 214.71,206.89 216.36,248.19 218.01,286.76 219.66,191.87 221.31,189.76 222.96,247.47 222.96,230.96 224.62,278.00 226.27,161.04 227.92,344.60 229.57,296.20 231.22,192.61 232.87,137.41 234.52,186.90 236.17,173.01 237.82,188.86 239.48,169.89 239.48,212.85 241.13,318.70 242.78,200.25 244.43,285.19 246.08,254.49 247.73,304.84 249.38,294.56 251.03,321.66 252.69,310.07 254.34,188.17 255.99,176.00 255.99,265.39 257.64,320.61 259.29,306.24 260.94,172.94 262.59,341.95 264.24,295.83 265.89,178.26 267.55,135.71 269.20,250.43 270.85,177.53 272.50,270.45 272.50,244.99 274.15,211.82 275.80,163.68 277.45,193.37 279.10,183.20 280.76,159.21 282.41,249.21 284.06,309.68 285.71,202.32 287.36,192.73 289.01,323.28 289.01,218.85 290.66,310.88 292.31,300.34 293.96,202.90 295.62,179.29 297.27,179.70 298.92,160.83 300.57,168.18 302.22,228.23 303.87,199.29 305.52,279.39 305.52,220.90 307.17,170.43 308.83,316.28 310.48,182.62 312.13,311.76 313.78,260.03 315.43,269.65 317.08,182.64 318.73,186.36 320.38,318.63 322.03,183.37 322.03,238.18 323.69,320.11 325.34,163.95 326.99,326.92 328.64,315.48 330.29,199.59 331.94,333.07 333.59,219.49 335.24,332.54 336.89,175.22 338.55,247.04 338.55,263.34 340.20,272.68 341.85,349.68 343.50,188.80 345.15,149.62 346.80,326.15 348.45,204.06 350.10,178.20 351.76,191.40 353.41,316.17 355.06,192.78 355.06,236.95 356.71,273.83 358.36,340.13 360.01,334.63 361.66,207.54 363.31,224.18 364.96,324.50 366.62,308.83 368.27,315.93 369.92,270.87 371.57,190.33 371.57,279.08 373.22,250.31 374.87,238.24 376.52,197.43 378.17,178.20 379.83,202.94 381.48,315.79 383.13,316.22 384.78,322.84 386.43,193.27 388.08,240.17 388.08,245.54 389.73,206.30 391.38,186.66 393.03,193.24 394.69,323.47 396.34,157.32 397.99,209.32 399.64,200.02 401.29,196.80 402.94,320.91 404.59,206.22 404.59,220.03 406.24,227.06 407.90,219.19 409.55,245.88 411.20,203.79 412.85,186.20 414.50,225.79 416.15,196.94 417.80,194.12 419.45,325.13 421.10,241.94 421.10,226.60 422.76,254.56 424.41,189.25 426.06,182.07 427.71,182.85 429.36,224.69 431.01,358.68 432.66,204.67 434.31,188.98 435.96,241.82 437.62,275.99 437.62,230.36 439.27,209.60 440.92,190.36 442.57,183.45 444.22,334.69 445.87,195.88 447.52,208.66 449.17,351.76 450.83,285.00 452.48,189.29 454.13,180.34 454.13,232.90 455.78,264.42 457.43,287.75 459.08,183.17 460.73,314.56 462.38,218.43 464.03,170.74 465.69,324.26 467.34,207.17 468.99,217.95 470.64,256.86 470.64,244.53 472.29,277.77 473.94,199.53 475.59,241.72 477.24,321.28 478.90,173.54 480.55,205.23 482.20,204.64 483.85,218.49 485.50,321.02 487.15,162.89 487.15,232.61 488.80,367.69 490.45,328.81 492.10,264.53 493.76,209.94 495.41,340.58 497.06,183.58 498.71,228.05 500.36,329.32 502.01,302.28 503.66,189.40 503.66,274.42 505.31,227.81 506.97,197.40 508.62,328.60 510.27,363.25 511.92,354.03 513.57,197.93 515.22,220.21 516.87,329.27 518.52,322.08 520.17,342.30 520.17,288.29 521.83,245.96 523.48,222.78 525.13,219.17 526.78,164.60 528.43,297.89 530.08,200.57 531.73,215.82 533.38,303.68 535.03,223.78 536.69,184.88 536.69,227.91 538.34,342.27 539.99,319.95 541.64,364.38 543.29,266.07 544.94,206.20 546.59,190.33 548.24,325.57 549.90,313.62 551.55,291.50 553.20,330.26 553.20,295.01 554.85,228.87 556.50,347.60 558.15,332.76 559.80,369.17 561.45,247.96 563.10,201.40 564.76,355.02 566.41,174.01 568.06,301.15 569.71,235.26 569.71,279.32 571.36,191.87 573.01,369.25 574.66,209.11 576.31,324.93 577.97,203.26 579.62,343.19 581.27,249.36 582.92,211.22 584.57,186.08 586.22,340.48 586.22,262.88 587.87,235.35 589.52,183.14 591.17,198.12 592.83,342.44 594.48,218.25 596.13,221.70 597.78,314.93 599.43,229.32 601.08,356.37 602.73,246.93 602.73,254.65 604.38,360.91 606.04,321.81 607.69,217.82 609.34,229.97 610.99,229.87 612.64,200.25 614.29,211.72 615.94,245.07 617.59,190.11 619.24,192.02 619.24,239.95 620.90,230.54 622.55,235.48 624.20,194.18 625.85,240.11 627.50,349.51 629.15,330.80 630.80,230.68 632.45,316.25 634.10,299.41 635.76,332.02 635.76,275.90 637.41,166.54 639.06,178.33 640.71,198.77 642.36,191.52 644.01,193.40 645.66,193.29 647.31,281.59 648.97,193.66 650.62,222.85 652.27,240.65 652.27,206.06 653.92,299.83 655.57,230.18 657.22,331.82 658.87,192.38 660.52,245.86 662.17,299.36 663.83,211.90 665.48,341.05 667.13,316.41 668.78,289.86 668.78,275.86 670.43,200.36 672.08,202.78 673.73,204.48 675.38,192.99 677.04,178.21 678.69,331.86 680.34,232.12 681.99,293.49 683.64,204.79 685.29,199.14 685.29,224.02 686.94,212.17 688.59,282.39 690.24,290.00 691.90,222.27 693.55,218.37 695.20,199.06 696.85,201.16 698.50,297.53 700.15,201.50 701.80,248.22 701.80,237.27 703.45,166.77 705.11,168.08 706.76,190.79 708.41,300.99 710.06,344.05 711.71,231.84 713.36,193.59 715.01,299.68 716.66,329.84 718.31,226.06 718.31,245.17 719.97,332.62 721.62,167.12 723.27,237.50 724.92,331.44 726.57,329.22 728.22,351.93 729.87,291.43 731.52,344.10 733.17,253.32 734.83,297.94 734.83,293.66 736.48,199.21 738.13,362.72 739.78,297.68 741.43,252.59 743.08,367.76 744.73,302.86 746.38,344.34 748.04,232.24 749.69,335.93 751.34,355.19 751.34,305.05 752.99,336.93 754.64,186.42 756.29,198.68 757.94,326.58 759.59,219.56 761.24,192.81 762.90,254.41 764.55,323.97 766.20,184.20 767.85,192.18 767.85,241.57 769.50,347.75 771.15,332.47 772.80,368.49 774.45,179.79 776.11,201.29 777.76,332.97 779.41,282.94 781.06,327.70 782.71,268.99 784.36,363.01 784.36,300.54 786.01,199.97 787.66,203.70 789.31,241.46 790.97,199.49 792.62,183.97 794.27,231.90 795.92,167.06 797.57,324.51 799.22,195.62 800.87,236.89 800.87,218.46 802.52,212.07 804.18,303.33 805.83,368.43 807.48,184.10 809.13,223.55 810.78,204.69 812.43,178.22 814.08,219.63 815.73,238.27 817.38,205.74 817.38,233.80 819.04,329.21 820.69,327.86 822.34,178.28 823.99,194.29 825.64,371.45 827.29,193.46 828.94,341.76 830.59,352.59 832.25,192.07 833.90,350.62 833.90,283.16 835.55,199.86 837.20,255.93 838.85,293.57 840.50,337.82 842.15,194.55 843.80,188.35 845.45,332.35 847.11,299.32 848.76,261.77 850.41,221.18 850.41,258.47 852.06,203.86 853.71,282.76 855.36,337.69 857.01,184.03 858.66,201.61 860.31,340.38 861.97,325.00 863.62,333.48 865.27,211.96 866.92,355.62 866.92,277.64 868.57,323.50 870.22,204.04 871.87,237.91 873.52,220.18 875.18,330.42 876.83,210.76 878.48,283.40 880.13,304.12 881.78,204.70 883.43,205.45 883.43,252.45 885.08,326.84 886.73,201.55 888.38,220.29 890.04,241.55 891.69,299.34 893.34,337.26 894.99,352.79 896.64,337.26 898.29,337.50 899.94,256.38 899.94,291.08 901.59,318.85 903.25,344.82 904.90,199.03 906.55,220.19 908.20,194.11 909.85,350.93 911.50,331.88 913.15,168.73 914.80,283.20 916.45,184.37 916.45,259.61" fill="none" stroke="#2563eb" stroke-width="2.5"/>
<circle cx="916.45" cy="259.61" r="3.5" fill="#2563eb"/>
<line x1="776" y1="26" x2="794" y2="26" stroke="#2563eb" stroke-width="3"/>
<text x="800" y="30" font-size="11" font-family="Arial, sans-serif" fill="#374151">trial-20260321-cleandata1</text>
</svg>