<svg xmlns="http://www.w3.org/2000/svg" width="980" height="460" viewBox="0 0 980 460">
<rect width="100%" height="100%" fill="#ffffff"/>
<text x="86" y="24" font-size="20" font-family="Arial, sans-serif" fill="#111827">Joint Combined Delta vs trial-20260321-full3</text>
<line x1="86" y1="368.00" x2="956" y2="368.00" stroke="#e5e7eb" stroke-width="1"/>
<text x="76" y="372.00" font-size="11" text-anchor="end" font-family="Arial, sans-serif" fill="#6b7280">-1.2736</text>
<line x1="86" y1="286.00" x2="956" y2="286.00" stroke="#e5e7eb" stroke-width="1"/>
<text x="76" y="290.00" font-size="11" text-anchor="end" font-family="Arial, sans-serif" fill="#6b7280">-0.912446</text>
<line x1="86" y1="204.00" x2="956" y2="204.00" stroke="#e5e7eb" stroke-width="1"/>
<text x="76" y="208.00" font-size="11" text-anchor="end" font-family="Arial, sans-serif" fill="#6b7280">-0.551337</text>
<line x1="86" y1="122.00" x2="956" y2="122.00" stroke="#e5e7eb" stroke-width="1"/>
<text x="76" y="126.00" font-size="11" text-anchor="end" font-family="Arial, sans-serif" fill="#6b7280">-0.190227</text>
<line x1="86" y1="40.00" x2="956" y2="40.00" stroke="#e5e7eb" stroke-width="1"/>
<text x="76" y="44.00" font-size="11" text-anchor="end" font-family="Arial, sans-serif" fill="#6b7280">0.170882</text>
<line x1="86" y1="78.80" x2="956" y2="78.80" stroke="#9ca3af" stroke-width="1.5"/>
<rect x="86" y="40" width="870" height="328" fill="none" stroke="#d1d5db" stroke-width="1"/>
<rect x="103.40" y="71.74" width="52.20" height="7.06" fill="#059669" rx="4"/>
<text x="129.50" y="63.74" font-size="11" text-anchor="middle" font-family="Arial, sans-serif" fill="#374151">+0.031098</text>
<text x="129.50" y="412" font-size="11" text-anchor="middle" font-family="Arial, sans-serif" fill="#4b5563">trial-20260321-cleandata1</text>
<rect x="190.40" y="78.80" width="52.20" height="247.13" fill="#dc2626" rx="4"/>
<text x="216.50" y="339.94" font-size="11" text-anchor="middle" font-family="Arial, sans-serif" fill="#374151">-1.0883</text>
<text x="216.50" y="412" font-size="11" text-anchor="middle" font-family="Arial, sans-serif" fill="#4b5563">trial-20260321-converge7</text>
<rect x="277.40" y="78.80" width="52.20" height="1.00" fill="#059669" rx="4"/>
<text x="303.50" y="70.80" font-size="11" text-anchor="middle" font-family="Arial, sans-serif" fill="#374151">0.000000</text>
<text x="303.50" y="412" font-size="11" text-anchor="middle" font-family="Arial, sans-serif" fill="#4b5563">trial-20260321-full3</text>
<rect x="364.40" y="78.80" width="52.20" height="125.89" fill="#dc2626" rx="4"/>
<text x="390.50" y="218.69" font-size="11" text-anchor="middle" font-family="Arial, sans-serif" fill="#374151">-0.554397</text>
<text x="390.50" y="412" font-size="11" text-anchor="middle" font-family="Arial, sans-serif" fill="#4b5563">trial-20260321-full40-crossent1</text>
<rect x="451.40" y="78.80" width="52.20" height="135.41" fill="#dc2626" rx="4"/>
<text x="477.50" y="228.22" font-size="11" text-anchor="middle" font-family="Arial, sans-serif" fill="#374151">-0.596329</text>
<text x="477.50" y="412" font-size="11" text-anchor="middle" font-family="Arial, sans-serif" fill="#4b5563">trial-20260321-full40-puretf1</text>
<rect x="538.40" y="78.80" width="52.20" height="115.68" fill="#dc2626" rx="4"/>
<text x="564.50" y="208.49" font-size="11" text-anchor="middle" font-family="Arial, sans-serif" fill="#374151">-0.509439</text>
<text x="564.50" y="412" font-size="11" text-anchor="middle" font-family="Arial, sans-serif" fill="#4b5563">trial-20260321-full40-tf08-1</text>
<rect x="625.40" y="78.80" width="52.20" height="257.45" fill="#dc2626" rx="4"/>
<text x="651.50" y="350.26" font-size="11" text-anchor="middle" font-family="Arial, sans-serif" fill="#374151">-1.1338</text>
<text x="651.50" y="412" font-size="11" text-anchor="middle" font-family="Arial, sans-serif" fill="#4b5563">trial-20260321-stability2</text>
<rect x="712.40" y="78.80" width="52.20" height="247.13" fill="#dc2626" rx="4"/>
<text x="738.50" y="339.94" font-size="11" text-anchor="middle" font-family="Arial, sans-serif" fill="#374151">-1.0883</text>
<text x="738.50" y="412" font-size="11" text-anchor="middle" font-family="Arial, sans-serif" fill="#4b5563">trial-20260321-stability3</text>
<rect x="799.40" y="78.80" width="52.20" height="104.96" fill="#dc2626" rx="4"/>
<text x="825.50" y="197.76" font-size="11" text-anchor="middle" font-family="Arial, sans-serif" fill="#374151">-0.462226</text>
<text x="825.50" y="412" font-size="11" text-anchor="middle" font-family="Arial, sans-serif" fill="#4b5563">trial-20260321-stability4</text>
<rect x="886.40" y="78.80" width="52.20" height="104.80" fill="#dc2626" rx="4"/>
<text x="912.50" y="197.60" font-size="11" text-anchor="middle" font-family="Arial, sans-serif" fill="#374151">-0.461498</text>
<text x="912.50" y="412" font-size="11" text-anchor="middle" font-family="Arial, sans-serif" fill="#4b5563">trial-20260321-stability5</text>
</svg>