<svg xmlns="http://www.w3.org/2000/svg" width="980" height="460" viewBox="0 0 980 460">
<rect width="100%" height="100%" fill="#ffffff"/>
<text x="86" y="24" font-size="20" font-family="Arial, sans-serif" fill="#111827">Dev Stage 2 mIoU</text>
<text x="86" y="442" font-size="12" font-family="Arial, sans-serif" fill="#4b5563">step / epoch</text>
<text x="18" y="52" font-size="12" font-family="Arial, sans-serif" fill="#4b5563" transform="rotate(-90 18 52)">dev/stage2_mIoU</text>
<line x1="86" y1="396.00" x2="956" y2="396.00" stroke="#e5e7eb" stroke-width="1"/>
<text x="76" y="400.00" font-size="11" text-anchor="end" font-family="Arial, sans-serif" fill="#6b7280">-0.047065</text>
<line x1="86" y1="307.00" x2="956" y2="307.00" stroke="#e5e7eb" stroke-width="1"/>
<text x="76" y="311.00" font-size="11" text-anchor="end" font-family="Arial, sans-serif" fill="#6b7280">0.123546</text>
<line x1="86" y1="218.00" x2="956" y2="218.00" stroke="#e5e7eb" stroke-width="1"/>
<text x="76" y="222.00" font-size="11" text-anchor="end" font-family="Arial, sans-serif" fill="#6b7280">0.294156</text>
<line x1="86" y1="129.00" x2="956" y2="129.00" stroke="#e5e7eb" stroke-width="1"/>
<text x="76" y="133.00" font-size="11" text-anchor="end" font-family="Arial, sans-serif" fill="#6b7280">0.464767</text>
<line x1="86" y1="40.00" x2="956" y2="40.00" stroke="#e5e7eb" stroke-width="1"/>
<text x="76" y="44.00" font-size="11" text-anchor="end" font-family="Arial, sans-serif" fill="#6b7280">0.635377</text>
<line x1="86.00" y1="40" x2="86.00" y2="396" stroke="#f3f4f6" stroke-width="1"/>
<text x="86.00" y="420" font-size="11" text-anchor="middle" font-family="Arial, sans-serif" fill="#6b7280">-11.4000</text>
<line x1="260.00" y1="40" x2="260.00" y2="396" stroke="#f3f4f6" stroke-width="1"/>
<text x="260.00" y="420" font-size="11" text-anchor="middle" font-family="Arial, sans-serif" fill="#6b7280">91.5600</text>
<line x1="434.00" y1="40" x2="434.00" y2="396" stroke="#f3f4f6" stroke-width="1"/>
<text x="434.00" y="420" font-size="11" text-anchor="middle" font-family="Arial, sans-serif" fill="#6b7280">194.52</text>
<line x1="608.00" y1="40" x2="608.00" y2="396" stroke="#f3f4f6" stroke-width="1"/>
<text x="608.00" y="420" font-size="11" text-anchor="middle" font-family="Arial, sans-serif" fill="#6b7280">297.48</text>
<line x1="782.00" y1="40" x2="782.00" y2="396" stroke="#f3f4f6" stroke-width="1"/>
<text x="782.00" y="420" font-size="11" text-anchor="middle" font-family="Arial, sans-serif" fill="#6b7280">400.44</text>
<line x1="956.00" y1="40" x2="956.00" y2="396" stroke="#f3f4f6" stroke-width="1"/>
<text x="956.00" y="420" font-size="11" text-anchor="middle" font-family="Arial, sans-serif" fill="#6b7280">503.40</text>
<rect x="86" y="40" width="870" height="356" fill="none" stroke="#d1d5db" stroke-width="1"/>
<polyline points="125.55,89.43 145.83,78.98 166.10,86.98 186.38,64.55 206.66,100.32 226.94,101.69 247.22,101.43 267.50,101.24 287.78,100.62 308.06,100.51 328.34,101.25 348.62,101.15 368.90,115.59 389.18,111.63 409.46,129.54 429.74,122.27 450.02,123.40 470.30,123.26 490.58,103.32 510.86,106.11 531.14,106.01 551.42,106.02 571.70,106.11 591.98,107.37 612.26,107.36 632.54,105.14 652.82,93.23 673.10,105.59 693.38,92.59 713.66,72.43 733.94,72.43 754.22,72.39 774.50,72.43 794.78,72.36 815.06,72.41 835.34,72.41 855.62,72.41 875.90,72.04 896.17,72.40 916.45,72.33" fill="none" stroke="#2563eb" stroke-width="2.5"/>
<circle cx="916.45" cy="72.33" r="3.5" fill="#2563eb"/>
<line x1="776" y1="26" x2="794" y2="26" stroke="#2563eb" stroke-width="3"/>
<text x="800" y="30" font-size="11" font-family="Arial, sans-serif" fill="#374151">trial-20260321-cleandata1</text>
<polyline points="125.55,371.45 145.83,371.45 166.10,371.45" fill="none" stroke="#dc2626" stroke-width="2.5"/>
<circle cx="166.10" cy="371.45" r="3.5" fill="#dc2626"/>
<line x1="776" y1="44" x2="794" y2="44" stroke="#dc2626" stroke-width="3"/>
<text x="800" y="48" font-size="11" font-family="Arial, sans-serif" fill="#374151">trial-20260321-converge7</text>
<polyline points="264.12,74.28" fill="none" stroke="#059669" stroke-width="2.5"/>
<circle cx="264.12" cy="74.28" r="3.5" fill="#059669"/>
<line x1="776" y1="62" x2="794" y2="62" stroke="#059669" stroke-width="3"/>
<text x="800" y="66" font-size="11" font-family="Arial, sans-serif" fill="#374151">trial-20260321-full3</text>
<polyline points="125.55,116.64 145.83,116.37 166.10,118.17" fill="none" stroke="#ea580c" stroke-width="2.5"/>
<circle cx="166.10" cy="118.17" r="3.5" fill="#ea580c"/>
<line x1="776" y1="80" x2="794" y2="80" stroke="#ea580c" stroke-width="3"/>
<text x="800" y="84" font-size="11" font-family="Arial, sans-serif" fill="#374151">trial-20260321-full40-crossent1</text>
<polyline points="125.55,116.65 145.83,116.18 166.10,114.80 186.38,150.38 206.66,213.78 226.94,179.86 247.22,181.39" fill="none" stroke="#7c3aed" stroke-width="2.5"/>
<circle cx="247.22" cy="181.39" r="3.5" fill="#7c3aed"/>
<line x1="776" y1="98" x2="794" y2="98" stroke="#7c3aed" stroke-width="3"/>
<text x="800" y="102" font-size="11" font-family="Arial, sans-serif" fill="#374151">trial-20260321-full40-puretf1</text>
<polyline points="125.55,116.90" fill="none" stroke="#0f766e" stroke-width="2.5"/>
<circle cx="125.55" cy="116.90" r="3.5" fill="#0f766e"/>
<line x1="776" y1="116" x2="794" y2="116" stroke="#0f766e" stroke-width="3"/>
<text x="800" y="120" font-size="11" font-family="Arial, sans-serif" fill="#374151">trial-20260321-full40-tf08-1</text>
<polyline points="125.55,371.45 145.83,371.45 166.10,371.45" fill="none" stroke="#c2410c" stroke-width="2.5"/>
<circle cx="166.10" cy="371.45" r="3.5" fill="#c2410c"/>
<line x1="776" y1="134" x2="794" y2="134" stroke="#c2410c" stroke-width="3"/>
<text x="800" y="138" font-size="11" font-family="Arial, sans-serif" fill="#374151">trial-20260321-stability2</text>
<polyline points="125.55,371.45 145.83,371.45 166.10,371.45" fill="none" stroke="#4f46e5" stroke-width="2.5"/>
<circle cx="166.10" cy="371.45" r="3.5" fill="#4f46e5"/>
<line x1="776" y1="152" x2="794" y2="152" stroke="#4f46e5" stroke-width="3"/>
<text x="800" y="156" font-size="11" font-family="Arial, sans-serif" fill="#374151">trial-20260321-stability3</text>
<polyline points="125.55,115.98 145.83,115.39 166.10,115.48" fill="none" stroke="#2563eb" stroke-width="2.5"/>
<circle cx="166.10" cy="115.48" r="3.5" fill="#2563eb"/>
<line x1="776" y1="170" x2="794" y2="170" stroke="#2563eb" stroke-width="3"/>
<text x="800" y="174" font-size="11" font-family="Arial, sans-serif" fill="#374151">trial-20260321-stability4</text>
<polyline points="125.55,115.91 145.83,115.28 166.10,115.60" fill="none" stroke="#dc2626" stroke-width="2.5"/>
<circle cx="166.10" cy="115.60" r="3.5" fill="#dc2626"/>
<line x1="776" y1="188" x2="794" y2="188" stroke="#dc2626" stroke-width="3"/>
<text x="800" y="192" font-size="11" font-family="Arial, sans-serif" fill="#374151">trial-20260321-stability5</text>
</svg>