<svg xmlns="http://www.w3.org/2000/svg" width="980" height="460" viewBox="0 0 980 460">
<rect width="100%" height="100%" fill="#ffffff"/>
<text x="86" y="24" font-size="20" font-family="Arial, sans-serif" fill="#111827">Train Step Stage 2 Loss</text>
<text x="86" y="442" font-size="12" font-family="Arial, sans-serif" fill="#4b5563">step / epoch</text>
<text x="18" y="52" font-size="12" font-family="Arial, sans-serif" fill="#4b5563" transform="rotate(-90 18 52)">train_step/loss_stage2</text>
<line x1="86" y1="396.00" x2="956" y2="396.00" stroke="#e5e7eb" stroke-width="1"/>
<text x="76" y="400.00" font-size="11" text-anchor="end" font-family="Arial, sans-serif" fill="#6b7280">-0.521567</text>
<line x1="86" y1="307.00" x2="956" y2="307.00" stroke="#e5e7eb" stroke-width="1"/>
<text x="76" y="311.00" font-size="11" text-anchor="end" font-family="Arial, sans-serif" fill="#6b7280">3.3200</text>
<line x1="86" y1="218.00" x2="956" y2="218.00" stroke="#e5e7eb" stroke-width="1"/>
<text x="76" y="222.00" font-size="11" text-anchor="end" font-family="Arial, sans-serif" fill="#6b7280">7.1617</text>
<line x1="86" y1="129.00" x2="956" y2="129.00" stroke="#e5e7eb" stroke-width="1"/>
<text x="76" y="133.00" font-size="11" text-anchor="end" font-family="Arial, sans-serif" fill="#6b7280">11.0033</text>
<line x1="86" y1="40.00" x2="956" y2="40.00" stroke="#e5e7eb" stroke-width="1"/>
<text x="76" y="44.00" font-size="11" text-anchor="end" font-family="Arial, sans-serif" fill="#6b7280">14.8449</text>
<line x1="86.00" y1="40" x2="86.00" y2="396" stroke="#f3f4f6" stroke-width="1"/>
<text x="86.00" y="420" font-size="11" text-anchor="middle" font-family="Arial, sans-serif" fill="#6b7280">-22.9500</text>
<line x1="260.00" y1="40" x2="260.00" y2="396" stroke="#f3f4f6" stroke-width="1"/>
<text x="260.00" y="420" font-size="11" text-anchor="middle" font-family="Arial, sans-serif" fill="#6b7280">82.4300</text>
<line x1="434.00" y1="40" x2="434.00" y2="396" stroke="#f3f4f6" stroke-width="1"/>
<text x="434.00" y="420" font-size="11" text-anchor="middle" font-family="Arial, sans-serif" fill="#6b7280">187.81</text>
<line x1="608.00" y1="40" x2="608.00" y2="396" stroke="#f3f4f6" stroke-width="1"/>
<text x="608.00" y="420" font-size="11" text-anchor="middle" font-family="Arial, sans-serif" fill="#6b7280">293.19</text>
<line x1="782.00" y1="40" x2="782.00" y2="396" stroke="#f3f4f6" stroke-width="1"/>
<text x="782.00" y="420" font-size="11" text-anchor="middle" font-family="Arial, sans-serif" fill="#6b7280">398.57</text>
<line x1="956.00" y1="40" x2="956.00" y2="396" stroke="#f3f4f6" stroke-width="1"/>
<text x="956.00" y="420" font-size="11" text-anchor="middle" font-family="Arial, sans-serif" fill="#6b7280">503.95</text>
<rect x="86" y="40" width="870" height="356" fill="none" stroke="#d1d5db" stroke-width="1"/>
<polyline points="125.55,365.86 127.20,356.42 128.85,360.84 130.50,358.65 132.15,358.32 133.80,362.21 135.45,360.33 137.10,349.39 138.75,360.96 140.41,354.42 140.41,358.74 142.06,362.12 143.71,357.11 145.36,364.65 147.01,364.27 148.66,369.82 150.31,356.80 151.96,360.80 153.62,360.77 155.27,352.02 156.92,353.85 156.92,360.22 158.57,355.41 160.22,364.74 161.87,356.19 163.52,366.67 165.17,361.99 166.82,360.40 168.48,359.12 170.13,361.60 171.78,366.92 173.43,358.84 173.43,361.19 175.08,358.34 176.73,362.92 178.38,350.19 180.03,363.46 181.69,368.56 183.34,356.60 184.99,364.18 186.64,360.02 188.29,363.90 189.94,358.85 189.94,360.70 191.59,360.24 193.24,363.89 194.89,358.54 196.55,356.79 198.20,354.80 199.85,355.76 201.50,354.07 203.15,365.26 204.80,347.89 206.45,353.79 206.45,357.10 208.10,357.63 209.75,356.54 211.41,360.01 213.06,359.09 214.71,366.82 216.36,354.20 218.01,363.37 219.66,358.81 221.31,357.79 222.96,364.79 222.96,359.91 224.62,362.08 226.27,361.47 227.92,364.91 229.57,354.32 231.22,361.34 232.87,366.64 234.52,363.72 236.17,360.64 237.82,365.49 239.48,360.13 239.48,362.07 241.13,364.20 242.78,359.97 244.43,362.50 246.08,364.90 247.73,355.29 249.38,349.99 251.03,369.10 252.69,359.39 254.34,351.48 255.99,353.50 255.99,359.03 257.64,360.89 259.29,360.70 260.94,361.90 262.59,363.54 264.24,358.62 265.89,360.38 267.55,365.91 269.20,370.45 270.85,356.35 272.50,355.73 272.50,361.45 274.15,359.37 275.80,364.37 277.45,350.45 279.10,365.09 280.76,350.55 282.41,363.32 284.06,360.84 285.71,357.14 287.36,352.11 289.01,362.21 289.01,358.55 290.66,352.73 292.31,363.47 293.96,360.74 295.62,362.48 297.27,356.90 298.92,350.27 300.57,364.99 302.22,358.08 303.87,349.99 305.52,362.47 305.52,358.21 307.17,363.28 308.83,360.97 310.48,362.78 312.13,356.63 313.78,367.14 315.43,356.44 317.08,361.53 318.73,361.88 320.38,355.19 322.03,353.79 322.03,359.96 323.69,362.20 325.34,351.33 326.99,365.02 328.64,362.94 330.29,361.44 331.94,352.99 333.59,360.42 335.24,362.52 336.89,358.40 338.55,364.39 338.55,360.16 340.20,365.97 341.85,360.84 343.50,357.23 345.15,364.26 346.80,355.27 348.45,356.03 350.10,365.95 351.76,361.97 353.41,361.97 355.06,362.15 355.06,361.17 356.71,358.53 358.36,367.96 360.01,362.60 361.66,359.65 363.31,352.35 364.96,361.73 366.62,360.12 368.27,363.85 369.92,363.25 371.57,361.55 371.57,361.16 373.22,364.80 374.87,364.72 376.52,361.92 378.17,358.64 379.83,348.23 381.48,363.29 383.13,363.19 384.78,362.74 386.43,363.57 388.08,360.43 388.08,361.15 389.73,369.81 391.38,369.16 393.03,354.47 394.69,355.74 396.34,364.46 397.99,357.59 399.64,362.10 401.29,358.28 402.94,362.90 404.59,350.66 404.59,360.52 406.24,354.91 407.90,353.75 409.55,357.51 411.20,366.90 412.85,361.42 414.50,360.94 416.15,361.42 417.80,362.51 419.45,365.60 421.10,360.70 421.10,360.56 422.76,365.78 424.41,356.00 426.06,363.23 427.71,352.07 429.36,359.18 431.01,360.75 432.66,366.43 434.31,369.44 435.96,360.62 437.62,368.39 437.62,362.19 439.27,357.26 440.92,357.51 442.57,352.35 444.22,349.84 445.87,358.84 447.52,365.90 449.17,368.58 450.83,370.86 452.48,370.24 454.13,355.69 454.13,360.71 455.78,368.19 457.43,363.20 459.08,363.14 460.73,358.20 462.38,356.27 464.03,368.34 465.69,361.19 467.34,346.85 468.99,359.78 470.64,365.32 470.64,361.05 472.29,368.70 473.94,361.22 475.59,366.22 477.24,363.25 478.90,350.37 480.55,362.92 482.20,362.91 483.85,359.37 485.50,356.40 487.15,367.32 487.15,361.87 488.80,365.03 490.45,357.25 492.10,368.85 493.76,365.93 495.41,356.98 497.06,363.40 498.71,360.47 500.36,363.44 502.01,361.85 503.66,365.65 503.66,362.89 505.31,356.00 506.97,363.32 508.62,356.91 510.27,360.94 511.92,368.22 513.57,357.85 515.22,359.48 516.87,363.01 518.52,363.02 520.17,364.80 520.17,361.36 521.83,365.70 523.48,357.15 525.13,359.84 526.78,367.56 528.43,350.84 530.08,366.27 531.73,369.73 533.38,362.16 535.03,354.93 536.69,364.19 536.69,361.84 538.34,366.27 539.99,365.24 541.64,361.39 543.29,368.85 544.94,362.41 546.59,365.96 548.24,356.15 549.90,361.49 551.55,362.37 553.20,359.06 553.20,362.92 554.85,361.55 556.50,355.61 558.15,364.47 559.80,365.95 561.45,367.52 563.10,361.39 564.76,369.21 566.41,351.31 568.06,366.92 569.71,360.66 569.71,362.46 571.36,369.28 573.01,365.42 574.66,351.03 576.31,363.66 577.97,362.84 579.62,352.45 581.27,367.56 582.92,366.39 584.57,363.78 586.22,365.86 586.22,362.83 587.87,361.51 589.52,361.18 591.17,354.90 592.83,350.92 594.48,369.65 596.13,359.89 597.78,363.04 599.43,363.11 601.08,368.72 602.73,365.61 602.73,361.85 604.38,371.34 606.04,364.41 607.69,369.46 609.34,363.80 610.99,362.10 612.64,360.31 614.29,359.20 615.94,361.32 617.59,362.39 619.24,361.99 619.24,363.63 620.90,363.72 622.55,361.31 624.20,356.57 625.85,363.05 627.50,361.33 629.15,366.56 630.80,361.00 632.45,362.88 634.10,356.17 635.76,360.59 635.76,361.32 637.41,364.67 639.06,367.96 640.71,366.46 642.36,362.15 644.01,356.95 645.66,360.78 647.31,369.41 648.97,357.61 650.62,358.29 652.27,358.17 652.27,362.24 653.92,355.51 655.57,359.63 657.22,353.13 658.87,366.56 660.52,361.10 662.17,356.25 663.83,365.44 665.48,363.45 667.13,362.40 668.78,364.70 668.78,360.82 670.43,363.66 672.08,361.46 673.73,354.43 675.38,362.95 677.04,368.94 678.69,355.87 680.34,355.08 681.99,362.48 683.64,354.27 685.29,352.38 685.29,359.15 686.94,365.65 688.59,368.92 690.24,364.71 691.90,352.77 693.55,369.80 695.20,366.62 696.85,361.38 698.50,371.45 700.15,359.90 701.80,365.88 701.80,364.71 703.45,364.66 705.11,367.09 706.76,361.71 708.41,357.91 710.06,351.45 711.71,362.38 713.36,362.84 715.01,356.11 716.66,351.24 718.31,353.30 718.31,358.87 719.97,355.84 721.62,367.29 723.27,361.25 724.92,363.20 726.57,360.25 728.22,361.47 729.87,364.66 731.52,365.67 733.17,357.71 734.83,371.31 734.83,362.87 736.48,366.13 738.13,365.38 739.78,371.12 741.43,359.46 743.08,360.90 744.73,366.98 746.38,365.94 748.04,363.00 749.69,364.51 751.34,353.30 751.34,363.67 752.99,358.26 754.64,352.43 756.29,366.88 757.94,364.40 759.59,369.45 761.24,366.74 762.90,367.76 764.55,360.16 766.20,359.95 767.85,362.33 767.85,362.84 769.50,355.49 771.15,363.31 772.80,361.46 774.45,369.08 776.11,363.60 777.76,359.95 779.41,368.75 781.06,363.96 782.71,369.09 784.36,364.65 784.36,363.93 786.01,363.16 787.66,361.27 789.31,363.08 790.97,354.48 792.62,359.49 794.27,361.90 795.92,363.97 797.57,364.96 799.22,363.01 800.87,361.17 800.87,361.65 802.52,366.17 804.18,366.47 805.83,360.59 807.48,359.30 809.13,359.67 810.78,362.57 812.43,369.01 814.08,369.93 815.73,361.08 817.38,366.68 817.38,364.15 819.04,361.59 820.69,363.94 822.34,368.53 823.99,357.00 825.64,365.26 827.29,366.36 828.94,366.18 830.59,362.21 832.25,362.66 833.90,356.16 833.90,362.99 835.55,354.61 837.20,366.87 838.85,364.15 840.50,358.39 842.15,355.67 843.80,364.36 845.45,363.54 847.11,356.02 848.76,366.33 850.41,357.54 850.41,360.75 852.06,362.74 853.71,368.70 855.36,364.88 857.01,359.86 858.66,363.77 860.31,362.11 861.97,365.09 863.62,359.67 865.27,365.36 866.92,353.64 866.92,362.58 868.57,360.56 870.22,361.74 871.87,361.24 873.52,369.89 875.18,353.06 876.83,362.36 878.48,368.54 880.13,366.81 881.78,361.91 883.43,366.65 883.43,363.28 885.08,363.70 886.73,362.90 888.38,369.84 890.04,362.72 891.69,355.88 893.34,363.80 894.99,361.53 896.64,356.84 898.29,357.19 899.94,367.80 899.94,362.22 901.59,363.01 903.25,352.65 904.90,354.84 906.55,359.35 908.20,361.42 909.85,355.45 911.50,361.91 913.15,367.71 914.80,368.90 916.45,359.32 916.45,360.46" fill="none" stroke="#2563eb" stroke-width="2.5"/>
<circle cx="916.45" cy="360.46" r="3.5" fill="#2563eb"/>
<line x1="776" y1="26" x2="794" y2="26" stroke="#2563eb" stroke-width="3"/>
<text x="800" y="30" font-size="11" font-family="Arial, sans-serif" fill="#374151">trial-20260321-cleandata1</text>
<polyline points="125.55,305.94 127.20,334.51 128.85,308.90 130.50,301.23 132.15,135.50" fill="none" stroke="#dc2626" stroke-width="2.5"/>
<circle cx="132.15" cy="135.50" r="3.5" fill="#dc2626"/>
<line x1="776" y1="44" x2="794" y2="44" stroke="#dc2626" stroke-width="3"/>
<text x="800" y="48" font-size="11" font-family="Arial, sans-serif" fill="#374151">trial-20260321-converge5</text>
<polyline points="125.55,302.80" fill="none" stroke="#059669" stroke-width="2.5"/>
<circle cx="125.55" cy="302.80" r="3.5" fill="#059669"/>
<line x1="776" y1="62" x2="794" y2="62" stroke="#059669" stroke-width="3"/>
<text x="800" y="66" font-size="11" font-family="Arial, sans-serif" fill="#374151">trial-20260321-converge6</text>
<polyline points="125.55,230.54 127.20,309.39 128.85,284.06 130.50,282.77 132.15,299.73 133.80,339.74 135.45,180.63 137.10,131.40 138.75,342.37 140.41,325.23 140.41,272.59 142.06,318.50 143.71,249.02 145.36,283.15 147.01,337.55 148.66,64.55 150.31,73.61 151.96,260.14 153.62,317.03 155.27,233.25 156.92,317.25 156.92,245.41 158.57,347.78 160.22,338.08 161.87,131.84 163.52,261.91 165.17,341.48 166.82,343.65 168.48,273.32 170.13,173.86 171.78,298.32 173.43,314.51 173.43,282.47 175.08,315.48 176.73,127.61 178.38,292.27 180.03,235.43 181.69,318.64 183.34,211.56 184.99,317.36 186.64,273.41 188.29,309.32 189.94,261.09 189.94,266.22 191.59,125.16 193.24,345.90 194.89,329.50" fill="none" stroke="#ea580c" stroke-width="2.5"/>
<circle cx="194.89" cy="329.50" r="3.5" fill="#ea580c"/>
<line x1="776" y1="80" x2="794" y2="80" stroke="#ea580c" stroke-width="3"/>
<text x="800" y="84" font-size="11" font-family="Arial, sans-serif" fill="#374151">trial-20260321-converge7</text>
<polyline points="125.55,356.20 127.20,354.35 128.85,361.51 130.50,358.85 132.15,366.35 133.80,365.23 135.45,365.25 137.10,354.45 138.75,355.29 140.41,369.54 140.41,360.70 142.06,364.35 143.71,364.14 145.36,359.28 147.01,370.15 148.66,356.83 150.31,360.79 151.96,348.68 153.62,358.95 155.27,356.31 156.92,353.66 156.92,359.31 158.57,364.72 160.22,357.54 161.87,366.18 163.52,358.50 165.17,369.58 166.82,365.00 168.48,361.83 170.13,353.08 171.78,360.96 173.43,366.58 173.43,362.40 175.08,356.68 176.73,350.06 178.38,356.30 180.03,357.17 181.69,361.46 183.34,365.56 184.99,366.13 186.64,357.03 188.29,366.60 189.94,364.81 189.94,360.18" fill="none" stroke="#7c3aed" stroke-width="2.5"/>
<circle cx="189.94" cy="360.18" r="3.5" fill="#7c3aed"/>
<line x1="776" y1="98" x2="794" y2="98" stroke="#7c3aed" stroke-width="3"/>
<text x="800" y="102" font-size="11" font-family="Arial, sans-serif" fill="#374151">trial-20260321-full40-crossent1</text>
<polyline points="125.55,355.26 127.20,349.67 128.85,355.07 130.50,370.41 132.15,360.30 133.80,364.55 135.45,356.74 137.10,355.03 138.75,359.78 140.41,366.42 140.41,359.32 142.06,355.66 143.71,360.60 145.36,356.01 147.01,357.03 148.66,354.48 150.31,361.74 151.96,364.95 153.62,360.81 155.27,359.77 156.92,364.21 156.92,359.53 158.57,358.23 160.22,362.45 161.87,359.53 163.52,360.63 165.17,358.54 166.82,363.01 168.48,361.52 170.13,355.99 171.78,360.26 173.43,361.32 173.43,360.15 175.08,355.65 176.73,360.01 178.38,358.49 180.03,351.76 181.69,363.55 183.34,366.70 184.99,350.79 186.64,358.51 188.29,365.40 189.94,360.59 189.94,359.14 191.59,369.38 193.24,359.01 194.89,354.96 196.55,357.07 198.20,360.63 199.85,364.28 201.50,360.82 203.15,362.70 204.80,355.14 206.45,362.03 206.45,360.60 208.10,366.12 209.75,363.16 211.41,366.55 213.06,364.27 214.71,362.67 216.36,360.06 218.01,361.07 219.66,350.46 221.31,365.37 222.96,350.12 222.96,360.99 224.62,357.75 226.27,350.68 227.92,353.87 229.57,363.62 231.22,351.23 232.87,364.96 234.52,370.67 236.17,367.51 237.82,359.84 239.48,359.82 239.48,360.00 241.13,362.25 242.78,361.31 244.43,363.54 246.08,356.33 247.73,355.80 249.38,353.82 251.03,357.04 252.69,360.62 254.34,350.96 255.99,351.74 255.99,357.34 257.64,364.81 259.29,358.49 260.94,359.70 262.59,360.79 264.24,358.64 265.89,363.77 267.55,360.65 269.20,361.24" fill="none" stroke="#0f766e" stroke-width="2.5"/>
<circle cx="269.20" cy="361.24" r="3.5" fill="#0f766e"/>
<line x1="776" y1="116" x2="794" y2="116" stroke="#0f766e" stroke-width="3"/>
<text x="800" y="120" font-size="11" font-family="Arial, sans-serif" fill="#374151">trial-20260321-full40-puretf1</text>
<polyline points="125.55,363.60 127.20,350.12 128.85,364.10 130.50,355.29 132.15,364.47 133.80,364.20 135.45,354.50 137.10,361.49 138.75,363.39 140.41,365.01 140.41,360.62 142.06,363.84 143.71,359.41 145.36,363.58 147.01,361.50" fill="none" stroke="#c2410c" stroke-width="2.5"/>
<circle cx="147.01" cy="361.50" r="3.5" fill="#c2410c"/>
<line x1="776" y1="134" x2="794" y2="134" stroke="#c2410c" stroke-width="3"/>
<text x="800" y="138" font-size="11" font-family="Arial, sans-serif" fill="#374151">trial-20260321-full40-tf08-1</text>
<polyline points="125.55,362.86 127.20,369.74 128.85,360.59 130.50,353.92 132.15,364.71 133.80,357.06 135.45,354.46 137.10,358.50 138.75,360.53 140.41,355.91 140.41,359.83 142.06,362.05 143.71,364.48" fill="none" stroke="#4f46e5" stroke-width="2.5"/>
<circle cx="143.71" cy="364.48" r="3.5" fill="#4f46e5"/>
<line x1="776" y1="152" x2="794" y2="152" stroke="#4f46e5" stroke-width="3"/>
<text x="800" y="156" font-size="11" font-family="Arial, sans-serif" fill="#374151">trial-20260321-full40-tfmajority1</text>
<polyline points="125.55,334.67 127.20,245.94 128.85,254.09 130.50,308.60 132.15,333.49 133.80,329.12 135.45,221.21 137.10,247.11 138.75,254.62 140.41,317.60 140.41,284.65 142.06,297.21 143.71,291.57" fill="none" stroke="#2563eb" stroke-width="2.5"/>
<circle cx="143.71" cy="291.57" r="3.5" fill="#2563eb"/>
<line x1="776" y1="170" x2="794" y2="170" stroke="#2563eb" stroke-width="3"/>
<text x="800" y="174" font-size="11" font-family="Arial, sans-serif" fill="#374151">trial-20260321-stability1</text>
<polyline points="125.55,331.37 127.20,287.77 128.85,307.39 130.50,329.88 132.15,241.17 133.80,303.97 135.45,300.78 137.10,308.25 138.75,329.49 140.41,231.03 140.41,297.11 142.06,273.92 143.71,331.38 145.36,269.72 147.01,322.52 148.66,302.16 150.31,296.26 151.96,317.50 153.62,324.97 155.27,338.96 156.92,313.66 156.92,309.10 158.57,207.87 160.22,219.38 161.87,331.43 163.52,294.49 165.17,303.22 166.82,203.97 168.48,312.13 170.13,295.17 171.78,334.35 173.43,332.65 173.43,283.47 175.08,314.67 176.73,323.30 178.38,335.42 180.03,244.04 181.69,317.87 183.34,264.36" fill="none" stroke="#dc2626" stroke-width="2.5"/>
<circle cx="183.34" cy="264.36" r="3.5" fill="#dc2626"/>
<line x1="776" y1="188" x2="794" y2="188" stroke="#dc2626" stroke-width="3"/>
<text x="800" y="192" font-size="11" font-family="Arial, sans-serif" fill="#374151">trial-20260321-stability2</text>
<polyline points="125.55,311.97 127.20,295.08 128.85,218.57 130.50,276.09 132.15,304.01 133.80,310.28 135.45,313.73 137.10,234.37 138.75,217.39 140.41,317.28 140.41,279.88 142.06,307.55 143.71,332.39 145.36,296.82 147.01,281.56 148.66,312.23 150.31,181.14 151.96,300.25 153.62,307.97 155.27,300.36 156.92,290.82 156.92,291.11 158.57,302.50 160.22,308.14 161.87,269.74 163.52,323.75 165.17,327.54 166.82,275.03 168.48,315.60 170.13,295.47 171.78,296.05 173.43,321.89 173.43,303.57 175.08,328.03 176.73,325.90 178.38,291.55 180.03,265.61 181.69,333.44 183.34,341.69" fill="none" stroke="#059669" stroke-width="2.5"/>
<circle cx="183.34" cy="341.69" r="3.5" fill="#059669"/>
<line x1="776" y1="206" x2="794" y2="206" stroke="#059669" stroke-width="3"/>
<text x="800" y="210" font-size="11" font-family="Arial, sans-serif" fill="#374151">trial-20260321-stability3</text>
<polyline points="125.55,365.26 127.20,366.27 128.85,360.57 130.50,363.03 132.15,363.75 133.80,366.33 135.45,361.84 137.10,360.98 138.75,354.82 140.41,360.77 140.41,362.36 142.06,356.63 143.71,357.07 145.36,355.55 147.01,359.30 148.66,359.55 150.31,359.21 151.96,364.89 153.62,363.69 155.27,365.29 156.92,356.61 156.92,359.78 158.57,361.48 160.22,361.73 161.87,361.29 163.52,351.06 165.17,358.35 166.82,365.08 168.48,352.28 170.13,358.69 171.78,361.29 173.43,363.98 173.43,359.52 175.08,360.02 176.73,365.92 178.38,370.01 180.03,357.42 181.69,358.43 183.34,362.30" fill="none" stroke="#ea580c" stroke-width="2.5"/>
<circle cx="183.34" cy="362.30" r="3.5" fill="#ea580c"/>
<line x1="776" y1="224" x2="794" y2="224" stroke="#ea580c" stroke-width="3"/>
<text x="800" y="228" font-size="11" font-family="Arial, sans-serif" fill="#374151">trial-20260321-stability4</text>
<polyline points="125.55,353.04 127.20,360.70 128.85,364.16 130.50,355.05 132.15,359.32 133.80,363.26 135.45,366.99 137.10,369.74 138.75,364.03 140.41,366.60 140.41,362.29 142.06,358.52 143.71,357.41 145.36,363.56 147.01,358.70 148.66,355.46 150.31,354.67 151.96,361.58 153.62,365.44 155.27,360.76 156.92,359.65 156.92,359.58 158.57,367.51 160.22,362.14 161.87,360.32 163.52,356.84 165.17,355.49 166.82,359.80 168.48,361.53 170.13,370.00 171.78,366.39 173.43,354.69 173.43,361.47 175.08,356.78 176.73,356.78 178.38,365.65 180.03,361.42 181.69,363.47 183.34,354.93" fill="none" stroke="#7c3aed" stroke-width="2.5"/>
<circle cx="183.34" cy="354.93" r="3.5" fill="#7c3aed"/>
<line x1="776" y1="242" x2="794" y2="242" stroke="#7c3aed" stroke-width="3"/>
<text x="800" y="246" font-size="11" font-family="Arial, sans-serif" fill="#374151">trial-20260321-stability5</text>
</svg>