<svg xmlns="http://www.w3.org/2000/svg" width="980" height="460" viewBox="0 0 980 460">
<rect width="100%" height="100%" fill="#ffffff"/>
<text x="86" y="24" font-size="20" font-family="Arial, sans-serif" fill="#111827">Train Eval Total Loss</text>
<text x="86" y="442" font-size="12" font-family="Arial, sans-serif" fill="#4b5563">step / epoch</text>
<text x="18" y="52" font-size="12" font-family="Arial, sans-serif" fill="#4b5563" transform="rotate(-90 18 52)">train/loss_total</text>
<line x1="86" y1="396.00" x2="956" y2="396.00" stroke="#e5e7eb" stroke-width="1"/>
<text x="76" y="400.00" font-size="11" text-anchor="end" font-family="Arial, sans-serif" fill="#6b7280">1.3181</text>
<line x1="86" y1="307.00" x2="956" y2="307.00" stroke="#e5e7eb" stroke-width="1"/>
<text x="76" y="311.00" font-size="11" text-anchor="end" font-family="Arial, sans-serif" fill="#6b7280">4.0490</text>
<line x1="86" y1="218.00" x2="956" y2="218.00" stroke="#e5e7eb" stroke-width="1"/>
<text x="76" y="222.00" font-size="11" text-anchor="end" font-family="Arial, sans-serif" fill="#6b7280">6.7799</text>
<line x1="86" y1="129.00" x2="956" y2="129.00" stroke="#e5e7eb" stroke-width="1"/>
<text x="76" y="133.00" font-size="11" text-anchor="end" font-family="Arial, sans-serif" fill="#6b7280">9.5108</text>
<line x1="86" y1="40.00" x2="956" y2="40.00" stroke="#e5e7eb" stroke-width="1"/>
<text x="76" y="44.00" font-size="11" text-anchor="end" font-family="Arial, sans-serif" fill="#6b7280">12.2417</text>
<line x1="86.00" y1="40" x2="86.00" y2="396" stroke="#f3f4f6" stroke-width="1"/>
<text x="86.00" y="420" font-size="11" text-anchor="middle" font-family="Arial, sans-serif" fill="#6b7280">-22.9500</text>
<line x1="260.00" y1="40" x2="260.00" y2="396" stroke="#f3f4f6" stroke-width="1"/>
<text x="260.00" y="420" font-size="11" text-anchor="middle" font-family="Arial, sans-serif" fill="#6b7280">82.4300</text>
<line x1="434.00" y1="40" x2="434.00" y2="396" stroke="#f3f4f6" stroke-width="1"/>
<text x="434.00" y="420" font-size="11" text-anchor="middle" font-family="Arial, sans-serif" fill="#6b7280">187.81</text>
<line x1="608.00" y1="40" x2="608.00" y2="396" stroke="#f3f4f6" stroke-width="1"/>
<text x="608.00" y="420" font-size="11" text-anchor="middle" font-family="Arial, sans-serif" fill="#6b7280">293.19</text>
<line x1="782.00" y1="40" x2="782.00" y2="396" stroke="#f3f4f6" stroke-width="1"/>
<text x="782.00" y="420" font-size="11" text-anchor="middle" font-family="Arial, sans-serif" fill="#6b7280">398.57</text>
<line x1="956.00" y1="40" x2="956.00" y2="396" stroke="#f3f4f6" stroke-width="1"/>
<text x="956.00" y="420" font-size="11" text-anchor="middle" font-family="Arial, sans-serif" fill="#6b7280">503.95</text>
<rect x="86" y="40" width="870" height="356" fill="none" stroke="#d1d5db" stroke-width="1"/>
<polyline points="916.45,371.45" fill="none" stroke="#2563eb" stroke-width="2.5"/>
<circle cx="916.45" cy="371.45" r="3.5" fill="#2563eb"/>
<line x1="776" y1="26" x2="794" y2="26" stroke="#2563eb" stroke-width="3"/>
<text x="800" y="30" font-size="11" font-family="Arial, sans-serif" fill="#374151">trial-20260321-cleandata1</text>
<polyline points="125.55,244.15 127.20,162.47 128.85,105.82 130.50,290.66 132.15,284.60 133.80,352.25 135.45,152.66 137.10,298.55 138.75,240.21 140.41,301.16 140.41,243.26 142.06,242.17 143.71,138.07 145.36,280.64 147.01,203.95 148.66,223.85 150.31,155.28 151.96,198.86 153.62,275.43 155.27,172.55 156.92,297.38 156.92,218.82 158.57,279.36 160.22,183.49 161.87,175.81 163.52,290.68 165.17,282.23 166.82,189.74 168.48,280.94 170.13,226.32 171.78,261.18 173.43,256.58 173.43,242.63 175.08,277.25 176.73,278.87 178.38,175.45 180.03,296.24 181.69,233.49 183.34,247.51 184.99,273.20 186.64,306.55 188.29,264.41 189.94,237.99 189.94,259.10 191.59,239.21 193.24,335.22 194.89,311.20 196.55,275.04 198.20,276.62 199.85,264.14 201.50,200.10 203.15,238.50 204.80,275.94 206.45,258.01 206.45,267.40 208.10,288.42 209.75,319.41 211.41,255.20 213.06,327.78 214.71,257.17 216.36,291.81 218.01,294.76 219.66,241.10 221.31,310.05 222.96,252.03 222.96,283.77 224.62,193.15 226.27,277.80 227.92,232.07 229.57,334.08 231.22,299.23 232.87,288.98 234.52,324.71 236.17,325.96 237.82,261.28 239.48,261.32 239.48,279.86 241.13,303.61 242.78,301.00 244.43,237.40 246.08,260.10 247.73,306.31 249.38,324.27 251.03,332.74 252.69,325.39 254.34,320.10 255.99,207.57 255.99,291.85 257.64,240.97 259.29,320.23 260.94,307.13 262.59,282.12 264.24,319.64 265.89,238.30 267.55,277.90 269.20,255.05 270.85,254.48 272.50,187.75 272.50,268.36 274.15,360.38 275.80,301.95 277.45,204.96 279.10,123.40" fill="none" stroke="#dc2626" stroke-width="2.5"/>
<circle cx="279.10" cy="123.40" r="3.5" fill="#dc2626"/>
<line x1="776" y1="44" x2="794" y2="44" stroke="#dc2626" stroke-width="3"/>
<text x="800" y="48" font-size="11" font-family="Arial, sans-serif" fill="#374151">trial-20260321-full3</text>
<polyline points="183.34,64.55" fill="none" stroke="#059669" stroke-width="2.5"/>
<circle cx="183.34" cy="64.55" r="3.5" fill="#059669"/>
<line x1="776" y1="62" x2="794" y2="62" stroke="#059669" stroke-width="3"/>
<text x="800" y="66" font-size="11" font-family="Arial, sans-serif" fill="#374151">trial-20260321-stability3</text>
<polyline points="183.34,322.64" fill="none" stroke="#ea580c" stroke-width="2.5"/>
<circle cx="183.34" cy="322.64" r="3.5" fill="#ea580c"/>
<line x1="776" y1="80" x2="794" y2="80" stroke="#ea580c" stroke-width="3"/>
<text x="800" y="84" font-size="11" font-family="Arial, sans-serif" fill="#374151">trial-20260321-stability5</text>
</svg>