<svg xmlns="http://www.w3.org/2000/svg" width="980" height="460" viewBox="0 0 980 460">
<rect width="100%" height="100%" fill="#ffffff"/>
<text x="86" y="24" font-size="20" font-family="Arial, sans-serif" fill="#111827">Train Step Stage 3 Loss</text>
<text x="86" y="442" font-size="12" font-family="Arial, sans-serif" fill="#4b5563">step / epoch</text>
<text x="18" y="52" font-size="12" font-family="Arial, sans-serif" fill="#4b5563" transform="rotate(-90 18 52)">train_step/loss_stage3</text>
<line x1="86" y1="396.00" x2="956" y2="396.00" stroke="#e5e7eb" stroke-width="1"/>
<text x="76" y="400.00" font-size="11" text-anchor="end" font-family="Arial, sans-serif" fill="#6b7280">-4.4307</text>
<line x1="86" y1="307.00" x2="956" y2="307.00" stroke="#e5e7eb" stroke-width="1"/>
<text x="76" y="311.00" font-size="11" text-anchor="end" font-family="Arial, sans-serif" fill="#6b7280">11.7032</text>
<line x1="86" y1="218.00" x2="956" y2="218.00" stroke="#e5e7eb" stroke-width="1"/>
<text x="76" y="222.00" font-size="11" text-anchor="end" font-family="Arial, sans-serif" fill="#6b7280">27.8370</text>
<line x1="86" y1="129.00" x2="956" y2="129.00" stroke="#e5e7eb" stroke-width="1"/>
<text x="76" y="133.00" font-size="11" text-anchor="end" font-family="Arial, sans-serif" fill="#6b7280">43.9709</text>
<line x1="86" y1="40.00" x2="956" y2="40.00" stroke="#e5e7eb" stroke-width="1"/>
<text x="76" y="44.00" font-size="11" text-anchor="end" font-family="Arial, sans-serif" fill="#6b7280">60.1048</text>
<line x1="86.00" y1="40" x2="86.00" y2="396" stroke="#f3f4f6" stroke-width="1"/>
<text x="86.00" y="420" font-size="11" text-anchor="middle" font-family="Arial, sans-serif" fill="#6b7280">-22.9500</text>
<line x1="260.00" y1="40" x2="260.00" y2="396" stroke="#f3f4f6" stroke-width="1"/>
<text x="260.00" y="420" font-size="11" text-anchor="middle" font-family="Arial, sans-serif" fill="#6b7280">82.4300</text>
<line x1="434.00" y1="40" x2="434.00" y2="396" stroke="#f3f4f6" stroke-width="1"/>
<text x="434.00" y="420" font-size="11" text-anchor="middle" font-family="Arial, sans-serif" fill="#6b7280">187.81</text>
<line x1="608.00" y1="40" x2="608.00" y2="396" stroke="#f3f4f6" stroke-width="1"/>
<text x="608.00" y="420" font-size="11" text-anchor="middle" font-family="Arial, sans-serif" fill="#6b7280">293.19</text>
<line x1="782.00" y1="40" x2="782.00" y2="396" stroke="#f3f4f6" stroke-width="1"/>
<text x="782.00" y="420" font-size="11" text-anchor="middle" font-family="Arial, sans-serif" fill="#6b7280">398.57</text>
<line x1="956.00" y1="40" x2="956.00" y2="396" stroke="#f3f4f6" stroke-width="1"/>
<text x="956.00" y="420" font-size="11" text-anchor="middle" font-family="Arial, sans-serif" fill="#6b7280">503.95</text>
<rect x="86" y="40" width="870" height="356" fill="none" stroke="#d1d5db" stroke-width="1"/>
<polyline points="125.55,371.21 127.20,346.22 128.85,370.34 130.50,369.26 132.15,366.24 133.80,359.63 135.45,366.47 137.10,370.45 138.75,354.75 140.41,370.14 140.41,364.47 142.06,370.63 143.71,361.02 145.36,370.80 147.01,348.63 148.66,371.25 150.31,368.30 151.96,370.63 153.62,363.11 155.27,364.91 156.92,368.48 156.92,365.78 158.57,369.12 160.22,370.20 161.87,367.44 163.52,371.03 165.17,362.09 166.82,370.08 168.48,367.83 170.13,369.01 171.78,366.00 173.43,370.47 173.43,368.33 175.08,370.51 176.73,366.73 178.38,370.74 180.03,367.60 181.69,369.68 183.34,368.09 184.99,368.37 186.64,371.13 188.29,370.82 189.94,362.98 189.94,368.67 191.59,361.59 193.24,370.28 194.89,366.64 196.55,370.03 198.20,369.06 199.85,368.62 201.50,361.71 203.15,359.23 204.80,367.03 206.45,364.81 206.45,365.90 208.10,364.52 209.75,370.44 211.41,371.17 213.06,370.50 214.71,365.57 216.36,367.79 218.01,362.61 219.66,367.25 221.31,365.86 222.96,367.51 222.96,367.32 224.62,370.25 226.27,369.33 227.92,366.58 229.57,364.52 231.22,370.53 232.87,328.63 234.52,370.09 236.17,370.58 237.82,360.53 239.48,356.47 239.48,362.75 241.13,370.16 242.78,371.14 244.43,368.71 246.08,368.85 247.73,365.35 249.38,370.97 251.03,367.25 252.69,368.29 254.34,371.00 255.99,367.06 255.99,368.88 257.64,364.11 259.29,371.14 260.94,358.23 262.59,370.97 264.24,370.47 265.89,371.02 267.55,365.18 269.20,371.28 270.85,370.43 272.50,367.31 272.50,368.01 274.15,363.97 275.80,348.29 277.45,368.90 279.10,370.75 280.76,370.78 282.41,366.84 284.06,371.15 285.71,371.09 287.36,370.98 289.01,370.90 289.01,367.37 290.66,368.52 292.31,371.28 293.96,371.24 295.62,369.68 297.27,368.80 298.92,367.25 300.57,371.22 302.22,365.95 303.87,370.74 305.52,362.13 305.52,368.68 307.17,366.19 308.83,371.05 310.48,365.33 312.13,371.23 313.78,371.32 315.43,371.18 317.08,354.87 318.73,370.20 320.38,371.10 322.03,367.09 322.03,367.96 323.69,369.66 325.34,371.10 326.99,363.29 328.64,370.66 330.29,370.95 331.94,360.35 333.59,371.30 335.24,365.83 336.89,368.12 338.55,368.31 338.55,367.96 340.20,370.42 341.85,370.53 343.50,354.32 345.15,369.30 346.80,371.25 348.45,369.03 350.10,369.90 351.76,370.43 353.41,371.30 355.06,370.48 355.06,368.70 356.71,363.41 358.36,365.74 360.01,365.12 361.66,370.91 363.31,371.07 364.96,370.11 366.62,371.20 368.27,366.13 369.92,364.28 371.57,365.44 371.57,367.34 373.22,369.80 374.87,370.72 376.52,370.77 378.17,366.85 379.83,367.97 381.48,366.86 383.13,365.51 384.78,369.35 386.43,369.81 388.08,371.27 388.08,368.89 389.73,370.78 391.38,369.20 393.03,369.60 394.69,370.21 396.34,364.96 397.99,370.29 399.64,369.23 401.29,370.29 402.94,370.62 404.59,370.82 404.59,369.60 406.24,371.13 407.90,366.65 409.55,370.02 411.20,371.08 412.85,365.53 414.50,368.07 416.15,371.30 417.80,364.05 419.45,369.76 421.10,371.24 421.10,368.88 422.76,370.53 424.41,367.16 426.06,367.56 427.71,362.77 429.36,371.25 431.01,371.31 432.66,370.69 434.31,319.15 435.96,371.31 437.62,371.39 437.62,364.31 439.27,369.16 440.92,370.27 442.57,356.73 444.22,371.13 445.87,366.46 447.52,369.34 449.17,364.92 450.83,371.37 452.48,369.48 454.13,365.64 454.13,367.45 455.78,368.24 457.43,366.46 459.08,368.89 460.73,371.24 462.38,371.02 464.03,359.66 465.69,371.31 467.34,369.48 468.99,371.15 470.64,370.53 470.64,368.80 472.29,371.38 473.94,371.26 475.59,367.46 477.24,366.96 478.90,371.18 480.55,370.37 482.20,371.13 483.85,371.30 485.50,370.42 487.15,362.38 487.15,369.38 488.80,370.85 490.45,370.59 492.10,366.71 493.76,370.70 495.41,370.91 497.06,367.03 498.71,370.70 500.36,369.52 502.01,371.35 503.66,360.53 503.66,368.89 505.31,370.91 506.97,370.84 508.62,360.63 510.27,371.34 511.92,367.06 513.57,371.15 515.22,371.29 516.87,369.57 518.52,367.23 520.17,366.87 520.17,368.69 521.83,371.30 523.48,368.92 525.13,371.29 526.78,362.68 528.43,371.32 530.08,366.26 531.73,371.32 533.38,370.65 535.03,365.02 536.69,370.64 536.69,368.94 538.34,365.58 539.99,367.74 541.64,369.83 543.29,367.81 544.94,371.35 546.59,370.37 548.24,371.33 549.90,362.25 551.55,364.17 553.20,369.04 553.20,367.95 554.85,371.05 556.50,365.96 558.15,368.52 559.80,369.75 561.45,366.45 563.10,371.17 564.76,367.38 566.41,371.29 568.06,369.67 569.71,370.19 569.71,369.14 571.36,369.18 573.01,370.69 574.66,370.85 576.31,370.93 577.97,370.89 579.62,371.28 581.27,363.24 582.92,369.59 584.57,367.61 586.22,371.26 586.22,369.55 587.87,371.23 589.52,367.96 591.17,371.31 592.83,371.04 594.48,371.37 596.13,371.37 597.78,361.43 599.43,371.39 601.08,367.81 602.73,368.11 602.73,369.30 604.38,368.81 606.04,368.93 607.69,371.32 609.34,371.27 610.99,371.10 612.64,371.21 614.29,370.85 615.94,371.43 617.59,365.83 619.24,370.62 619.24,370.14 620.90,367.23 622.55,371.36 624.20,371.36 625.85,370.93 627.50,371.40 629.15,364.15 630.80,370.18 632.45,366.11 634.10,363.46 635.76,370.10 635.76,368.63 637.41,362.98 639.06,364.32 640.71,370.72 642.36,364.32 644.01,371.02 645.66,369.75 647.31,371.36 648.97,371.27 650.62,371.08 652.27,364.62 652.27,368.14 653.92,371.16 655.57,371.09 657.22,366.08 658.87,367.62 660.52,368.87 662.17,371.29 663.83,370.82 665.48,371.17 667.13,361.82 668.78,369.53 668.78,368.94 670.43,366.20 672.08,371.12 673.73,371.25 675.38,356.04 677.04,363.72 678.69,370.73 680.34,371.38 681.99,368.34 683.64,370.80 685.29,371.07 685.29,368.06 686.94,370.62 688.59,371.38 690.24,369.35 691.90,371.17 693.55,371.06 695.20,370.99 696.85,371.17 698.50,371.39 700.15,371.07 701.80,371.33 701.80,370.95 703.45,362.16 705.11,363.80 706.76,369.02 708.41,371.38 710.06,371.23 711.71,370.83 713.36,369.83 715.01,370.44 716.66,368.48 718.31,365.04 718.31,368.22 719.97,370.34 721.62,364.96 723.27,371.05 724.92,370.00 726.57,371.38 728.22,371.36 729.87,369.67 731.52,365.69 733.17,370.23 734.83,371.35 734.83,369.61 736.48,371.04 738.13,370.92 739.78,371.35 741.43,368.53 743.08,371.39 744.73,371.38 746.38,367.21 748.04,370.95 749.69,371.36 751.34,364.79 751.34,369.89 752.99,370.96 754.64,368.28 756.29,371.27 757.94,367.48 759.59,371.34 761.24,364.36 762.90,360.01 764.55,371.17 766.20,360.41 767.85,367.40 767.85,367.27 769.50,371.31 771.15,371.12 772.80,371.38 774.45,361.09 776.11,367.73 777.76,370.02 779.41,371.42 781.06,371.05 782.71,366.65 784.36,371.37 784.36,369.31 786.01,370.51 787.66,371.31 789.31,371.10 790.97,371.04 792.62,362.35 794.27,368.61 795.92,370.09 797.57,369.87 799.22,371.11 800.87,371.40 800.87,369.74 802.52,370.81 804.18,371.29 805.83,371.41 807.48,364.55 809.13,370.88 810.78,371.26 812.43,362.64 814.08,371.26 815.73,366.39 817.38,366.63 817.38,368.71 819.04,371.36 820.69,370.90 822.34,364.75 823.99,370.94 825.64,369.58 827.29,368.26 828.94,366.88 830.59,371.27 832.25,365.53 833.90,368.18 833.90,368.76 835.55,370.93 837.20,363.97 838.85,368.94 840.50,371.04 842.15,371.14 843.80,366.67 845.45,370.92 847.11,371.25 848.76,368.25 850.41,371.34 850.41,369.45 852.06,371.19 853.71,371.45 855.36,371.35 857.01,364.58 858.66,369.68 860.31,364.36 861.97,369.27 863.62,364.81 865.27,370.41 866.92,348.63 866.92,366.57 868.57,359.64 870.22,371.22 871.87,369.07 873.52,371.27 875.18,371.12 876.83,370.82 878.48,371.39 880.13,371.29 881.78,370.93 883.43,369.26 883.43,369.60 885.08,368.55 886.73,369.75 888.38,370.82 890.04,371.18 891.69,370.21 893.34,371.39 894.99,371.41 896.64,370.66 898.29,370.70 899.94,368.22 899.94,370.29 901.59,363.80 903.25,371.23 904.90,370.97 906.55,371.31 908.20,371.05 909.85,365.03 911.50,370.39 913.15,369.66 914.80,371.43 916.45,365.98 916.45,369.08" fill="none" stroke="#2563eb" stroke-width="2.5"/>
<circle cx="916.45" cy="369.08" r="3.5" fill="#2563eb"/>
<line x1="776" y1="26" x2="794" y2="26" stroke="#2563eb" stroke-width="3"/>
<text x="800" y="30" font-size="11" font-family="Arial, sans-serif" fill="#374151">trial-20260321-cleandata1</text>
<polyline points="125.55,339.96 127.20,326.64 128.85,341.20 130.50,339.94 132.15,339.07" fill="none" stroke="#dc2626" stroke-width="2.5"/>
<circle cx="132.15" cy="339.07" r="3.5" fill="#dc2626"/>
<line x1="776" y1="44" x2="794" y2="44" stroke="#dc2626" stroke-width="3"/>
<text x="800" y="48" font-size="11" font-family="Arial, sans-serif" fill="#374151">trial-20260321-converge5</text>
<polyline points="125.55,340.48" fill="none" stroke="#059669" stroke-width="2.5"/>
<circle cx="125.55" cy="340.48" r="3.5" fill="#059669"/>
<line x1="776" y1="62" x2="794" y2="62" stroke="#059669" stroke-width="3"/>
<text x="800" y="66" font-size="11" font-family="Arial, sans-serif" fill="#374151">trial-20260321-converge6</text>
<polyline points="125.55,338.15 127.20,340.99 128.85,338.84 130.50,335.99 132.15,340.28 133.80,340.61 135.45,338.99 137.10,338.36 138.75,336.13 140.41,334.48 140.41,338.28 142.06,341.95 143.71,334.10 145.36,337.41 147.01,337.32 148.66,333.26 150.31,339.23 151.96,338.18 153.62,339.15 155.27,338.56 156.92,343.80 156.92,338.29 158.57,340.11 160.22,332.85 161.87,335.97 163.52,334.58 165.17,333.65 166.82,340.85 168.48,337.49 170.13,338.85 171.78,338.28 173.43,341.64 173.43,337.43 175.08,336.17 176.73,337.95 178.38,338.83 180.03,336.96 181.69,339.68 183.34,338.96 184.99,339.58 186.64,335.48 188.29,338.81 189.94,337.25 189.94,337.97 191.59,343.31 193.24,338.31 194.89,341.95" fill="none" stroke="#ea580c" stroke-width="2.5"/>
<circle cx="194.89" cy="341.95" r="3.5" fill="#ea580c"/>
<line x1="776" y1="80" x2="794" y2="80" stroke="#ea580c" stroke-width="3"/>
<text x="800" y="84" font-size="11" font-family="Arial, sans-serif" fill="#374151">trial-20260321-converge7</text>
<polyline points="125.55,363.09 127.20,369.71 128.85,366.69 130.50,365.05 132.15,368.33 133.80,369.69 135.45,361.78 137.10,369.65 138.75,367.23 140.41,365.57 140.41,366.68 142.06,364.76 143.71,366.00 145.36,366.11 147.01,365.09 148.66,369.25 150.31,370.38 151.96,370.24 153.62,368.14 155.27,366.53 156.92,362.64 156.92,366.91 158.57,363.93 160.22,362.26 161.87,366.56 163.52,362.22 165.17,367.42 166.82,368.26 168.48,369.35 170.13,363.65 171.78,368.33 173.43,365.74 173.43,365.77 175.08,365.55 176.73,370.78 178.38,367.93 180.03,366.68 181.69,364.32 183.34,369.23 184.99,365.05 186.64,369.97 188.29,362.94 189.94,364.69 189.94,366.71" fill="none" stroke="#7c3aed" stroke-width="2.5"/>
<circle cx="189.94" cy="366.71" r="3.5" fill="#7c3aed"/>
<line x1="776" y1="98" x2="794" y2="98" stroke="#7c3aed" stroke-width="3"/>
<text x="800" y="102" font-size="11" font-family="Arial, sans-serif" fill="#374151">trial-20260321-full40-crossent1</text>
<polyline points="125.55,362.98 127.20,370.49 128.85,368.65 130.50,351.22 132.15,366.49 133.80,368.32 135.45,366.00 137.10,365.45 138.75,359.41 140.41,362.04 140.41,364.11 142.06,368.77 143.71,369.94 145.36,368.66 147.01,370.16 148.66,368.19 150.31,360.63 151.96,368.95 153.62,370.26 155.27,364.88 156.92,365.77 156.92,367.62 158.57,342.60 160.22,365.22 161.87,364.15 163.52,352.51 165.17,363.05 166.82,365.52 168.48,368.84 170.13,369.92 171.78,367.83 173.43,356.91 173.43,361.65 175.08,364.45 176.73,369.76 178.38,368.79 180.03,361.68 181.69,364.04 183.34,364.05 184.99,370.90 186.64,360.10 188.29,369.07 189.94,361.30 189.94,365.42 191.59,368.76 193.24,368.09 194.89,370.40 196.55,367.36 198.20,370.32 199.85,370.63 201.50,369.14 203.15,363.89 204.80,363.59 206.45,370.47 206.45,368.26 208.10,361.86 209.75,365.17 211.41,370.62 213.06,370.75 214.71,362.42 216.36,368.35 218.01,369.50 219.66,368.38 221.31,365.70 222.96,367.51 222.96,367.03 224.62,369.46 226.27,370.43 227.92,365.05 229.57,363.93 231.22,368.36 232.87,370.55 234.52,369.03 236.17,367.36 237.82,370.78 239.48,368.44 239.48,368.34 241.13,369.59 242.78,368.58 244.43,352.08 246.08,353.29 247.73,369.41 249.38,368.94 251.03,366.21 252.69,370.59 254.34,370.46 255.99,359.92 255.99,364.91 257.64,363.50 259.29,367.10 260.94,369.18 262.59,365.87 264.24,367.49 265.89,371.37 267.55,367.98 269.20,366.27" fill="none" stroke="#0f766e" stroke-width="2.5"/>
<circle cx="269.20" cy="366.27" r="3.5" fill="#0f766e"/>
<line x1="776" y1="116" x2="794" y2="116" stroke="#0f766e" stroke-width="3"/>
<text x="800" y="120" font-size="11" font-family="Arial, sans-serif" fill="#374151">trial-20260321-full40-puretf1</text>
<polyline points="125.55,350.10 127.20,365.55 128.85,369.07 130.50,364.33 132.15,367.71 133.80,370.00 135.45,357.63 137.10,366.75 138.75,366.88 140.41,366.05 140.41,364.41 142.06,367.26 143.71,361.82 145.36,368.92 147.01,366.90" fill="none" stroke="#c2410c" stroke-width="2.5"/>
<circle cx="147.01" cy="366.90" r="3.5" fill="#c2410c"/>
<line x1="776" y1="134" x2="794" y2="134" stroke="#c2410c" stroke-width="3"/>
<text x="800" y="138" font-size="11" font-family="Arial, sans-serif" fill="#374151">trial-20260321-full40-tf08-1</text>
<polyline points="125.55,367.59 127.20,368.69 128.85,369.23 130.50,361.65 132.15,368.50 133.80,363.64 135.45,366.23 137.10,364.15 138.75,368.79 140.41,361.91 140.41,366.04 142.06,364.37 143.71,364.64" fill="none" stroke="#4f46e5" stroke-width="2.5"/>
<circle cx="143.71" cy="364.64" r="3.5" fill="#4f46e5"/>
<line x1="776" y1="152" x2="794" y2="152" stroke="#4f46e5" stroke-width="3"/>
<text x="800" y="156" font-size="11" font-family="Arial, sans-serif" fill="#374151">trial-20260321-full40-tfmajority1</text>
<polyline points="125.55,81.75 127.20,79.18 128.85,336.35 130.50,81.40 132.15,79.48 133.80,204.25 135.45,339.48 137.10,64.55 138.75,88.55 140.41,69.79 140.41,142.48 142.06,80.93 143.71,85.10" fill="none" stroke="#2563eb" stroke-width="2.5"/>
<circle cx="143.71" cy="85.10" r="3.5" fill="#2563eb"/>
<line x1="776" y1="170" x2="794" y2="170" stroke="#2563eb" stroke-width="3"/>
<text x="800" y="174" font-size="11" font-family="Arial, sans-serif" fill="#374151">trial-20260321-stability1</text>
<polyline points="125.55,344.65 127.20,344.49 128.85,340.13 130.50,327.21 132.15,330.99 133.80,344.58 135.45,345.03 137.10,340.27 138.75,336.24 140.41,344.98 140.41,339.86 142.06,332.55 143.71,343.21 145.36,344.69 147.01,334.36 148.66,344.93 150.31,332.92 151.96,344.97 153.62,345.61 155.27,345.15 156.92,344.17 156.92,341.26 158.57,341.66 160.22,344.70 161.87,345.33 163.52,328.19 165.17,345.24 166.82,326.82 168.48,345.34 170.13,328.83 171.78,340.22 173.43,345.35 173.43,339.17 175.08,336.88 176.73,343.70 178.38,345.50 180.03,333.15 181.69,344.65 183.34,345.19" fill="none" stroke="#dc2626" stroke-width="2.5"/>
<circle cx="183.34" cy="345.19" r="3.5" fill="#dc2626"/>
<line x1="776" y1="188" x2="794" y2="188" stroke="#dc2626" stroke-width="3"/>
<text x="800" y="192" font-size="11" font-family="Arial, sans-serif" fill="#374151">trial-20260321-stability2</text>
<polyline points="125.55,342.22 127.20,339.08 128.85,330.25 130.50,335.92 132.15,342.47 133.80,345.27 135.45,343.02 137.10,321.78 138.75,336.79 140.41,343.32 140.41,338.01 142.06,345.20 143.71,345.35 145.36,345.43 147.01,345.48 148.66,345.10 150.31,345.20 151.96,345.27 153.62,344.68 155.27,345.61 156.92,344.98 156.92,345.23 158.57,344.27 160.22,332.84 161.87,337.67 163.52,337.14 165.17,342.64 166.82,336.83 168.48,344.96 170.13,335.13 171.78,336.94 173.43,345.56 173.43,339.40 175.08,342.20 176.73,344.99 178.38,337.67 180.03,344.61 181.69,345.28 183.34,343.76" fill="none" stroke="#059669" stroke-width="2.5"/>
<circle cx="183.34" cy="343.76" r="3.5" fill="#059669"/>
<line x1="776" y1="206" x2="794" y2="206" stroke="#059669" stroke-width="3"/>
<text x="800" y="210" font-size="11" font-family="Arial, sans-serif" fill="#374151">trial-20260321-stability3</text>
<polyline points="125.55,344.69 127.20,344.76 128.85,340.13 130.50,336.34 132.15,324.34 133.80,345.23 135.45,340.73 137.10,342.20 138.75,344.29 140.41,344.89 140.41,340.76 142.06,342.80 143.71,340.69 145.36,333.76 147.01,345.59 148.66,339.01 150.31,343.83 151.96,340.06 153.62,340.84 155.27,345.57 156.92,341.82 156.92,341.40 158.57,341.56 160.22,345.35 161.87,345.72 163.52,336.59 165.17,340.57 166.82,343.21 168.48,345.06 170.13,343.83 171.78,343.87 173.43,338.44 173.43,342.42 175.08,343.48 176.73,345.13 178.38,344.35 180.03,344.99 181.69,345.39 183.34,343.76" fill="none" stroke="#ea580c" stroke-width="2.5"/>
<circle cx="183.34" cy="343.76" r="3.5" fill="#ea580c"/>
<line x1="776" y1="224" x2="794" y2="224" stroke="#ea580c" stroke-width="3"/>
<text x="800" y="228" font-size="11" font-family="Arial, sans-serif" fill="#374151">trial-20260321-stability4</text>
<polyline points="125.55,357.29 127.20,368.39 128.85,359.23 130.50,364.05 132.15,361.91 133.80,365.55 135.45,367.85 137.10,364.35 138.75,362.52 140.41,360.44 140.41,363.16 142.06,363.59 143.71,365.34 145.36,368.64 147.01,361.43 148.66,360.70 150.31,366.42 151.96,368.78 153.62,366.71 155.27,361.09 156.92,368.95 156.92,365.16 158.57,364.49 160.22,369.30 161.87,365.31 163.52,366.11 165.17,365.03 166.82,367.46 168.48,368.75 170.13,343.80 171.78,361.60 173.43,360.35 173.43,363.22 175.08,362.94 176.73,369.06 178.38,371.24 180.03,367.02 181.69,368.35 183.34,367.86" fill="none" stroke="#7c3aed" stroke-width="2.5"/>
<circle cx="183.34" cy="367.86" r="3.5" fill="#7c3aed"/>
<line x1="776" y1="242" x2="794" y2="242" stroke="#7c3aed" stroke-width="3"/>
<text x="800" y="246" font-size="11" font-family="Arial, sans-serif" fill="#374151">trial-20260321-stability5</text>
</svg>