<svg xmlns="http://www.w3.org/2000/svg" width="980" height="460" viewBox="0 0 980 460">
<rect width="100%" height="100%" fill="#ffffff"/>
<text x="86" y="24" font-size="20" font-family="Arial, sans-serif" fill="#111827">Train Eval Stage 3 Accuracy</text>
<text x="86" y="442" font-size="12" font-family="Arial, sans-serif" fill="#4b5563">step / epoch</text>
<text x="18" y="52" font-size="12" font-family="Arial, sans-serif" fill="#4b5563" transform="rotate(-90 18 52)">train/stage3_acc</text>
<line x1="86" y1="396.00" x2="956" y2="396.00" stroke="#e5e7eb" stroke-width="1"/>
<text x="76" y="400.00" font-size="11" text-anchor="end" font-family="Arial, sans-serif" fill="#6b7280">-0.080000</text>
<line x1="86" y1="307.00" x2="956" y2="307.00" stroke="#e5e7eb" stroke-width="1"/>
<text x="76" y="311.00" font-size="11" text-anchor="end" font-family="Arial, sans-serif" fill="#6b7280">0.210000</text>
<line x1="86" y1="218.00" x2="956" y2="218.00" stroke="#e5e7eb" stroke-width="1"/>
<text x="76" y="222.00" font-size="11" text-anchor="end" font-family="Arial, sans-serif" fill="#6b7280">0.500000</text>
<line x1="86" y1="129.00" x2="956" y2="129.00" stroke="#e5e7eb" stroke-width="1"/>
<text x="76" y="133.00" font-size="11" text-anchor="end" font-family="Arial, sans-serif" fill="#6b7280">0.790000</text>
<line x1="86" y1="40.00" x2="956" y2="40.00" stroke="#e5e7eb" stroke-width="1"/>
<text x="76" y="44.00" font-size="11" text-anchor="end" font-family="Arial, sans-serif" fill="#6b7280">1.0800</text>
<line x1="86.00" y1="40" x2="86.00" y2="396" stroke="#f3f4f6" stroke-width="1"/>
<text x="86.00" y="420" font-size="11" text-anchor="middle" font-family="Arial, sans-serif" fill="#6b7280">-22.9500</text>
<line x1="260.00" y1="40" x2="260.00" y2="396" stroke="#f3f4f6" stroke-width="1"/>
<text x="260.00" y="420" font-size="11" text-anchor="middle" font-family="Arial, sans-serif" fill="#6b7280">82.4300</text>
<line x1="434.00" y1="40" x2="434.00" y2="396" stroke="#f3f4f6" stroke-width="1"/>
<text x="434.00" y="420" font-size="11" text-anchor="middle" font-family="Arial, sans-serif" fill="#6b7280">187.81</text>
<line x1="608.00" y1="40" x2="608.00" y2="396" stroke="#f3f4f6" stroke-width="1"/>
<text x="608.00" y="420" font-size="11" text-anchor="middle" font-family="Arial, sans-serif" fill="#6b7280">293.19</text>
<line x1="782.00" y1="40" x2="782.00" y2="396" stroke="#f3f4f6" stroke-width="1"/>
<text x="782.00" y="420" font-size="11" text-anchor="middle" font-family="Arial, sans-serif" fill="#6b7280">398.57</text>
<line x1="956.00" y1="40" x2="956.00" y2="396" stroke="#f3f4f6" stroke-width="1"/>
<text x="956.00" y="420" font-size="11" text-anchor="middle" font-family="Arial, sans-serif" fill="#6b7280">503.95</text>
<rect x="86" y="40" width="870" height="356" fill="none" stroke="#d1d5db" stroke-width="1"/>
<polyline points="916.45,262.91" fill="none" stroke="#2563eb" stroke-width="2.5"/>
<circle cx="916.45" cy="262.91" r="3.5" fill="#2563eb"/>
<line x1="776" y1="26" x2="794" y2="26" stroke="#2563eb" stroke-width="3"/>
<text x="800" y="30" font-size="11" font-family="Arial, sans-serif" fill="#374151">trial-20260321-cleandata1</text>
<polyline points="125.55,269.15 127.20,269.15 128.85,269.15 130.50,371.45 132.15,269.15 133.80,64.55 135.45,269.15 137.10,269.15 138.75,269.15 140.41,269.15 140.41,258.92 142.06,269.15 143.71,166.85 145.36,269.15 147.01,269.15 148.66,269.15 150.31,269.15 151.96,371.45 153.62,371.45 155.27,269.15 156.92,269.15 156.92,279.38 158.57,269.15 160.22,269.15 161.87,269.15 163.52,269.15 165.17,269.15 166.82,269.15 168.48,269.15 170.13,166.85 171.78,371.45 173.43,269.15 173.43,269.15 175.08,269.15 176.73,269.15 178.38,269.15 180.03,269.15 181.69,269.15 183.34,269.15 184.99,269.15 186.64,269.15 188.29,269.15 189.94,269.15 189.94,269.15 191.59,269.15 193.24,166.85 194.89,269.15 196.55,269.15 198.20,269.15 199.85,269.15 201.50,269.15 203.15,269.15 204.80,269.15 206.45,269.15 206.45,258.92 208.10,269.15 209.75,269.15 211.41,269.15 213.06,269.15 214.71,371.45 216.36,269.15 218.01,269.15 219.66,166.85 221.31,269.15 222.96,269.15 222.96,269.15 224.62,166.85 226.27,269.15 227.92,269.15 229.57,166.85 231.22,166.85 232.87,269.15 234.52,64.55 236.17,269.15 237.82,269.15 239.48,269.15 239.48,218.00 241.13,166.85 242.78,166.85 244.43,269.15 246.08,269.15 247.73,371.45 249.38,269.15 251.03,166.85 252.69,269.15 254.34,166.85 255.99,166.85 255.99,228.23 257.64,166.85 259.29,269.15 260.94,166.85 262.59,269.15 264.24,166.85 265.89,269.15 267.55,269.15 269.20,269.15 270.85,269.15 272.50,166.85 272.50,228.23 274.15,166.85 275.80,269.15 277.45,269.15 279.10,269.15" fill="none" stroke="#dc2626" stroke-width="2.5"/>
<circle cx="279.10" cy="269.15" r="3.5" fill="#dc2626"/>
<line x1="776" y1="44" x2="794" y2="44" stroke="#dc2626" stroke-width="3"/>
<text x="800" y="48" font-size="11" font-family="Arial, sans-serif" fill="#374151">trial-20260321-full3</text>
<polyline points="183.34,365.83" fill="none" stroke="#059669" stroke-width="2.5"/>
<circle cx="183.34" cy="365.83" r="3.5" fill="#059669"/>
<line x1="776" y1="62" x2="794" y2="62" stroke="#059669" stroke-width="3"/>
<text x="800" y="66" font-size="11" font-family="Arial, sans-serif" fill="#374151">trial-20260321-stability3</text>
<polyline points="183.34,328.41" fill="none" stroke="#ea580c" stroke-width="2.5"/>
<circle cx="183.34" cy="328.41" r="3.5" fill="#ea580c"/>
<line x1="776" y1="80" x2="794" y2="80" stroke="#ea580c" stroke-width="3"/>
<text x="800" y="84" font-size="11" font-family="Arial, sans-serif" fill="#374151">trial-20260321-stability5</text>
</svg>