<svg xmlns="http://www.w3.org/2000/svg" width="980" height="460" viewBox="0 0 980 460">
<rect width="100%" height="100%" fill="#ffffff"/>
<text x="86" y="24" font-size="20" font-family="Arial, sans-serif" fill="#111827">Training Throughput</text>
<text x="86" y="442" font-size="12" font-family="Arial, sans-serif" fill="#4b5563">step / epoch</text>
<text x="18" y="52" font-size="12" font-family="Arial, sans-serif" fill="#4b5563" transform="rotate(-90 18 52)">train_step/samples_per_sec</text>
<line x1="86" y1="396.00" x2="956" y2="396.00" stroke="#e5e7eb" stroke-width="1"/>
<text x="76" y="400.00" font-size="11" text-anchor="end" font-family="Arial, sans-serif" fill="#6b7280">-0.445106</text>
<line x1="86" y1="307.00" x2="956" y2="307.00" stroke="#e5e7eb" stroke-width="1"/>
<text x="76" y="311.00" font-size="11" text-anchor="end" font-family="Arial, sans-serif" fill="#6b7280">2.0233</text>
<line x1="86" y1="218.00" x2="956" y2="218.00" stroke="#e5e7eb" stroke-width="1"/>
<text x="76" y="222.00" font-size="11" text-anchor="end" font-family="Arial, sans-serif" fill="#6b7280">4.4917</text>
<line x1="86" y1="129.00" x2="956" y2="129.00" stroke="#e5e7eb" stroke-width="1"/>
<text x="76" y="133.00" font-size="11" text-anchor="end" font-family="Arial, sans-serif" fill="#6b7280">6.9600</text>
<line x1="86" y1="40.00" x2="956" y2="40.00" stroke="#e5e7eb" stroke-width="1"/>
<text x="76" y="44.00" font-size="11" text-anchor="end" font-family="Arial, sans-serif" fill="#6b7280">9.4284</text>
<line x1="86.00" y1="40" x2="86.00" y2="396" stroke="#f3f4f6" stroke-width="1"/>
<text x="86.00" y="420" font-size="11" text-anchor="middle" font-family="Arial, sans-serif" fill="#6b7280">-22.9500</text>
<line x1="260.00" y1="40" x2="260.00" y2="396" stroke="#f3f4f6" stroke-width="1"/>
<text x="260.00" y="420" font-size="11" text-anchor="middle" font-family="Arial, sans-serif" fill="#6b7280">82.4300</text>
<line x1="434.00" y1="40" x2="434.00" y2="396" stroke="#f3f4f6" stroke-width="1"/>
<text x="434.00" y="420" font-size="11" text-anchor="middle" font-family="Arial, sans-serif" fill="#6b7280">187.81</text>
<line x1="608.00" y1="40" x2="608.00" y2="396" stroke="#f3f4f6" stroke-width="1"/>
<text x="608.00" y="420" font-size="11" text-anchor="middle" font-family="Arial, sans-serif" fill="#6b7280">293.19</text>
<line x1="782.00" y1="40" x2="782.00" y2="396" stroke="#f3f4f6" stroke-width="1"/>
<text x="782.00" y="420" font-size="11" text-anchor="middle" font-family="Arial, sans-serif" fill="#6b7280">398.57</text>
<line x1="956.00" y1="40" x2="956.00" y2="396" stroke="#f3f4f6" stroke-width="1"/>
<text x="956.00" y="420" font-size="11" text-anchor="middle" font-family="Arial, sans-serif" fill="#6b7280">503.95</text>
<rect x="86" y="40" width="870" height="356" fill="none" stroke="#d1d5db" stroke-width="1"/>
<polyline points="125.55,96.41 127.20,178.61 128.85,88.63 130.50,156.66 132.15,83.53 133.80,165.56 135.45,91.86 137.10,94.18 138.75,75.02 140.41,72.61 140.41,110.31 142.06,152.90 143.71,194.90 145.36,87.48 147.01,93.48 148.66,159.98 150.31,95.51 151.96,151.85 153.62,110.07 155.27,152.43 156.92,88.68 156.92,128.73 158.57,86.19 160.22,144.11 161.87,78.50 163.52,188.83 165.17,88.40 166.82,154.28 168.48,81.97 170.13,146.31 171.78,88.66 173.43,93.54 173.43,115.08 175.08,153.94 176.73,94.17 178.38,154.81 180.03,72.66 181.69,68.26 183.34,187.57 184.99,106.89 186.64,162.50 188.29,92.76 189.94,162.38 189.94,125.59 191.59,107.50 193.24,90.84 194.89,165.51 196.55,99.70 198.20,94.60 199.85,80.75 201.50,72.55 203.15,232.09 204.80,87.87 206.45,163.66 206.45,119.51 208.10,89.59 209.75,84.94 211.41,149.71 213.06,88.81 214.71,161.07 216.36,90.56 218.01,98.01 219.66,173.33 221.31,77.29 222.96,188.29 222.96,120.16 224.62,162.83 226.27,90.29 227.92,162.78 229.57,86.20 231.22,82.68 232.87,156.94 234.52,88.24 236.17,79.36 237.82,170.99 239.48,77.95 239.48,115.83 241.13,79.65 242.78,244.18 244.43,81.59 246.08,160.00 247.73,84.46 249.38,88.67 251.03,166.08 252.69,92.19 254.34,113.67 255.99,149.51 255.99,126.00 257.64,108.21 259.29,73.04 260.94,150.66 262.59,189.61 264.24,155.48 265.89,86.38 267.55,84.75 269.20,83.06 270.85,94.12 272.50,80.97 272.50,110.63 274.15,151.20 275.80,90.43 277.45,99.81 279.10,149.46 280.76,80.43 282.41,186.93 284.06,98.45 285.71,100.53 287.36,163.40 289.01,83.03 289.01,120.37 290.66,90.25 292.31,165.72 293.96,88.76 295.62,90.48 297.27,160.36 298.92,80.37 300.57,85.84 302.22,235.27 303.87,120.11 305.52,182.16 305.52,129.93 307.17,96.98 308.83,87.53 310.48,153.69 312.13,121.76 313.78,93.02 315.43,162.60 317.08,87.58 318.73,84.44 320.38,161.16 322.03,188.35 322.03,123.71 323.69,109.57 325.34,89.84 326.99,102.94 328.64,166.46 330.29,91.33 331.94,94.34 333.59,155.69 335.24,101.79 336.89,98.49 338.55,87.54 338.55,109.80 340.20,69.20 341.85,234.49 343.50,102.46 345.15,92.66 346.80,153.22 348.45,96.08 350.10,93.85 351.76,155.90 353.41,94.42 355.06,88.23 355.06,118.05 356.71,95.41 358.36,81.65 360.01,81.38 361.66,187.76 363.31,100.70 364.96,160.56 366.62,103.94 368.27,87.62 369.92,159.79 371.57,89.47 371.57,114.83 373.22,99.59 374.87,86.71 376.52,85.16 378.17,157.60 379.83,86.79 381.48,240.96 383.13,92.57 384.78,84.47 386.43,148.33 388.08,89.86 388.08,117.21 389.73,79.20 391.38,147.69 393.03,83.07 394.69,92.07 396.34,149.87 397.99,74.28 399.64,68.77 401.29,191.95 402.94,99.71 404.59,162.90 404.59,114.95 406.24,90.39 407.90,105.34 409.55,180.06 411.20,81.48 412.85,92.38 414.50,159.19 416.15,86.00 417.80,79.99 419.45,164.29 421.10,193.66 421.10,123.28 422.76,125.10 424.41,94.25 426.06,105.03 427.71,168.09 429.36,82.20 431.01,86.09 432.66,161.06 434.31,90.76 435.96,91.52 437.62,135.97 437.62,114.01 439.27,67.46 440.92,187.73 442.57,146.65 444.22,101.09 445.87,182.72 447.52,87.85 449.17,82.47 450.83,167.84 452.48,96.21 454.13,166.71 454.13,128.67 455.78,167.39 457.43,102.44 459.08,83.68 460.73,250.15 462.38,179.12 464.03,233.93 465.69,85.20 467.34,95.03 468.99,150.38 470.64,109.13 470.64,145.65 472.29,86.21 473.94,170.99 475.59,98.34 477.24,93.43 478.90,152.10 480.55,189.34 482.20,154.84 483.85,79.68 485.50,94.16 487.15,156.44 487.15,127.55 488.80,106.79 490.45,94.39 492.10,157.03 493.76,94.70 495.41,88.63 497.06,134.55 498.71,71.40 500.36,196.33 502.01,124.86 503.66,77.67 503.66,114.64 505.31,172.47 506.97,80.97 508.62,83.94 510.27,163.30 511.92,87.41 513.57,92.95 515.22,170.73 516.87,101.20 518.52,85.00 520.17,195.35 520.17,123.33 521.83,99.13 523.48,81.31 525.13,94.73 526.78,92.14 528.43,84.70 530.08,96.93 531.73,154.23 533.38,105.36 535.03,146.07 536.69,159.74 536.69,111.43 538.34,91.90 539.99,247.62 541.64,72.94 543.29,76.02 544.94,116.62 546.59,144.85 548.24,80.73 549.90,99.56 551.55,99.80 553.20,180.05 553.20,121.01 554.85,81.24 556.50,109.71 558.15,157.89 559.80,186.69 561.45,84.53 563.10,103.48 564.76,96.60 566.41,175.42 568.06,82.12 569.71,83.67 569.71,116.14 571.36,174.53 573.01,93.28 574.66,86.94 576.31,263.67 577.97,213.64 579.62,254.65 581.27,87.35 582.92,90.07 584.57,157.29 586.22,89.07 586.22,151.05 587.87,90.10 589.52,197.65 591.17,114.11 592.83,96.53 594.48,167.75 596.13,77.30 597.78,71.96 599.43,240.94 601.08,163.60 602.73,151.75 602.73,137.17 604.38,144.76 606.04,86.14 607.69,90.56 609.34,165.49 610.99,82.66 612.64,90.42 614.29,154.24 615.94,66.56 617.59,65.39 619.24,188.03 619.24,113.43 620.90,88.65 622.55,146.63 624.20,92.49 625.85,119.15 627.50,95.92 629.15,91.02 630.80,97.48 632.45,162.06 634.10,82.52 635.76,85.29 635.76,106.12 637.41,72.00 639.06,194.67 640.71,163.84 642.36,88.23 644.01,97.27 645.66,164.31 647.31,95.67 648.97,161.12 650.62,98.17 652.27,90.85 652.27,122.61 653.92,172.83 655.57,66.26 657.22,71.79 658.87,252.62 660.52,92.68 662.17,153.16 663.83,82.61 665.48,102.13 667.13,166.22 668.78,81.33 668.78,124.16 670.43,101.30 672.08,153.29 673.73,81.81 675.38,152.79 677.04,64.55 678.69,188.61 680.34,186.59 681.99,107.24 683.64,85.26 685.29,141.71 685.29,126.32 686.94,82.90 688.59,91.22 690.24,81.02 691.90,90.62 693.55,151.57 695.20,65.96 696.85,72.27 698.50,233.87 700.15,82.22 701.80,81.60 701.80,103.33 703.45,101.85 705.11,87.01 706.76,157.67 708.41,96.94 710.06,88.98 711.71,150.84 713.36,84.39 715.01,68.35 716.66,147.58 718.31,195.83 718.31,117.95 719.97,171.23 721.62,104.22 723.27,86.02 724.92,170.93 726.57,98.73 728.22,157.75 729.87,132.70 731.52,100.04 733.17,182.90 734.83,75.46 734.83,128.00 736.48,67.38 738.13,200.19 739.78,138.60 741.43,213.71 743.08,94.89 744.73,116.72 746.38,166.83 748.04,87.50 749.69,89.96 751.34,143.04 751.34,131.88 752.99,83.91 754.64,90.29 756.29,131.61 757.94,198.70 759.59,145.75 761.24,95.54 762.90,101.91 764.55,150.92 766.20,89.97 767.85,78.46 767.85,116.71 769.50,79.08 771.15,97.46 772.80,91.09 774.45,72.40 776.11,195.54 777.76,235.39 779.41,74.84 781.06,109.69 782.71,93.99 784.36,89.12 784.36,113.86 786.01,158.88 787.66,91.01 789.31,116.16 790.97,163.75 792.62,87.18 794.27,78.21 795.92,162.30 797.57,191.52 799.22,89.23 800.87,154.39 800.87,129.26 802.52,91.95 804.18,174.97 805.83,85.19 807.48,100.71 809.13,157.97 810.78,91.28 812.43,103.04 814.08,133.09 815.73,78.75 817.38,243.61 817.38,126.06 819.04,84.55 820.69,108.11 822.34,166.64 823.99,96.30 825.64,92.69 827.29,160.57 828.94,184.23 830.59,87.18 832.25,168.56 833.90,112.03 833.90,126.09 835.55,73.97 837.20,184.55 838.85,92.91 840.50,165.65 842.15,95.81 843.80,83.71 845.45,165.09 847.11,92.25 848.76,118.58 850.41,165.05 850.41,123.76 852.06,73.71 853.71,66.64 855.36,158.92 857.01,187.72 858.66,150.15 860.31,87.95 861.97,100.53 863.62,189.92 865.27,98.11 866.92,78.03 866.92,119.17 868.57,163.13 870.22,72.71 871.87,81.48 873.52,144.73 875.18,72.11 876.83,236.31 878.48,82.51 880.13,78.29 881.78,184.61 883.43,85.64 883.43,120.15 885.08,93.85 886.73,163.70 888.38,93.77 890.04,99.71 891.69,156.18 893.34,66.45 894.99,68.06 896.64,235.65 898.29,85.88 899.94,91.39 899.94,115.46 901.59,77.48 903.25,78.93 904.90,88.02 906.55,73.24 908.20,91.06 909.85,171.53 911.50,100.16 913.15,79.61 914.80,174.24 916.45,195.28 916.45,112.96" fill="none" stroke="#2563eb" stroke-width="2.5"/>
<circle cx="916.45" cy="112.96" r="3.5" fill="#2563eb"/>
<line x1="776" y1="26" x2="794" y2="26" stroke="#2563eb" stroke-width="3"/>
<text x="800" y="30" font-size="11" font-family="Arial, sans-serif" fill="#374151">trial-20260321-cleandata1</text>
<polyline points="125.55,135.87 127.20,181.11 128.85,117.51 130.50,163.63 132.15,114.16" fill="none" stroke="#dc2626" stroke-width="2.5"/>
<circle cx="132.15" cy="114.16" r="3.5" fill="#dc2626"/>
<line x1="776" y1="44" x2="794" y2="44" stroke="#dc2626" stroke-width="3"/>
<text x="800" y="48" font-size="11" font-family="Arial, sans-serif" fill="#374151">trial-20260321-converge5</text>
<polyline points="125.55,133.28" fill="none" stroke="#059669" stroke-width="2.5"/>
<circle cx="125.55" cy="133.28" r="3.5" fill="#059669"/>
<line x1="776" y1="62" x2="794" y2="62" stroke="#059669" stroke-width="3"/>
<text x="800" y="66" font-size="11" font-family="Arial, sans-serif" fill="#374151">trial-20260321-converge6</text>
<polyline points="125.55,142.93 127.20,166.52 128.85,107.83 130.50,161.87 132.15,108.74 133.80,172.18 135.45,104.21 137.10,166.07 138.75,122.86 140.41,158.81 140.41,141.20 142.06,97.12 143.71,240.76 145.36,107.03 147.01,178.02 148.66,104.51 150.31,167.21 151.96,102.85 153.62,165.08 155.27,103.01 156.92,157.38 156.92,142.30 158.57,109.22 160.22,165.83 161.87,110.17 163.52,243.14 165.17,117.79 166.82,170.13 168.48,110.71 170.13,118.51 171.78,108.68 173.43,111.50 173.43,136.57 175.08,164.08 176.73,104.08 178.38,161.51 180.03,101.54 181.69,101.97 183.34,205.30 184.99,177.89 186.64,107.42 188.29,107.34 189.94,101.18 189.94,133.23 191.59,112.36 193.24,181.05 194.89,115.04" fill="none" stroke="#ea580c" stroke-width="2.5"/>
<circle cx="194.89" cy="115.04" r="3.5" fill="#ea580c"/>
<line x1="776" y1="80" x2="794" y2="80" stroke="#ea580c" stroke-width="3"/>
<text x="800" y="84" font-size="11" font-family="Arial, sans-serif" fill="#374151">trial-20260321-converge7</text>
<polyline points="125.55,115.11 127.20,151.31 128.85,85.28 130.50,166.54 132.15,87.78 133.80,154.49 135.45,87.08 137.10,144.47 138.75,89.91 140.41,141.16 140.41,122.31 142.06,97.98 143.71,231.04 145.36,95.97 147.01,170.65 148.66,82.23 150.31,162.58 151.96,86.78 153.62,154.89 155.27,102.41 156.92,80.21 156.92,126.47 158.57,109.45 160.22,111.13 161.87,167.32 163.52,187.32 165.17,143.02 166.82,82.82 168.48,161.74 170.13,89.26 171.78,79.53 173.43,88.69 173.43,122.03 175.08,93.77 176.73,158.17 178.38,95.14 180.03,164.89 181.69,67.82 183.34,184.77 184.99,371.06 186.64,371.28 188.29,371.06 189.94,371.45 189.94,224.94" fill="none" stroke="#7c3aed" stroke-width="2.5"/>
<circle cx="189.94" cy="224.94" r="3.5" fill="#7c3aed"/>
<line x1="776" y1="98" x2="794" y2="98" stroke="#7c3aed" stroke-width="3"/>
<text x="800" y="102" font-size="11" font-family="Arial, sans-serif" fill="#374151">trial-20260321-full40-crossent1</text>
<polyline points="125.55,128.82 127.20,177.69 128.85,92.25 130.50,151.88 132.15,93.10 133.80,164.58 135.45,81.92 137.10,162.65 138.75,105.29 140.41,210.09 140.41,136.83 142.06,88.22 143.71,240.87 145.36,94.85 147.01,154.97 148.66,118.13 150.31,82.81 151.96,97.98 153.62,98.81 155.27,111.56 156.92,87.02 156.92,117.52 158.57,142.34 160.22,71.75 161.87,143.41 163.52,183.56 165.17,89.17 166.82,100.29 168.48,76.07 170.13,93.68 171.78,75.50 173.43,164.43 173.43,114.02 175.08,94.01 176.73,86.09 178.38,98.77 180.03,84.83 181.69,143.16 183.34,195.91 184.99,181.58 186.64,90.52 188.29,92.10 189.94,173.11 189.94,124.01 191.59,81.44 193.24,103.76 194.89,146.81 196.55,115.09 198.20,172.28 199.85,74.44 201.50,113.26 203.15,223.48 204.80,87.60 206.45,159.75 206.45,127.79 208.10,95.14 209.75,109.03 211.41,166.98 213.06,99.24 214.71,85.15 216.36,174.85 218.01,81.12 219.66,73.70 221.31,140.94 222.96,189.52 222.96,121.56 224.62,155.98 226.27,107.71 227.92,93.82 229.57,167.75 231.22,102.86 232.87,102.36 234.52,153.96 236.17,86.09 237.82,90.65 239.48,143.10 239.48,120.43 241.13,68.71 242.78,239.71 244.43,85.97 246.08,126.96 247.73,184.58 249.38,95.29 251.03,97.71 252.69,202.45 254.34,99.54 255.99,85.08 255.99,128.60 257.64,160.34 259.29,93.72 260.94,107.42 262.59,193.94 264.24,111.83 265.89,169.24 267.55,98.17 269.20,93.67" fill="none" stroke="#0f766e" stroke-width="2.5"/>
<circle cx="269.20" cy="93.67" r="3.5" fill="#0f766e"/>
<line x1="776" y1="116" x2="794" y2="116" stroke="#0f766e" stroke-width="3"/>
<text x="800" y="120" font-size="11" font-family="Arial, sans-serif" fill="#374151">trial-20260321-full40-puretf1</text>
<polyline points="125.55,96.98 127.20,206.44 128.85,165.26 130.50,72.02 132.15,88.99 133.80,86.56 135.45,371.10 137.10,106.96 138.75,165.77 140.41,371.11 140.41,173.12 142.06,139.47 143.71,184.44 145.36,87.58 147.01,370.93" fill="none" stroke="#c2410c" stroke-width="2.5"/>
<circle cx="147.01" cy="370.93" r="3.5" fill="#c2410c"/>
<line x1="776" y1="134" x2="794" y2="134" stroke="#c2410c" stroke-width="3"/>
<text x="800" y="138" font-size="11" font-family="Arial, sans-serif" fill="#374151">trial-20260321-full40-tf08-1</text>
<polyline points="125.55,104.90 127.20,169.57 128.85,102.86 130.50,142.08 132.15,97.22 133.80,183.56 135.45,120.23 137.10,187.22 138.75,102.33 140.41,159.28 140.41,136.92 142.06,84.72 143.71,191.75" fill="none" stroke="#4f46e5" stroke-width="2.5"/>
<circle cx="143.71" cy="191.75" r="3.5" fill="#4f46e5"/>
<line x1="776" y1="152" x2="794" y2="152" stroke="#4f46e5" stroke-width="3"/>
<text x="800" y="156" font-size="11" font-family="Arial, sans-serif" fill="#374151">trial-20260321-full40-tfmajority1</text>
<polyline points="125.55,108.85 127.20,138.44 128.85,96.07 130.50,71.93 132.15,89.13 133.80,184.90 135.45,74.51 137.10,85.91 138.75,85.82 140.41,70.84 140.41,100.64 142.06,75.31 143.71,184.68" fill="none" stroke="#2563eb" stroke-width="2.5"/>
<circle cx="143.71" cy="184.68" r="3.5" fill="#2563eb"/>
<line x1="776" y1="170" x2="794" y2="170" stroke="#2563eb" stroke-width="3"/>
<text x="800" y="174" font-size="11" font-family="Arial, sans-serif" fill="#374151">trial-20260321-stability1</text>
<polyline points="125.55,89.82 127.20,124.72 128.85,88.70 130.50,181.82 132.15,100.74 133.80,158.89 135.45,99.35 137.10,91.99 138.75,149.29 140.41,86.78 140.41,117.21 142.06,78.11 143.71,196.70 145.36,73.13 147.01,71.24 148.66,77.19 150.31,178.18 151.96,95.98 153.62,159.09 155.27,82.13 156.92,165.71 156.92,117.74 158.57,98.20 160.22,76.01 161.87,88.53 163.52,195.57 165.17,99.04 166.82,101.14 168.48,103.62 170.13,96.68 171.78,98.20 173.43,131.83 173.43,108.88 175.08,136.62 176.73,99.33 178.38,146.55 180.03,78.78 181.69,155.43 183.34,191.03" fill="none" stroke="#dc2626" stroke-width="2.5"/>
<circle cx="183.34" cy="191.03" r="3.5" fill="#dc2626"/>
<line x1="776" y1="188" x2="794" y2="188" stroke="#dc2626" stroke-width="3"/>
<text x="800" y="192" font-size="11" font-family="Arial, sans-serif" fill="#374151">trial-20260321-stability2</text>
<polyline points="125.55,104.65 127.20,150.58 128.85,83.61 130.50,150.17 132.15,90.22 133.80,142.88 135.45,82.55 137.10,165.30 138.75,94.83 140.41,150.26 140.41,121.51 142.06,76.62 143.71,234.67 145.36,103.46 147.01,87.27 148.66,91.24 150.31,172.57 151.96,95.41 153.62,151.92 155.27,117.64 156.92,239.64 156.92,137.04 158.57,80.02 160.22,159.33 161.87,82.76 163.52,241.03 165.17,79.28 166.82,163.28 168.48,83.35 170.13,168.31 171.78,97.45 173.43,154.75 173.43,130.96 175.08,81.07 176.73,86.65 178.38,115.64 180.03,69.85 181.69,144.95 183.34,204.46" fill="none" stroke="#059669" stroke-width="2.5"/>
<circle cx="183.34" cy="204.46" r="3.5" fill="#059669"/>
<line x1="776" y1="206" x2="794" y2="206" stroke="#059669" stroke-width="3"/>
<text x="800" y="210" font-size="11" font-family="Arial, sans-serif" fill="#374151">trial-20260321-stability3</text>
<polyline points="125.55,114.76 127.20,160.14 128.85,76.24 130.50,173.12 132.15,77.90 133.80,154.06 135.45,82.43 137.10,171.43 138.75,78.59 140.41,157.43 140.41,124.61 142.06,90.42 143.71,220.68 145.36,86.23 147.01,155.23 148.66,86.45 150.31,169.48 151.96,105.37 153.62,102.73 155.27,94.38 156.92,82.59 156.92,119.36 158.57,175.41 160.22,79.18 161.87,146.91 163.52,189.13 165.17,172.50 166.82,82.25 168.48,222.47 170.13,81.02 171.78,88.72 173.43,140.36 173.43,137.79 175.08,98.44 176.73,146.16 178.38,100.65 180.03,160.83 181.69,73.67 183.34,187.46" fill="none" stroke="#ea580c" stroke-width="2.5"/>
<circle cx="183.34" cy="187.46" r="3.5" fill="#ea580c"/>
<line x1="776" y1="224" x2="794" y2="224" stroke="#ea580c" stroke-width="3"/>
<text x="800" y="228" font-size="11" font-family="Arial, sans-serif" fill="#374151">trial-20260321-stability4</text>
<polyline points="125.55,111.77 127.20,163.39 128.85,158.94 130.50,176.72 132.15,131.74 133.80,267.26 135.45,191.34 137.10,203.93 138.75,190.73 140.41,151.87 140.41,174.77 142.06,94.27 143.71,235.04 145.36,167.25 147.01,233.35 148.66,104.47 150.31,173.14 151.96,134.94 153.62,231.53 155.27,174.94 156.92,93.65 156.92,164.26 158.57,90.44 160.22,77.77 161.87,81.46 163.52,189.55 165.17,107.49 166.82,101.07 168.48,176.68 170.13,80.31 171.78,89.87 173.43,92.74 173.43,108.74 175.08,102.07 176.73,158.03 178.38,73.42 180.03,149.05 181.69,67.74 183.34,234.21" fill="none" stroke="#7c3aed" stroke-width="2.5"/>
<circle cx="183.34" cy="234.21" r="3.5" fill="#7c3aed"/>
<line x1="776" y1="242" x2="794" y2="242" stroke="#7c3aed" stroke-width="3"/>
<text x="800" y="246" font-size="11" font-family="Arial, sans-serif" fill="#374151">trial-20260321-stability5</text>
</svg>