<svg xmlns="http://www.w3.org/2000/svg" width="980" height="460" viewBox="0 0 980 460">
<rect width="100%" height="100%" fill="#ffffff"/>
<text x="86" y="24" font-size="20" font-family="Arial, sans-serif" fill="#111827">Training Throughput</text>
<text x="86" y="442" font-size="12" font-family="Arial, sans-serif" fill="#4b5563">step / epoch</text>
<text x="18" y="52" font-size="12" font-family="Arial, sans-serif" fill="#4b5563" transform="rotate(-90 18 52)">train_step/samples_per_sec</text>
<line x1="86" y1="396.00" x2="956" y2="396.00" stroke="#e5e7eb" stroke-width="1"/>
<text x="76" y="400.00" font-size="11" text-anchor="end" font-family="Arial, sans-serif" fill="#6b7280">2.7833</text>
<line x1="86" y1="307.00" x2="956" y2="307.00" stroke="#e5e7eb" stroke-width="1"/>
<text x="76" y="311.00" font-size="11" text-anchor="end" font-family="Arial, sans-serif" fill="#6b7280">4.3848</text>
<line x1="86" y1="218.00" x2="956" y2="218.00" stroke="#e5e7eb" stroke-width="1"/>
<text x="76" y="222.00" font-size="11" text-anchor="end" font-family="Arial, sans-serif" fill="#6b7280">5.9863</text>
<line x1="86" y1="129.00" x2="956" y2="129.00" stroke="#e5e7eb" stroke-width="1"/>
<text x="76" y="133.00" font-size="11" text-anchor="end" font-family="Arial, sans-serif" fill="#6b7280">7.5878</text>
<line x1="86" y1="40.00" x2="956" y2="40.00" stroke="#e5e7eb" stroke-width="1"/>
<text x="76" y="44.00" font-size="11" text-anchor="end" font-family="Arial, sans-serif" fill="#6b7280">9.1893</text>
<line x1="86.00" y1="40" x2="86.00" y2="396" stroke="#f3f4f6" stroke-width="1"/>
<text x="86.00" y="420" font-size="11" text-anchor="middle" font-family="Arial, sans-serif" fill="#6b7280">-22.9500</text>
<line x1="260.00" y1="40" x2="260.00" y2="396" stroke="#f3f4f6" stroke-width="1"/>
<text x="260.00" y="420" font-size="11" text-anchor="middle" font-family="Arial, sans-serif" fill="#6b7280">82.4300</text>
<line x1="434.00" y1="40" x2="434.00" y2="396" stroke="#f3f4f6" stroke-width="1"/>
<text x="434.00" y="420" font-size="11" text-anchor="middle" font-family="Arial, sans-serif" fill="#6b7280">187.81</text>
<line x1="608.00" y1="40" x2="608.00" y2="396" stroke="#f3f4f6" stroke-width="1"/>
<text x="608.00" y="420" font-size="11" text-anchor="middle" font-family="Arial, sans-serif" fill="#6b7280">293.19</text>
<line x1="782.00" y1="40" x2="782.00" y2="396" stroke="#f3f4f6" stroke-width="1"/>
<text x="782.00" y="420" font-size="11" text-anchor="middle" font-family="Arial, sans-serif" fill="#6b7280">398.57</text>
<line x1="956.00" y1="40" x2="956.00" y2="396" stroke="#f3f4f6" stroke-width="1"/>
<text x="956.00" y="420" font-size="11" text-anchor="middle" font-family="Arial, sans-serif" fill="#6b7280">503.95</text>
<rect x="86" y="40" width="870" height="356" fill="none" stroke="#d1d5db" stroke-width="1"/>
<polyline points="125.55,113.65 127.20,240.36 128.85,101.66 130.50,206.51 132.15,93.80 133.80,220.23 135.45,106.64 137.10,110.22 138.75,80.68 140.41,76.97 140.41,135.07 142.06,200.72 143.71,265.46 145.36,99.89 147.01,109.14 148.66,211.63 150.31,112.26 151.96,199.11 153.62,134.71 155.27,200.00 156.92,101.74 156.92,163.47 158.57,97.90 160.22,187.18 161.87,86.05 163.52,256.10 165.17,101.31 166.82,202.85 168.48,91.40 170.13,190.57 171.78,101.71 173.43,109.24 173.43,142.43 175.08,202.33 176.73,110.20 178.38,203.67 180.03,77.05 181.69,70.26 183.34,254.15 184.99,129.81 186.64,215.53 188.29,108.03 189.94,215.33 189.94,158.64 191.59,130.75 193.24,105.06 194.89,220.15 196.55,118.72 198.20,110.87 199.85,89.51 201.50,76.88 203.15,322.77 204.80,100.49 206.45,217.31 206.45,149.25 208.10,103.15 209.75,95.98 211.41,195.80 213.06,101.94 214.71,213.32 216.36,104.63 218.01,116.12 219.66,232.21 221.31,84.19 222.96,255.27 222.96,150.26 224.62,216.02 226.27,104.22 227.92,215.94 229.57,97.93 231.22,92.50 232.87,206.94 234.52,101.06 236.17,87.38 237.82,228.61 239.48,85.20 239.48,143.58 241.13,87.82 242.78,341.42 244.43,90.82 246.08,211.67 247.73,95.23 249.38,101.72 251.03,221.04 252.69,107.15 254.34,140.26 255.99,195.50 255.99,159.26 257.64,131.85 259.29,77.63 260.94,197.27 262.59,257.30 264.24,204.70 265.89,98.19 267.55,95.68 269.20,93.08 270.85,110.13 272.50,89.86 272.50,135.57 274.15,198.10 275.80,104.44 277.45,118.90 279.10,195.42 280.76,89.03 282.41,253.16 284.06,116.80 285.71,120.01 287.36,216.91 289.01,93.03 289.01,150.58 290.66,104.17 292.31,220.48 293.96,101.86 295.62,104.51 297.27,212.22 298.92,88.93 300.57,97.36 302.22,327.68 303.87,150.19 305.52,245.82 305.52,165.32 307.17,114.53 308.83,99.96 310.48,201.94 312.13,152.72 313.78,108.43 315.43,215.67 317.08,100.05 318.73,95.20 320.38,213.45 322.03,255.35 322.03,155.73 323.69,133.94 325.34,103.54 326.99,123.72 328.64,221.62 330.29,105.82 331.94,110.46 333.59,205.02 335.24,121.94 336.89,116.86 338.55,99.98 338.55,134.29 340.20,71.71 341.85,326.48 343.50,122.98 345.15,107.87 346.80,201.22 348.45,113.14 350.10,109.70 351.76,205.34 353.41,110.58 355.06,101.04 355.06,147.01 356.71,112.11 358.36,90.90 360.01,90.50 361.66,254.45 363.31,120.26 364.96,212.53 366.62,125.27 368.27,100.11 369.92,211.35 371.57,102.96 371.57,142.04 373.22,118.56 374.87,98.71 376.52,96.32 378.17,207.97 379.83,98.82 381.48,336.45 383.13,107.74 384.78,95.25 386.43,193.68 388.08,103.57 388.08,145.71 389.73,87.12 391.38,192.69 393.03,93.10 394.69,106.97 396.34,196.04 397.99,79.54 399.64,71.05 401.29,260.91 402.94,118.74 404.59,216.13 404.59,142.23 406.24,104.38 407.90,127.42 409.55,242.58 411.20,90.65 412.85,107.44 414.50,210.42 416.15,97.61 417.80,88.35 419.45,218.27 421.10,263.54 421.10,155.07 422.76,157.87 424.41,110.33 426.06,126.94 427.71,224.14 429.36,91.75 431.01,97.74 432.66,213.30 434.31,104.95 435.96,106.11 437.62,174.63 437.62,140.78 439.27,69.03 440.92,254.41 442.57,191.08 444.22,120.86 445.87,246.68 447.52,100.46 449.17,92.17 450.83,223.74 452.48,113.35 454.13,222.01 454.13,163.38 455.78,223.06 457.43,122.94 459.08,94.03 460.73,350.62 462.38,241.13 464.03,325.62 465.69,96.37 467.34,111.53 468.99,196.84 470.64,133.26 470.64,189.54 472.29,97.94 473.94,228.60 475.59,116.62 477.24,109.05 478.90,199.49 480.55,256.89 482.20,203.70 483.85,87.86 485.50,110.19 487.15,206.17 487.15,161.65 488.80,129.66 490.45,110.55 492.10,207.09 493.76,111.02 495.41,101.67 497.06,172.44 498.71,75.10 500.36,267.65 502.01,157.50 503.66,84.78 503.66,141.75 505.31,230.88 506.97,89.85 508.62,94.43 510.27,216.76 511.92,99.78 513.57,108.32 515.22,228.20 516.87,121.04 518.52,96.07 520.17,266.14 520.17,155.15 521.83,117.84 523.48,90.38 525.13,111.07 526.78,107.07 528.43,95.60 530.08,114.46 531.73,202.77 533.38,127.45 535.03,190.20 536.69,211.26 536.69,136.81 538.34,106.71 539.99,346.71 541.64,77.48 543.29,82.22 544.94,144.81 546.59,188.32 548.24,89.49 549.90,118.51 551.55,118.87 553.20,242.57 553.20,151.57 554.85,90.27 556.50,134.15 558.15,208.42 559.80,252.80 561.45,95.35 563.10,124.56 564.76,113.94 566.41,235.44 568.06,91.63 569.71,94.02 569.71,144.06 571.36,234.06 573.01,108.84 574.66,99.05 576.31,371.45 577.97,294.34 579.62,357.55 581.27,99.69 582.92,103.89 584.57,207.48 586.22,102.35 586.22,197.87 587.87,103.93 589.52,269.69 591.17,140.93 592.83,113.84 594.48,223.61 596.13,84.20 597.78,75.97 599.43,336.42 601.08,217.21 602.73,198.95 602.73,176.48 604.38,188.17 606.04,97.83 607.69,104.64 609.34,220.13 610.99,92.46 612.64,104.43 614.29,202.78 615.94,67.64 617.59,65.84 619.24,254.87 619.24,139.88 620.90,101.70 622.55,191.05 624.20,107.61 625.85,148.70 627.50,112.89 629.15,105.35 630.80,115.30 632.45,214.84 634.10,92.24 635.76,96.52 635.76,128.62 637.41,76.03 639.06,265.10 640.71,217.58 642.36,101.05 644.01,114.98 645.66,218.30 647.31,112.51 648.97,213.39 650.62,116.36 652.27,105.09 652.27,154.04 653.92,231.45 655.57,67.19 657.22,75.70 658.87,354.42 660.52,107.90 662.17,201.12 663.83,92.38 665.48,122.48 667.13,221.25 668.78,90.42 668.78,156.43 670.43,121.19 672.08,201.32 673.73,91.15 675.38,200.55 677.04,64.55 678.69,255.77 680.34,252.64 681.99,130.35 683.64,96.48 685.29,183.47 685.29,159.75 686.94,92.83 688.59,105.66 690.24,89.94 691.90,104.74 693.55,198.68 695.20,66.73 696.85,76.45 698.50,325.52 700.15,91.78 701.80,90.83 701.80,124.32 703.45,122.05 705.11,99.17 706.76,208.08 708.41,114.48 710.06,102.20 711.71,197.54 713.36,95.13 715.01,70.41 716.66,192.53 718.31,266.89 718.31,146.85 719.97,228.98 721.62,125.69 723.27,97.65 724.92,228.52 726.57,117.23 728.22,208.20 729.87,169.58 731.52,119.25 733.17,246.96 734.83,81.37 734.83,162.34 736.48,68.91 738.13,273.61 739.78,178.68 741.43,294.44 743.08,111.31 744.73,144.96 746.38,222.20 748.04,99.93 749.69,103.72 751.34,185.53 751.34,168.33 752.99,94.38 754.64,104.23 756.29,167.90 757.94,271.32 759.59,189.70 761.24,112.32 762.90,122.13 764.55,197.67 766.20,103.74 767.85,85.98 767.85,144.94 769.50,86.94 771.15,115.27 772.80,105.46 774.45,76.65 776.11,266.44 777.76,327.86 779.41,80.40 781.06,134.13 782.71,109.92 784.36,102.41 784.36,140.55 786.01,209.94 787.66,105.34 789.31,144.09 790.97,217.45 792.62,99.42 794.27,85.61 795.92,215.21 797.57,260.25 799.22,102.58 800.87,203.02 800.87,164.29 802.52,106.77 804.18,234.74 805.83,96.36 807.48,120.28 809.13,208.53 810.78,105.74 812.43,123.87 814.08,170.19 815.73,86.44 817.38,340.54 817.38,159.35 819.04,95.38 820.69,131.69 822.34,221.90 823.99,113.49 825.64,107.93 827.29,212.54 828.94,249.00 830.59,99.44 832.25,224.86 833.90,137.73 833.90,159.40 835.55,79.07 837.20,249.50 838.85,108.25 840.50,220.38 842.15,112.72 843.80,94.08 845.45,219.52 847.11,107.25 848.76,147.83 850.41,219.45 850.41,155.81 852.06,78.67 853.71,67.77 855.36,210.00 857.01,254.39 858.66,196.48 860.31,100.62 861.97,120.00 863.62,257.78 865.27,116.28 866.92,85.33 866.92,148.73 868.57,216.50 870.22,77.13 871.87,90.65 873.52,188.12 875.18,76.20 876.83,329.28 878.48,92.23 880.13,85.73 881.78,249.59 883.43,97.06 883.43,150.25 885.08,109.71 886.73,217.37 888.38,109.58 890.04,118.74 891.69,205.78 893.34,67.48 894.99,69.95 896.64,328.27 898.29,97.42 899.94,105.92 899.94,143.02 901.59,84.48 903.25,86.72 904.90,100.72 906.55,77.94 908.20,105.41 909.85,229.44 911.50,119.43 913.15,87.75 914.80,233.62 916.45,266.04 916.45,139.16" fill="none" stroke="#2563eb" stroke-width="2.5"/>
<circle cx="916.45" cy="139.16" r="3.5" fill="#2563eb"/>
<line x1="776" y1="26" x2="794" y2="26" stroke="#2563eb" stroke-width="3"/>
<text x="800" y="30" font-size="11" font-family="Arial, sans-serif" fill="#374151">trial-20260321-cleandata1</text>
</svg>