<svg xmlns="http://www.w3.org/2000/svg" width="980" height="460" viewBox="0 0 980 460">
<rect width="100%" height="100%" fill="#ffffff"/>
<text x="86" y="24" font-size="20" font-family="Arial, sans-serif" fill="#111827">Learning Rate</text>
<text x="86" y="442" font-size="12" font-family="Arial, sans-serif" fill="#4b5563">step / epoch</text>
<text x="18" y="52" font-size="12" font-family="Arial, sans-serif" fill="#4b5563" transform="rotate(-90 18 52)">train_step/lr</text>
<line x1="86" y1="396.00" x2="956" y2="396.00" stroke="#e5e7eb" stroke-width="1"/>
<text x="76" y="400.00" font-size="11" text-anchor="end" font-family="Arial, sans-serif" fill="#6b7280">-0.000000</text>
<line x1="86" y1="307.00" x2="956" y2="307.00" stroke="#e5e7eb" stroke-width="1"/>
<text x="76" y="311.00" font-size="11" text-anchor="end" font-family="Arial, sans-serif" fill="#6b7280">0.000001</text>
<line x1="86" y1="218.00" x2="956" y2="218.00" stroke="#e5e7eb" stroke-width="1"/>
<text x="76" y="222.00" font-size="11" text-anchor="end" font-family="Arial, sans-serif" fill="#6b7280">0.000003</text>
<line x1="86" y1="129.00" x2="956" y2="129.00" stroke="#e5e7eb" stroke-width="1"/>
<text x="76" y="133.00" font-size="11" text-anchor="end" font-family="Arial, sans-serif" fill="#6b7280">0.000004</text>
<line x1="86" y1="40.00" x2="956" y2="40.00" stroke="#e5e7eb" stroke-width="1"/>
<text x="76" y="44.00" font-size="11" text-anchor="end" font-family="Arial, sans-serif" fill="#6b7280">0.000005</text>
<line x1="86.00" y1="40" x2="86.00" y2="396" stroke="#f3f4f6" stroke-width="1"/>
<text x="86.00" y="420" font-size="11" text-anchor="middle" font-family="Arial, sans-serif" fill="#6b7280">-22.9500</text>
<line x1="260.00" y1="40" x2="260.00" y2="396" stroke="#f3f4f6" stroke-width="1"/>
<text x="260.00" y="420" font-size="11" text-anchor="middle" font-family="Arial, sans-serif" fill="#6b7280">82.4300</text>
<line x1="434.00" y1="40" x2="434.00" y2="396" stroke="#f3f4f6" stroke-width="1"/>
<text x="434.00" y="420" font-size="11" text-anchor="middle" font-family="Arial, sans-serif" fill="#6b7280">187.81</text>
<line x1="608.00" y1="40" x2="608.00" y2="396" stroke="#f3f4f6" stroke-width="1"/>
<text x="608.00" y="420" font-size="11" text-anchor="middle" font-family="Arial, sans-serif" fill="#6b7280">293.19</text>
<line x1="782.00" y1="40" x2="782.00" y2="396" stroke="#f3f4f6" stroke-width="1"/>
<text x="782.00" y="420" font-size="11" text-anchor="middle" font-family="Arial, sans-serif" fill="#6b7280">398.57</text>
<line x1="956.00" y1="40" x2="956.00" y2="396" stroke="#f3f4f6" stroke-width="1"/>
<text x="956.00" y="420" font-size="11" text-anchor="middle" font-family="Arial, sans-serif" fill="#6b7280">503.95</text>
<rect x="86" y="40" width="870" height="356" fill="none" stroke="#d1d5db" stroke-width="1"/>
<polyline points="125.55,358.66 127.20,345.87 128.85,333.09 130.50,320.30 132.15,307.51 133.80,294.72 135.45,281.94 137.10,269.15 138.75,256.36 140.41,243.57 140.41,301.12 142.06,230.79 143.71,218.00 145.36,205.21 147.01,192.43 148.66,179.64 150.31,166.85 151.96,154.06 153.62,141.28 155.27,128.49 156.92,115.70 156.92,173.24 158.57,102.91 160.22,90.13 161.87,77.34 163.52,64.55 165.17,64.56 166.82,64.57 168.48,64.58 170.13,64.61 171.78,64.64 173.43,64.68 173.43,72.26 175.08,64.73 176.73,64.78 178.38,64.85 180.03,64.92 181.69,64.99 183.34,65.08 184.99,65.17 186.64,65.26 188.29,65.37 189.94,65.48 189.94,65.06 191.59,65.60 193.24,65.73 194.89,65.86 196.55,66.01 198.20,66.15 199.85,66.31 201.50,66.47 203.15,66.64 204.80,66.82 206.45,67.01 206.45,66.26 208.10,67.20 209.75,67.40 211.41,67.60 213.06,67.82 214.71,68.04 216.36,68.27 218.01,68.50 219.66,68.74 221.31,68.99 222.96,69.25 222.96,68.18 224.62,69.51 226.27,69.78 227.92,70.06 229.57,70.34 231.22,70.63 232.87,70.93 234.52,71.24 236.17,71.55 237.82,71.87 239.48,72.19 239.48,70.81 241.13,72.53 242.78,72.87 244.43,73.21 246.08,73.57 247.73,73.93 249.38,74.29 251.03,74.67 252.69,75.05 254.34,75.44 255.99,75.83 255.99,74.14 257.64,76.23 259.29,76.64 260.94,77.05 262.59,77.48 264.24,77.90 265.89,78.34 267.55,78.78 269.20,79.23 270.85,79.68 272.50,80.14 272.50,78.15 274.15,80.61 275.80,81.09 277.45,81.57 279.10,82.05 280.76,82.55 282.41,83.05 284.06,83.55 285.71,84.07 287.36,84.58 289.01,85.11 289.01,82.82 290.66,85.64 292.31,86.18 293.96,86.72 295.62,87.27 297.27,87.83 298.92,88.39 300.57,88.96 302.22,89.54 303.87,90.12 305.52,90.71 305.52,88.14 307.17,91.30 308.83,91.90 310.48,92.50 312.13,93.12 313.78,93.73 315.43,94.36 317.08,94.99 318.73,95.62 320.38,96.26 322.03,96.91 322.03,94.07 323.69,97.56 325.34,98.22 326.99,98.88 328.64,99.55 330.29,100.23 331.94,100.91 333.59,101.59 335.24,102.28 336.89,102.98 338.55,103.68 338.55,100.59 340.20,104.39 341.85,105.10 343.50,105.82 345.15,106.55 346.80,107.28 348.45,108.01 350.10,108.75 351.76,109.50 353.41,110.25 355.06,111.00 355.06,107.66 356.71,111.76 358.36,112.53 360.01,113.30 361.66,114.07 363.31,114.85 364.96,115.64 366.62,116.43 368.27,117.22 369.92,118.02 371.57,118.83 371.57,115.26 373.22,119.64 374.87,120.45 376.52,121.27 378.17,122.09 379.83,122.92 381.48,123.75 383.13,124.59 384.78,125.43 386.43,126.27 388.08,127.12 388.08,123.35 389.73,127.98 391.38,128.83 393.03,129.70 394.69,130.56 396.34,131.43 397.99,132.31 399.64,133.19 401.29,134.07 402.94,134.96 404.59,135.85 404.59,131.89 406.24,136.74 407.90,137.64 409.55,138.55 411.20,139.45 412.85,140.36 414.50,141.28 416.15,142.19 417.80,143.11 419.45,144.04 421.10,144.97 421.10,140.83 422.76,145.90 424.41,146.83 426.06,147.77 427.71,148.71 429.36,149.66 431.01,150.61 432.66,151.56 434.31,152.51 435.96,153.47 437.62,154.43 437.62,150.14 439.27,155.39 440.92,156.36 442.57,157.33 444.22,158.30 445.87,159.28 447.52,160.26 449.17,161.24 450.83,162.22 452.48,163.21 454.13,164.20 454.13,159.78 455.78,165.19 457.43,166.18 459.08,167.18 460.73,168.18 462.38,169.18 464.03,170.18 465.69,171.19 467.34,172.19 468.99,173.20 470.64,174.22 470.64,169.69 472.29,175.23 473.94,176.25 475.59,177.26 477.24,178.28 478.90,179.31 480.55,180.33 482.20,181.36 483.85,182.38 485.50,183.41 487.15,184.44 487.15,179.83 488.80,185.48 490.45,186.51 492.10,187.55 493.76,188.58 495.41,189.62 497.06,190.66 498.71,191.70 500.36,192.74 502.01,193.79 503.66,194.83 503.66,190.15 505.31,195.88 506.97,196.92 508.62,197.97 510.27,199.02 511.92,200.07 513.57,201.12 515.22,202.17 516.87,203.22 518.52,204.28 520.17,205.33 520.17,200.60 521.83,206.38 523.48,207.44 525.13,208.49 526.78,209.55 528.43,210.60 530.08,211.66 531.73,212.72 533.38,213.77 535.03,214.83 536.69,215.89 536.69,211.13 538.34,216.94 539.99,218.00 541.64,219.06 543.29,220.11 544.94,221.17 546.59,222.23 548.24,223.28 549.90,224.34 551.55,225.40 553.20,226.45 553.20,221.70 554.85,227.51 556.50,228.56 558.15,229.62 559.80,230.67 561.45,231.72 563.10,232.78 564.76,233.83 566.41,234.88 568.06,235.93 569.71,236.98 569.71,232.25 571.36,238.03 573.01,239.08 574.66,240.12 576.31,241.17 577.97,242.21 579.62,243.26 581.27,244.30 582.92,245.34 584.57,246.38 586.22,247.42 586.22,242.73 587.87,248.45 589.52,249.49 591.17,250.52 592.83,251.56 594.48,252.59 596.13,253.62 597.78,254.64 599.43,255.67 601.08,256.69 602.73,257.72 602.73,253.09 604.38,258.74 606.04,259.75 607.69,260.77 609.34,261.78 610.99,262.80 612.64,263.81 614.29,264.81 615.94,265.82 617.59,266.82 619.24,267.82 619.24,263.29 620.90,268.82 622.55,269.82 624.20,270.81 625.85,271.80 627.50,272.79 629.15,273.78 630.80,274.76 632.45,275.74 634.10,276.72 635.76,277.70 635.76,273.28 637.41,278.67 639.06,279.64 640.71,280.61 642.36,281.57 644.01,282.53 645.66,283.49 647.31,284.44 648.97,285.39 650.62,286.34 652.27,287.29 652.27,283.00 653.92,288.23 655.57,289.17 657.22,290.10 658.87,291.03 660.52,291.96 662.17,292.89 663.83,293.81 665.48,294.72 667.13,295.64 668.78,296.55 668.78,292.41 670.43,297.45 672.08,298.36 673.73,299.26 675.38,300.15 677.04,301.04 678.69,301.93 680.34,302.81 681.99,303.69 683.64,304.57 685.29,305.44 685.29,301.47 686.94,306.30 688.59,307.17 690.24,308.02 691.90,308.88 693.55,309.73 695.20,310.57 696.85,311.41 698.50,312.25 700.15,313.08 701.80,313.91 701.80,310.13 703.45,314.73 705.11,315.55 706.76,316.36 708.41,317.17 710.06,317.98 711.71,318.78 713.36,319.57 715.01,320.36 716.66,321.15 718.31,321.93 718.31,318.36 719.97,322.70 721.62,323.47 723.27,324.24 724.92,325.00 726.57,325.75 728.22,326.50 729.87,327.25 731.52,327.99 733.17,328.72 734.83,329.45 734.83,326.11 736.48,330.18 738.13,330.90 739.78,331.61 741.43,332.32 743.08,333.02 744.73,333.72 746.38,334.41 748.04,335.09 749.69,335.77 751.34,336.45 751.34,333.35 752.99,337.12 754.64,337.78 756.29,338.44 757.94,339.09 759.59,339.74 761.24,340.38 762.90,341.01 764.55,341.64 766.20,342.27 767.85,342.88 767.85,340.04 769.50,343.50 771.15,344.10 772.80,344.70 774.45,345.29 776.11,345.88 777.76,346.46 779.41,347.04 781.06,347.61 782.71,348.17 784.36,348.73 784.36,346.15 786.01,349.28 787.66,349.82 789.31,350.36 790.97,350.89 792.62,351.42 794.27,351.93 795.92,352.45 797.57,352.95 799.22,353.45 800.87,353.95 800.87,351.65 802.52,354.43 804.18,354.91 805.83,355.39 807.48,355.86 809.13,356.32 810.78,356.77 812.43,357.22 814.08,357.66 815.73,358.10 817.38,358.52 817.38,356.52 819.04,358.95 820.69,359.36 822.34,359.77 823.99,360.17 825.64,360.56 827.29,360.95 828.94,361.33 830.59,361.71 832.25,362.07 833.90,362.43 833.90,360.73 835.55,362.79 837.20,363.13 838.85,363.47 840.50,363.81 842.15,364.13 843.80,364.45 845.45,364.76 847.11,365.07 848.76,365.37 850.41,365.66 850.41,364.26 852.06,365.94 853.71,366.22 855.36,366.49 857.01,366.75 858.66,367.01 860.31,367.26 861.97,367.50 863.62,367.73 865.27,367.96 866.92,368.18 866.92,367.10 868.57,368.40 870.22,368.60 871.87,368.80 873.52,368.99 875.18,369.18 876.83,369.36 878.48,369.53 880.13,369.69 881.78,369.85 883.43,369.99 883.43,369.24 885.08,370.14 886.73,370.27 888.38,370.40 890.04,370.52 891.69,370.63 893.34,370.74 894.99,370.83 896.64,370.92 898.29,371.01 899.94,371.08 899.94,370.65 901.59,371.15 903.25,371.22 904.90,371.27 906.55,371.32 908.20,371.36 909.85,371.39 911.50,371.42 913.15,371.43 914.80,371.44 916.45,371.45 916.45,371.34" fill="none" stroke="#2563eb" stroke-width="2.5"/>
<circle cx="916.45" cy="371.34" r="3.5" fill="#2563eb"/>
<line x1="776" y1="26" x2="794" y2="26" stroke="#2563eb" stroke-width="3"/>
<text x="800" y="30" font-size="11" font-family="Arial, sans-serif" fill="#374151">trial-20260321-cleandata1</text>
</svg>