<svg xmlns="http://www.w3.org/2000/svg" width="980" height="460" viewBox="0 0 980 460">
<rect width="100%" height="100%" fill="#ffffff"/>
<text x="86" y="24" font-size="20" font-family="Arial, sans-serif" fill="#111827">Train Step Stage 2 Loss</text>
<text x="86" y="442" font-size="12" font-family="Arial, sans-serif" fill="#4b5563">step / epoch</text>
<text x="18" y="52" font-size="12" font-family="Arial, sans-serif" fill="#4b5563" transform="rotate(-90 18 52)">train_step/loss_stage2</text>
<line x1="86" y1="396.00" x2="956" y2="396.00" stroke="#e5e7eb" stroke-width="1"/>
<text x="76" y="400.00" font-size="11" text-anchor="end" font-family="Arial, sans-serif" fill="#6b7280">0.453234</text>
<line x1="86" y1="307.00" x2="956" y2="307.00" stroke="#e5e7eb" stroke-width="1"/>
<text x="76" y="311.00" font-size="11" text-anchor="end" font-family="Arial, sans-serif" fill="#6b7280">0.761190</text>
<line x1="86" y1="218.00" x2="956" y2="218.00" stroke="#e5e7eb" stroke-width="1"/>
<text x="76" y="222.00" font-size="11" text-anchor="end" font-family="Arial, sans-serif" fill="#6b7280">1.0691</text>
<line x1="86" y1="129.00" x2="956" y2="129.00" stroke="#e5e7eb" stroke-width="1"/>
<text x="76" y="133.00" font-size="11" text-anchor="end" font-family="Arial, sans-serif" fill="#6b7280">1.3771</text>
<line x1="86" y1="40.00" x2="956" y2="40.00" stroke="#e5e7eb" stroke-width="1"/>
<text x="76" y="44.00" font-size="11" text-anchor="end" font-family="Arial, sans-serif" fill="#6b7280">1.6851</text>
<line x1="86.00" y1="40" x2="86.00" y2="396" stroke="#f3f4f6" stroke-width="1"/>
<text x="86.00" y="420" font-size="11" text-anchor="middle" font-family="Arial, sans-serif" fill="#6b7280">-22.9500</text>
<line x1="260.00" y1="40" x2="260.00" y2="396" stroke="#f3f4f6" stroke-width="1"/>
<text x="260.00" y="420" font-size="11" text-anchor="middle" font-family="Arial, sans-serif" fill="#6b7280">82.4300</text>
<line x1="434.00" y1="40" x2="434.00" y2="396" stroke="#f3f4f6" stroke-width="1"/>
<text x="434.00" y="420" font-size="11" text-anchor="middle" font-family="Arial, sans-serif" fill="#6b7280">187.81</text>
<line x1="608.00" y1="40" x2="608.00" y2="396" stroke="#f3f4f6" stroke-width="1"/>
<text x="608.00" y="420" font-size="11" text-anchor="middle" font-family="Arial, sans-serif" fill="#6b7280">293.19</text>
<line x1="782.00" y1="40" x2="782.00" y2="396" stroke="#f3f4f6" stroke-width="1"/>
<text x="782.00" y="420" font-size="11" text-anchor="middle" font-family="Arial, sans-serif" fill="#6b7280">398.57</text>
<line x1="956.00" y1="40" x2="956.00" y2="396" stroke="#f3f4f6" stroke-width="1"/>
<text x="956.00" y="420" font-size="11" text-anchor="middle" font-family="Arial, sans-serif" fill="#6b7280">503.95</text>
<rect x="86" y="40" width="870" height="356" fill="none" stroke="#d1d5db" stroke-width="1"/>
<polyline points="125.55,301.77 127.20,183.98 128.85,239.07 130.50,211.81 132.15,207.66 133.80,256.25 135.45,232.73 137.10,96.26 138.75,240.61 140.41,159.05 140.41,212.92 142.06,255.05 143.71,192.63 145.36,286.61 147.01,281.95 148.66,351.16 150.31,188.66 151.96,238.56 153.62,238.28 155.27,129.06 156.92,151.93 156.92,231.39 158.57,171.35 160.22,287.79 161.87,181.11 163.52,311.81 165.17,253.44 166.82,233.69 168.48,217.68 170.13,248.60 171.78,315.00 173.43,214.17 173.43,243.46 175.08,207.96 176.73,265.07 178.38,106.26 180.03,271.79 181.69,335.43 183.34,186.26 184.99,280.77 186.64,228.88 188.29,277.24 189.94,214.28 189.94,237.39 191.59,231.59 193.24,277.13 194.89,210.42 196.55,188.58 198.20,163.73 199.85,175.77 201.50,154.64 203.15,294.29 204.80,77.61 206.45,151.17 206.45,192.49 208.10,199.07 209.75,185.53 211.41,228.73 213.06,217.30 214.71,313.69 216.36,156.30 218.01,270.73 219.66,213.85 221.31,201.12 222.96,288.45 222.96,227.48 224.62,254.58 226.27,247.02 227.92,289.91 229.57,157.76 231.22,245.39 232.87,311.47 234.52,275.02 236.17,236.68 237.82,297.06 239.48,230.25 239.48,254.51 241.13,281.03 242.78,228.27 244.43,259.88 246.08,289.82 247.73,169.93 249.38,103.77 251.03,342.09 252.69,220.98 254.34,122.32 255.99,147.49 255.99,216.56 257.64,239.77 259.29,237.37 260.94,252.31 262.59,272.77 264.24,211.41 265.89,233.43 267.55,302.38 269.20,359.01 270.85,183.14 272.50,175.34 272.50,246.69 274.15,220.80 275.80,283.20 277.45,109.51 279.10,292.07 280.76,110.75 282.41,270.02 284.06,239.07 285.71,192.99 287.36,130.22 289.01,256.25 289.01,210.49 290.66,137.92 292.31,271.92 293.96,237.90 295.62,259.63 297.27,189.91 298.92,107.26 300.57,290.87 302.22,204.63 303.87,103.71 305.52,259.50 305.52,206.32 307.17,269.58 308.83,240.75 310.48,263.36 312.13,186.62 313.78,317.66 315.43,184.22 317.08,247.66 318.73,252.09 320.38,168.63 322.03,151.13 322.03,228.17 323.69,256.03 325.34,120.51 326.99,291.21 328.64,265.27 330.29,246.55 331.94,141.25 333.59,233.83 335.24,260.05 336.89,208.70 338.55,283.35 338.55,230.68 340.20,303.14 341.85,239.11 343.50,194.10 345.15,281.81 346.80,169.66 348.45,179.13 350.10,302.88 351.76,253.18 353.41,253.21 355.06,255.51 355.06,243.17 356.71,210.25 358.36,327.93 360.01,261.03 361.66,224.28 363.31,133.18 364.96,250.19 366.62,230.18 368.27,276.67 369.92,269.18 371.57,247.91 371.57,243.08 373.22,288.47 374.87,287.50 376.52,252.64 378.17,211.61 379.83,81.76 381.48,269.72 383.13,268.45 384.78,262.84 386.43,273.20 388.08,234.04 388.08,243.02 389.73,351.00 391.38,342.90 393.03,159.63 394.69,175.55 396.34,284.32 397.99,198.63 399.64,254.85 401.29,207.12 402.94,264.79 404.59,112.16 404.59,235.09 406.24,165.08 407.90,150.62 409.55,197.54 411.20,314.68 412.85,246.35 414.50,240.35 416.15,246.38 417.80,259.89 419.45,298.45 421.10,237.42 421.10,235.67 422.76,300.75 424.41,178.79 426.06,268.93 427.71,129.71 429.36,218.36 431.01,238.03 432.66,308.79 434.31,346.44 435.96,236.40 437.62,333.36 437.62,255.96 439.27,194.48 440.92,197.60 442.57,133.25 444.22,101.86 445.87,214.18 447.52,302.27 449.17,335.72 450.83,364.07 452.48,356.41 454.13,174.90 454.13,237.47 455.78,330.84 457.43,268.60 459.08,267.77 460.73,206.14 462.38,182.05 464.03,332.72 465.69,243.51 467.34,64.55 468.99,225.94 470.64,294.97 470.64,241.71 472.29,337.19 473.94,243.90 475.59,306.20 477.24,269.13 478.90,108.52 480.55,265.05 482.20,264.97 483.85,220.77 485.50,183.75 487.15,319.91 487.15,251.94 488.80,291.42 490.45,194.33 492.10,339.02 493.76,302.58 495.41,191.00 497.06,271.02 498.71,234.50 500.36,271.61 502.01,251.72 503.66,299.15 503.66,264.63 505.31,178.80 506.97,270.06 508.62,190.14 510.27,240.36 511.92,331.22 513.57,201.85 515.22,222.16 516.87,266.18 518.52,266.30 520.17,288.48 520.17,245.55 521.83,299.72 523.48,193.04 525.13,226.67 526.78,322.92 528.43,114.33 530.08,306.80 531.73,350.04 533.38,255.59 535.03,165.43 536.69,280.85 536.69,251.54 538.34,306.87 539.99,293.98 541.64,246.00 543.29,339.08 544.94,258.66 546.59,302.94 548.24,180.56 549.90,247.21 551.55,258.20 553.20,216.96 553.20,265.05 554.85,247.95 556.50,173.91 558.15,284.40 559.80,302.91 561.45,322.43 563.10,246.01 564.76,343.49 566.41,120.23 568.06,315.01 569.71,236.81 569.71,259.31 571.36,344.45 573.01,296.31 574.66,116.69 576.31,274.26 577.97,264.07 579.62,134.46 581.27,323.00 582.92,308.32 584.57,275.82 586.22,301.72 586.22,263.91 587.87,247.45 589.52,243.35 591.17,165.00 592.83,115.31 594.48,349.01 596.13,227.31 597.78,266.59 599.43,267.37 601.08,337.42 602.73,298.60 602.73,251.74 604.38,370.06 606.04,283.66 607.69,346.71 609.34,276.04 610.99,254.83 612.64,232.45 614.29,218.67 615.94,245.15 617.59,258.40 619.24,253.42 619.24,273.94 620.90,275.03 622.55,244.98 624.20,185.81 625.85,266.71 627.50,245.24 629.15,310.44 630.80,241.08 632.45,264.58 634.10,180.87 635.76,236.02 635.76,245.08 637.41,286.91 639.06,327.91 640.71,309.24 642.36,255.40 644.01,190.59 645.66,238.35 647.31,345.96 648.97,198.78 650.62,207.31 652.27,205.85 652.27,256.63 653.92,172.67 655.57,224.03 657.22,142.92 658.87,310.50 660.52,242.34 662.17,181.83 663.83,296.47 665.48,271.62 667.13,258.55 668.78,287.33 668.78,238.83 670.43,274.32 672.08,246.89 673.73,159.18 675.38,265.37 677.04,340.15 678.69,177.07 680.34,167.29 681.99,259.54 683.64,157.10 685.29,133.59 685.29,218.05 686.94,299.09 688.59,339.96 690.24,287.43 691.90,138.47 693.55,350.89 695.20,311.25 696.85,245.83 698.50,371.45 700.15,227.37 701.80,301.93 701.80,287.37 703.45,286.77 705.11,317.10 706.76,249.93 708.41,202.52 710.06,121.98 711.71,258.37 713.36,264.08 715.01,180.14 716.66,119.40 718.31,145.08 718.31,214.54 719.97,176.74 721.62,319.63 723.27,244.19 724.92,268.60 726.57,231.76 728.22,247.01 729.87,286.79 731.52,299.37 733.17,200.11 734.83,369.72 734.83,264.39 736.48,305.15 738.13,295.77 739.78,367.30 741.43,221.87 743.08,239.83 744.73,315.76 746.38,302.77 748.04,266.02 749.69,284.87 751.34,145.12 751.34,274.45 752.99,206.96 754.64,134.25 756.29,314.41 757.94,283.52 759.59,346.55 761.24,312.66 762.90,325.39 764.55,230.66 766.20,228.01 767.85,257.64 767.85,264.01 769.50,172.32 771.15,269.98 772.80,246.85 774.45,341.87 776.11,273.49 777.76,228.03 779.41,337.77 781.06,278.07 782.71,342.07 784.36,286.61 784.36,277.71 786.01,268.04 787.66,244.47 789.31,267.05 790.97,159.78 792.62,222.33 794.27,252.39 795.92,278.12 797.57,290.47 799.22,266.17 800.87,243.25 800.87,249.21 802.52,305.58 804.18,309.41 805.83,235.94 807.48,219.91 809.13,224.48 810.78,260.65 812.43,341.08 814.08,352.46 815.73,242.07 817.38,311.94 817.38,280.35 819.04,248.43 820.69,277.76 822.34,335.09 823.99,191.21 825.64,294.29 827.29,308.00 828.94,305.67 830.59,256.16 832.25,261.86 833.90,180.71 833.90,265.92 835.55,161.34 837.20,314.34 838.85,280.36 840.50,208.52 842.15,174.59 843.80,283.07 845.45,272.78 847.11,178.93 848.76,307.58 850.41,197.92 850.41,237.94 852.06,262.87 853.71,337.11 855.36,289.49 857.01,226.91 858.66,275.67 860.31,255.00 861.97,292.19 863.62,224.48 865.27,295.49 866.92,149.26 866.92,260.85 868.57,235.57 870.22,250.39 871.87,244.16 873.52,351.96 875.18,142.01 876.83,258.08 878.48,335.16 880.13,313.59 881.78,252.47 883.43,311.62 883.43,269.50 885.08,274.82 886.73,264.82 888.38,351.35 890.04,262.61 891.69,177.24 893.34,276.03 894.99,247.76 896.64,189.25 898.29,193.63 899.94,325.88 899.94,256.34 901.59,266.24 903.25,136.91 904.90,164.22 906.55,220.57 908.20,246.30 909.85,171.93 911.50,252.41 913.15,324.78 914.80,339.60 916.45,220.20 916.45,234.31" fill="none" stroke="#2563eb" stroke-width="2.5"/>
<circle cx="916.45" cy="234.31" r="3.5" fill="#2563eb"/>
<line x1="776" y1="26" x2="794" y2="26" stroke="#2563eb" stroke-width="3"/>
<text x="800" y="30" font-size="11" font-family="Arial, sans-serif" fill="#374151">trial-20260321-cleandata1</text>
</svg>