<svg xmlns="http://www.w3.org/2000/svg" width="980" height="460" viewBox="0 0 980 460">
<rect width="100%" height="100%" fill="#ffffff"/>
<text x="86" y="24" font-size="20" font-family="Arial, sans-serif" fill="#111827">Train vs Dev Stage 1 Loss by Epoch</text>
<text x="86" y="442" font-size="12" font-family="Arial, sans-serif" fill="#4b5563">step / epoch</text>
<text x="18" y="52" font-size="12" font-family="Arial, sans-serif" fill="#4b5563" transform="rotate(-90 18 52)">loss_stage1</text>
<line x1="86" y1="396.00" x2="956" y2="396.00" stroke="#e5e7eb" stroke-width="1"/>
<text x="76" y="400.00" font-size="11" text-anchor="end" font-family="Arial, sans-serif" fill="#6b7280">0.775954</text>
<line x1="86" y1="307.00" x2="956" y2="307.00" stroke="#e5e7eb" stroke-width="1"/>
<text x="76" y="311.00" font-size="11" text-anchor="end" font-family="Arial, sans-serif" fill="#6b7280">1.1251</text>
<line x1="86" y1="218.00" x2="956" y2="218.00" stroke="#e5e7eb" stroke-width="1"/>
<text x="76" y="222.00" font-size="11" text-anchor="end" font-family="Arial, sans-serif" fill="#6b7280">1.4743</text>
<line x1="86" y1="129.00" x2="956" y2="129.00" stroke="#e5e7eb" stroke-width="1"/>
<text x="76" y="133.00" font-size="11" text-anchor="end" font-family="Arial, sans-serif" fill="#6b7280">1.8234</text>
<line x1="86" y1="40.00" x2="956" y2="40.00" stroke="#e5e7eb" stroke-width="1"/>
<text x="76" y="44.00" font-size="11" text-anchor="end" font-family="Arial, sans-serif" fill="#6b7280">2.1726</text>
<line x1="86.00" y1="40" x2="86.00" y2="396" stroke="#f3f4f6" stroke-width="1"/>
<text x="86.00" y="420" font-size="11" text-anchor="middle" font-family="Arial, sans-serif" fill="#6b7280">-0.950000</text>
<line x1="260.00" y1="40" x2="260.00" y2="396" stroke="#f3f4f6" stroke-width="1"/>
<text x="260.00" y="420" font-size="11" text-anchor="middle" font-family="Arial, sans-serif" fill="#6b7280">7.6300</text>
<line x1="434.00" y1="40" x2="434.00" y2="396" stroke="#f3f4f6" stroke-width="1"/>
<text x="434.00" y="420" font-size="11" text-anchor="middle" font-family="Arial, sans-serif" fill="#6b7280">16.2100</text>
<line x1="608.00" y1="40" x2="608.00" y2="396" stroke="#f3f4f6" stroke-width="1"/>
<text x="608.00" y="420" font-size="11" text-anchor="middle" font-family="Arial, sans-serif" fill="#6b7280">24.7900</text>
<line x1="782.00" y1="40" x2="782.00" y2="396" stroke="#f3f4f6" stroke-width="1"/>
<text x="782.00" y="420" font-size="11" text-anchor="middle" font-family="Arial, sans-serif" fill="#6b7280">33.3700</text>
<line x1="956.00" y1="40" x2="956.00" y2="396" stroke="#f3f4f6" stroke-width="1"/>
<text x="956.00" y="420" font-size="11" text-anchor="middle" font-family="Arial, sans-serif" fill="#6b7280">41.9500</text>
<rect x="86" y="40" width="870" height="356" fill="none" stroke="#d1d5db" stroke-width="1"/>
<polyline points="125.55,64.55 145.83,144.39 166.10,178.11 186.38,215.85 206.66,227.84 226.94,225.57 247.22,325.47 267.50,197.19 287.78,243.18 308.06,259.38 328.34,322.14 348.62,266.19 368.90,284.33 389.18,241.16 409.46,248.70 429.74,234.47 450.02,278.20 470.30,252.09 490.58,306.87 510.86,341.00 531.14,272.23 551.42,371.45 571.70,306.37 591.98,270.49 612.26,281.99 632.54,298.02 652.82,245.01 673.10,283.94 693.38,258.12 713.66,265.88 733.94,360.69 754.22,366.82 774.50,302.16 794.78,280.70 815.06,245.11 835.34,327.16 855.62,303.33 875.90,328.35 896.17,331.48 916.45,311.70" fill="none" stroke="#2563eb" stroke-width="2.5"/>
<circle cx="916.45" cy="311.70" r="3.5" fill="#2563eb"/>
<line x1="776" y1="26" x2="794" y2="26" stroke="#2563eb" stroke-width="3"/>
<text x="800" y="30" font-size="11" font-family="Arial, sans-serif" fill="#374151">train_epoch_avg</text>
<polyline points="125.55,146.64 145.83,176.47 166.10,204.79 186.38,220.80 206.66,233.14 226.94,242.07 247.22,248.77 267.50,254.53 287.78,259.58 308.06,264.62 328.34,270.40 348.62,275.90 368.90,279.68 389.18,282.51 409.46,283.92 429.74,285.58 450.02,286.07 470.30,287.26 490.58,287.91 510.86,288.21 531.14,289.09 551.42,289.69 571.70,290.52 591.98,290.90 612.26,291.15 632.54,291.39 652.82,291.53 673.10,291.71 693.38,292.30 713.66,292.51 733.94,292.68 754.22,292.63 774.50,292.84 794.78,292.67 815.06,293.06 835.34,292.92 855.62,292.66 875.90,292.79 896.17,293.01 916.45,292.60" fill="none" stroke="#dc2626" stroke-width="2.5"/>
<circle cx="916.45" cy="292.60" r="3.5" fill="#dc2626"/>
<line x1="776" y1="44" x2="794" y2="44" stroke="#dc2626" stroke-width="3"/>
<text x="800" y="48" font-size="11" font-family="Arial, sans-serif" fill="#374151">dev_eval</text>
</svg>