<svg xmlns="http://www.w3.org/2000/svg" width="980" height="460" viewBox="0 0 980 460">
<rect width="100%" height="100%" fill="#ffffff"/>
<text x="86" y="24" font-size="20" font-family="Arial, sans-serif" fill="#111827">Train vs Dev Stage 3 Loss by Epoch</text>
<text x="86" y="442" font-size="12" font-family="Arial, sans-serif" fill="#4b5563">step / epoch</text>
<text x="18" y="52" font-size="12" font-family="Arial, sans-serif" fill="#4b5563" transform="rotate(-90 18 52)">loss_stage3</text>
<line x1="86" y1="396.00" x2="956" y2="396.00" stroke="#e5e7eb" stroke-width="1"/>
<text x="76" y="400.00" font-size="11" text-anchor="end" font-family="Arial, sans-serif" fill="#6b7280">0.054368</text>
<line x1="86" y1="307.00" x2="956" y2="307.00" stroke="#e5e7eb" stroke-width="1"/>
<text x="76" y="311.00" font-size="11" text-anchor="end" font-family="Arial, sans-serif" fill="#6b7280">0.404496</text>
<line x1="86" y1="218.00" x2="956" y2="218.00" stroke="#e5e7eb" stroke-width="1"/>
<text x="76" y="222.00" font-size="11" text-anchor="end" font-family="Arial, sans-serif" fill="#6b7280">0.754623</text>
<line x1="86" y1="129.00" x2="956" y2="129.00" stroke="#e5e7eb" stroke-width="1"/>
<text x="76" y="133.00" font-size="11" text-anchor="end" font-family="Arial, sans-serif" fill="#6b7280">1.1048</text>
<line x1="86" y1="40.00" x2="956" y2="40.00" stroke="#e5e7eb" stroke-width="1"/>
<text x="76" y="44.00" font-size="11" text-anchor="end" font-family="Arial, sans-serif" fill="#6b7280">1.4549</text>
<line x1="86.00" y1="40" x2="86.00" y2="396" stroke="#f3f4f6" stroke-width="1"/>
<text x="86.00" y="420" font-size="11" text-anchor="middle" font-family="Arial, sans-serif" fill="#6b7280">-0.950000</text>
<line x1="260.00" y1="40" x2="260.00" y2="396" stroke="#f3f4f6" stroke-width="1"/>
<text x="260.00" y="420" font-size="11" text-anchor="middle" font-family="Arial, sans-serif" fill="#6b7280">7.6300</text>
<line x1="434.00" y1="40" x2="434.00" y2="396" stroke="#f3f4f6" stroke-width="1"/>
<text x="434.00" y="420" font-size="11" text-anchor="middle" font-family="Arial, sans-serif" fill="#6b7280">16.2100</text>
<line x1="608.00" y1="40" x2="608.00" y2="396" stroke="#f3f4f6" stroke-width="1"/>
<text x="608.00" y="420" font-size="11" text-anchor="middle" font-family="Arial, sans-serif" fill="#6b7280">24.7900</text>
<line x1="782.00" y1="40" x2="782.00" y2="396" stroke="#f3f4f6" stroke-width="1"/>
<text x="782.00" y="420" font-size="11" text-anchor="middle" font-family="Arial, sans-serif" fill="#6b7280">33.3700</text>
<line x1="956.00" y1="40" x2="956.00" y2="396" stroke="#f3f4f6" stroke-width="1"/>
<text x="956.00" y="420" font-size="11" text-anchor="middle" font-family="Arial, sans-serif" fill="#6b7280">41.9500</text>
<rect x="86" y="40" width="870" height="356" fill="none" stroke="#d1d5db" stroke-width="1"/>
<polyline points="125.55,93.55 145.83,199.35 166.10,256.69 186.38,186.20 206.66,203.81 226.94,64.55 247.22,230.18 267.50,204.47 287.78,330.56 308.06,232.14 328.34,263.18 348.62,227.34 368.90,265.79 389.18,301.54 409.46,300.62 429.74,117.38 450.02,222.48 470.30,306.34 490.58,308.23 510.86,256.45 531.14,271.67 551.42,266.73 571.70,337.82 591.98,295.03 612.26,327.61 632.54,236.54 652.82,299.93 673.10,232.58 693.38,371.45 713.66,278.93 733.94,330.36 754.22,318.63 774.50,212.62 794.78,320.22 815.06,298.20 835.34,270.97 855.62,330.75 875.90,185.46 896.17,364.24 916.45,298.70" fill="none" stroke="#2563eb" stroke-width="2.5"/>
<circle cx="916.45" cy="298.70" r="3.5" fill="#2563eb"/>
<line x1="776" y1="26" x2="794" y2="26" stroke="#2563eb" stroke-width="3"/>
<text x="800" y="30" font-size="11" font-family="Arial, sans-serif" fill="#374151">train_epoch_avg</text>
<polyline points="125.55,101.17 145.83,107.51 166.10,117.00 186.38,125.49 206.66,130.45 226.94,132.14 247.22,135.43 267.50,136.76 287.78,136.39 308.06,135.59 328.34,136.66 348.62,136.74 368.90,137.46 389.18,139.25 409.46,138.48 429.74,136.99 450.02,136.71 470.30,137.00 490.58,138.28 510.86,138.78 531.14,137.98 551.42,137.06 571.70,136.93 591.98,136.63 612.26,137.39 632.54,137.19 652.82,136.71 673.10,136.23 693.38,135.45 713.66,135.21 733.94,135.72 754.22,134.74 774.50,134.55 794.78,135.31 815.06,134.21 835.34,135.07 855.62,134.97 875.90,135.06 896.17,135.10 916.45,135.03" fill="none" stroke="#dc2626" stroke-width="2.5"/>
<circle cx="916.45" cy="135.03" r="3.5" fill="#dc2626"/>
<line x1="776" y1="44" x2="794" y2="44" stroke="#dc2626" stroke-width="3"/>
<text x="800" y="48" font-size="11" font-family="Arial, sans-serif" fill="#374151">dev_eval</text>
</svg>