<svg xmlns="http://www.w3.org/2000/svg" width="980" height="460" viewBox="0 0 980 460">
<rect width="100%" height="100%" fill="#ffffff"/>
<text x="86" y="24" font-size="20" font-family="Arial, sans-serif" fill="#111827">Peak GPU Memory</text>
<text x="86" y="442" font-size="12" font-family="Arial, sans-serif" fill="#4b5563">step / epoch</text>
<text x="18" y="52" font-size="12" font-family="Arial, sans-serif" fill="#4b5563" transform="rotate(-90 18 52)">gpu/mem_peak_allocated_gb</text>
<line x1="86" y1="396.00" x2="956" y2="396.00" stroke="#e5e7eb" stroke-width="1"/>
<text x="76" y="400.00" font-size="11" text-anchor="end" font-family="Arial, sans-serif" fill="#6b7280">2.0599</text>
<line x1="86" y1="307.00" x2="956" y2="307.00" stroke="#e5e7eb" stroke-width="1"/>
<text x="76" y="311.00" font-size="11" text-anchor="end" font-family="Arial, sans-serif" fill="#6b7280">8.5417</text>
<line x1="86" y1="218.00" x2="956" y2="218.00" stroke="#e5e7eb" stroke-width="1"/>
<text x="76" y="222.00" font-size="11" text-anchor="end" font-family="Arial, sans-serif" fill="#6b7280">15.0235</text>
<line x1="86" y1="129.00" x2="956" y2="129.00" stroke="#e5e7eb" stroke-width="1"/>
<text x="76" y="133.00" font-size="11" text-anchor="end" font-family="Arial, sans-serif" fill="#6b7280">21.5053</text>
<line x1="86" y1="40.00" x2="956" y2="40.00" stroke="#e5e7eb" stroke-width="1"/>
<text x="76" y="44.00" font-size="11" text-anchor="end" font-family="Arial, sans-serif" fill="#6b7280">27.9871</text>
<line x1="86.00" y1="40" x2="86.00" y2="396" stroke="#f3f4f6" stroke-width="1"/>
<text x="86.00" y="420" font-size="11" text-anchor="middle" font-family="Arial, sans-serif" fill="#6b7280">-24.0000</text>
<line x1="260.00" y1="40" x2="260.00" y2="396" stroke="#f3f4f6" stroke-width="1"/>
<text x="260.00" y="420" font-size="11" text-anchor="middle" font-family="Arial, sans-serif" fill="#6b7280">81.6000</text>
<line x1="434.00" y1="40" x2="434.00" y2="396" stroke="#f3f4f6" stroke-width="1"/>
<text x="434.00" y="420" font-size="11" text-anchor="middle" font-family="Arial, sans-serif" fill="#6b7280">187.20</text>
<line x1="608.00" y1="40" x2="608.00" y2="396" stroke="#f3f4f6" stroke-width="1"/>
<text x="608.00" y="420" font-size="11" text-anchor="middle" font-family="Arial, sans-serif" fill="#6b7280">292.80</text>
<line x1="782.00" y1="40" x2="782.00" y2="396" stroke="#f3f4f6" stroke-width="1"/>
<text x="782.00" y="420" font-size="11" text-anchor="middle" font-family="Arial, sans-serif" fill="#6b7280">398.40</text>
<line x1="956.00" y1="40" x2="956.00" y2="396" stroke="#f3f4f6" stroke-width="1"/>
<text x="956.00" y="420" font-size="11" text-anchor="middle" font-family="Arial, sans-serif" fill="#6b7280">504.00</text>
<rect x="86" y="40" width="870" height="356" fill="none" stroke="#d1d5db" stroke-width="1"/>
<polyline points="127.19,299.21 128.84,299.21 130.49,299.21 132.14,299.21 133.78,299.21 125.55,299.21 127.19,150.66 128.84,137.70 130.49,137.70 132.14,137.70 133.78,137.70 135.43,137.68 137.08,137.68 138.73,101.93 140.38,66.58 142.02,66.58 142.02,66.58 143.67,66.58 145.32,66.58 145.32,66.58 145.32,66.58 145.32,66.58 145.32,66.58 145.32,66.58 146.97,66.58 148.61,66.58 150.26,66.58 151.91,66.58 153.56,66.58 155.20,66.58 156.85,66.58 158.50,66.58 158.50,66.58 160.15,66.58 161.80,66.58 163.44,66.58 165.09,66.58 165.09,66.58 165.09,66.58 165.09,66.58 165.09,66.58 165.09,66.58 166.74,66.58 168.39,66.58 170.03,66.58 171.68,66.58 173.33,65.57 174.98,65.57 174.98,65.57 176.62,65.57 178.27,65.57 179.92,65.57 181.57,65.57 183.22,65.57 184.86,65.57 184.86,65.57 184.86,65.57 184.86,65.57 184.86,65.57 184.86,65.57 186.51,65.57 188.16,65.57 189.81,65.57 191.45,65.57 191.45,65.57 193.10,65.57 194.75,65.57 196.40,65.57 198.05,65.57 199.69,65.57 201.34,65.57 202.99,65.57 204.64,65.57 204.64,65.57 204.64,65.57 204.64,65.57 204.64,65.57 204.64,65.57 206.28,65.57 207.93,65.57 207.93,65.57 209.58,65.57 211.23,65.57 212.88,65.57 214.52,65.57 216.17,65.57 217.82,65.57 219.47,65.57 221.11,65.57 222.76,65.57 224.41,65.57 224.41,65.57 224.41,65.57 224.41,65.57 224.41,65.57 224.41,65.57 224.41,65.57 226.06,65.57 227.70,65.57 229.35,65.57 231.00,65.57 232.65,65.57 234.30,65.57 235.94,65.57 237.59,65.57 239.24,65.57 240.89,65.57 240.89,65.57 242.53,65.57 244.18,65.57 244.18,65.57 244.18,65.57 244.18,65.57 244.18,65.57 244.18,65.57 245.83,65.57 247.48,65.57 249.12,65.57 250.77,65.57 252.42,65.57 254.07,65.57 255.72,65.57 257.36,65.57 257.36,65.57 259.01,65.57 260.66,65.57 262.31,65.57 263.95,65.57 263.95,65.57 263.95,65.57 263.95,65.57 263.95,65.57 263.95,65.57 265.60,65.57 267.25,65.57 268.90,65.57 270.55,65.57 272.19,65.57 273.84,65.57 273.84,65.57 275.49,65.57 277.14,65.57 278.78,65.57 280.43,65.57 282.08,65.57 283.73,65.57 283.73,65.57 283.73,65.57 283.73,65.57 283.73,65.57 283.73,65.57 285.38,65.57 287.02,65.57 288.67,65.57 290.32,65.57 290.32,65.57 291.97,65.57 293.61,65.57 295.26,65.57 296.91,65.57 298.56,65.57 300.20,65.57 301.85,65.57 303.50,65.57 303.50,65.57 303.50,65.57 303.50,65.57 303.50,65.57 303.50,65.57 305.15,65.57 306.80,65.57 306.80,65.57 308.44,65.57 310.09,65.57 311.74,65.57 313.39,65.57 315.03,65.57 316.68,65.57 318.33,65.57 319.98,65.57 321.62,65.57 323.27,65.57 323.27,65.57 323.27,65.57 323.27,65.57 323.27,65.57 323.27,65.57 323.27,65.57 324.92,65.57 326.57,65.57 328.22,65.57 329.86,65.57 331.51,65.57 333.16,65.57 334.81,65.57 336.45,65.57 338.10,65.57 339.75,65.57 339.75,65.57 341.40,65.57 343.05,65.57 343.05,65.57 343.05,65.57 343.05,65.57 343.05,65.57 343.05,65.57 344.69,65.57 346.34,65.57 347.99,65.57 349.64,65.57 351.28,65.57 352.93,65.57 354.58,65.57 356.23,65.57 356.23,65.57 357.88,65.57 359.52,65.57 361.17,65.57 362.82,65.57 362.82,65.57 362.82,65.57 362.82,65.57 362.82,65.57 362.82,65.57 364.47,65.57 366.11,65.57 367.76,65.57 369.41,65.57 371.06,65.57 372.70,65.57 372.70,65.57 374.35,65.57 376.00,65.57 377.65,65.57 379.30,65.57 380.94,65.57 382.59,65.57 382.59,65.57 382.59,65.57 382.59,65.57 382.59,65.57 382.59,65.57 384.24,65.57 385.89,65.57 387.53,65.57 389.18,65.57 389.18,65.57 390.83,65.57 392.48,65.57 394.12,65.57 395.77,65.57 397.42,65.57 399.07,65.57 400.72,65.57 402.36,65.57 402.36,65.57 402.36,65.57 402.36,65.57 402.36,65.57 402.36,65.57 404.01,65.57 405.66,65.57 405.66,65.57 407.31,65.57 408.95,65.57 410.60,65.57 412.25,65.57 413.90,65.57 415.55,65.57 417.19,65.57 418.84,65.57 420.49,65.57 422.14,65.57 422.14,65.57 422.14,65.57 422.14,65.57 422.14,65.57 422.14,65.57 422.14,65.57 423.78,65.57 425.43,65.57 427.08,65.57 428.73,65.57 430.38,65.57 432.02,65.57 433.67,65.57 435.32,65.57 436.97,65.57 438.61,65.57 438.61,65.57 440.26,65.57 441.91,65.57 441.91,65.57 441.91,65.57 441.91,65.57 441.91,65.57 443.56,65.57 445.20,65.57 446.85,65.57 448.50,65.57 450.15,65.57 451.80,65.57 453.44,65.57 455.09,65.57 455.09,65.57 456.74,65.57 458.39,65.57 460.03,65.57 461.68,65.57 461.68,65.57 461.68,65.57 461.68,65.57 461.68,65.57 461.68,65.57 463.33,65.57 464.98,65.57 466.62,65.57 468.27,65.57 469.92,65.50 471.57,65.50 471.57,65.50 473.22,65.50 474.86,65.50 476.51,65.50 478.16,65.50 479.81,65.50 481.45,65.50 481.45,65.50 481.45,65.50 481.45,65.50 481.45,65.50 481.45,65.50 483.10,65.50 484.75,65.50 486.40,65.50 488.05,65.50 488.05,65.50 489.69,65.50 491.34,65.50 492.99,65.50 494.64,65.50 496.28,65.50 497.93,65.50 499.58,65.50 501.23,65.50 501.23,65.50 501.23,65.50 501.23,65.50 501.23,65.50 501.23,65.50 502.88,65.50 504.52,65.50 504.52,65.50 506.17,65.50 507.82,65.50 509.47,65.50 511.11,65.50 512.76,65.50 514.41,65.50 516.06,65.50 517.70,65.50 519.35,65.50 521.00,65.50 521.00,65.50 521.00,65.50 521.00,65.50 521.00,65.50 521.00,65.50 521.00,65.50 522.65,65.50 524.30,65.50 525.94,65.50 527.59,65.50 529.24,65.50 530.89,65.50 532.53,65.50 534.18,65.50 535.83,65.50 537.48,65.50 537.48,65.50 539.12,65.50 540.77,65.50 540.77,65.50 540.77,65.50 540.77,65.50 540.77,65.50 542.42,65.50 544.07,65.50 545.72,65.50 547.36,65.50 549.01,65.50 550.66,65.50 552.31,65.50 553.95,65.50 553.95,65.50 555.60,65.50 557.25,65.50 558.90,65.50 560.55,65.50 560.55,65.50 560.55,65.50 560.55,65.50 560.55,65.50 562.19,65.50 563.84,65.50 565.49,65.50 567.14,65.50 568.78,65.50 570.43,65.50 570.43,65.50 572.08,65.50 573.73,65.50 575.38,65.50 577.02,65.50 578.67,65.50 580.32,65.50 580.32,65.50 580.32,65.50 580.32,65.50 580.32,65.50 580.32,65.50 581.97,65.50 583.61,65.50 585.26,65.50 586.91,65.50 586.91,65.50 588.56,65.50 590.20,65.50 591.85,65.50 593.50,65.50 595.15,65.50 596.80,65.50 598.44,65.50 600.09,65.50 600.09,65.50 600.09,65.50 600.09,65.50 600.09,65.50 600.09,65.50 601.74,65.50 603.39,65.50 603.39,65.50 605.03,65.50 606.68,65.50 608.33,65.50 609.98,65.50 611.62,65.50 613.27,65.50 614.92,65.50 616.57,65.50 618.22,65.50 619.86,65.50 619.86,65.50 619.86,65.50 619.86,65.50 619.86,65.50 619.86,65.50 619.86,65.50 621.51,65.50 623.16,65.50 624.81,65.50 626.45,65.50 628.10,65.50 629.75,65.50 631.40,65.50 633.05,65.50 634.69,65.50 636.34,65.50 636.34,65.50 637.99,65.50 639.64,65.50 639.64,65.50 639.64,65.50 639.64,65.50 639.64,65.50 641.28,65.50 642.93,65.50 644.58,65.50 646.23,65.50 647.88,65.50 649.52,65.50 651.17,65.50 652.82,65.50 652.82,65.50 654.47,65.50 656.11,65.50 657.76,65.50 659.41,65.50 659.41,65.50 659.41,65.50 659.41,65.50 659.41,65.50 661.06,65.50 662.70,65.50 664.35,65.50 666.00,65.50 667.65,65.50 669.30,65.50 669.30,65.50 670.94,65.50 672.59,65.50 674.24,65.50 675.89,65.50 677.53,65.50 679.18,65.50 679.18,65.50 679.18,65.50 679.18,65.50 679.18,65.50 680.83,65.50 682.48,65.50 684.12,65.50 685.77,65.50 685.77,65.50 687.42,65.50 689.07,65.50 690.72,65.50 692.36,65.50 694.01,65.50 695.66,65.50 697.31,65.50 698.95,65.50 698.95,65.50 698.95,65.50 698.95,65.50 698.95,65.50 700.60,65.50 702.25,65.50 702.25,65.50 703.90,65.50 705.55,65.50 707.19,65.50 708.84,65.50 710.49,65.50 712.14,65.50 713.78,65.50 715.43,65.50 717.08,65.50 718.73,65.50 718.73,65.50 718.73,65.50 718.73,65.50 718.73,65.50 718.73,65.50 720.38,65.50 722.02,65.50 723.67,65.50 725.32,65.50 726.97,65.50 728.61,65.50 730.26,65.50 731.91,65.50 733.56,65.50 735.20,65.50 735.20,65.50 736.85,65.50 738.50,65.50 738.50,65.50 738.50,65.50 738.50,65.50 738.50,65.50 740.15,65.50 741.80,65.50 743.44,65.50 745.09,65.50 746.74,65.50 748.39,65.50 750.03,65.50 751.68,65.50 751.68,65.50 753.33,65.50 754.98,65.50 756.62,65.50 758.27,65.50 758.27,65.50 758.27,65.50 758.27,65.50 758.27,65.50 759.92,65.50 761.57,65.50 763.22,65.50 764.86,65.50 766.51,65.50 768.16,65.50 768.16,65.50 769.81,65.50 771.45,65.50 773.10,65.50 774.75,65.50 776.40,65.50 778.05,65.50 778.05,65.50 778.05,65.50 778.05,65.50 778.05,65.50 779.69,65.50 781.34,65.50 782.99,65.50 784.64,65.50 784.64,65.50 786.28,65.50 787.93,65.50 789.58,65.50 791.23,65.50 792.88,65.50 794.52,65.50 796.17,65.50 797.82,65.50 797.82,65.50 797.82,65.50 797.82,65.50 797.82,65.50 799.47,65.50 801.11,65.50 801.11,65.50 802.76,65.50 804.41,65.50 806.06,65.50 807.70,65.50 809.35,65.50 811.00,65.50 812.65,65.50 814.30,65.50 815.94,65.50 817.59,65.50 817.59,65.50 817.59,65.50 817.59,65.50 817.59,65.50 817.59,65.50 819.24,65.50 820.89,65.50 822.53,65.50 824.18,65.50 825.83,65.50 827.48,65.50 829.12,65.50 830.77,65.50 832.42,65.50 834.07,65.50 834.07,65.50 835.72,65.50 837.36,65.50 837.36,65.50 837.36,65.50 837.36,65.50 837.36,65.50 839.01,65.50 840.66,65.50 842.31,65.50 843.95,65.50 845.60,65.50 847.25,65.50 848.90,65.50 850.55,65.50 850.55,65.50 852.19,65.50 853.84,65.50 855.49,65.50 857.14,65.50 857.14,65.50 857.14,65.50 857.14,65.50 857.14,65.50 858.78,65.43 860.43,65.43 862.08,65.43 863.73,65.43 865.38,65.43 867.02,65.43 867.02,65.43 868.67,65.43 870.32,65.43 871.97,65.43 873.61,65.43 875.26,65.43 876.91,65.43 876.91,65.43 876.91,65.43 876.91,65.43 876.91,65.43 878.56,65.43 880.20,65.43 881.85,65.43 883.50,65.43 883.50,65.43 885.15,65.43 886.80,65.43 888.44,65.43 890.09,65.43 891.74,65.43 893.39,65.43 895.03,65.43 896.68,65.43 896.68,65.43 896.68,65.43 896.68,65.43 896.68,65.43 898.33,65.43 899.98,65.43 899.98,65.43 901.62,65.43 903.27,65.43 904.92,65.43 906.57,65.43 908.22,65.43 909.86,65.43 911.51,65.43 913.16,65.43 914.81,65.43 916.45,65.43 916.45,65.43 916.45,65.43 916.45,65.43 916.45,65.43 916.45,65.43" fill="none" stroke="#2563eb" stroke-width="2.5"/>
<circle cx="916.45" cy="65.43" r="3.5" fill="#2563eb"/>
<line x1="776" y1="26" x2="794" y2="26" stroke="#2563eb" stroke-width="3"/>
<text x="800" y="30" font-size="11" font-family="Arial, sans-serif" fill="#374151">trial-20260321-cleandata1</text>
<polyline points="127.19,299.21 128.84,299.21 130.49,299.21 132.14,299.21 133.78,299.21 135.43,87.56" fill="none" stroke="#dc2626" stroke-width="2.5"/>
<circle cx="135.43" cy="87.56" r="3.5" fill="#dc2626"/>
<line x1="776" y1="44" x2="794" y2="44" stroke="#dc2626" stroke-width="3"/>
<text x="800" y="48" font-size="11" font-family="Arial, sans-serif" fill="#374151">trial-20260321-converge4</text>
<polyline points="127.19,299.21 128.84,299.21 130.49,299.21 132.14,299.21 133.78,299.21 127.19,83.51 128.84,68.59 130.49,68.59 132.14,68.59 133.78,68.59" fill="none" stroke="#059669" stroke-width="2.5"/>
<circle cx="133.78" cy="68.59" r="3.5" fill="#059669"/>
<line x1="776" y1="62" x2="794" y2="62" stroke="#059669" stroke-width="3"/>
<text x="800" y="66" font-size="11" font-family="Arial, sans-serif" fill="#374151">trial-20260321-converge5</text>
<polyline points="127.19,299.21 128.84,299.21 130.49,299.21 132.14,299.21 133.78,299.21 127.19,80.30" fill="none" stroke="#ea580c" stroke-width="2.5"/>
<circle cx="127.19" cy="80.30" r="3.5" fill="#ea580c"/>
<line x1="776" y1="80" x2="794" y2="80" stroke="#ea580c" stroke-width="3"/>
<text x="800" y="84" font-size="11" font-family="Arial, sans-serif" fill="#374151">trial-20260321-converge6</text>
<polyline points="127.19,299.21 128.84,299.21 130.49,299.21 132.14,299.21 133.78,299.21 127.19,84.96 128.84,70.50 130.49,68.64 132.14,68.64 133.78,68.64 135.43,68.64 137.08,68.64 138.73,68.64 140.38,68.64 142.02,68.64 142.02,68.64 143.67,67.15 145.32,67.15 145.32,67.15 145.32,67.15 145.32,67.15 145.32,67.15 146.97,66.79 148.61,66.79 150.26,66.79 151.91,66.79 153.56,66.79 155.20,66.79 156.85,66.79 158.50,66.79 158.50,66.79 160.15,66.79 161.80,66.79 163.44,66.79 165.09,66.79 165.09,66.79 165.09,66.79 165.09,66.79 166.74,66.64 168.39,66.64 170.03,66.64 171.68,66.64 173.33,66.64 174.98,66.64 174.98,66.64 176.62,66.64 178.27,66.64 179.92,66.64 181.57,66.64 183.22,66.64 184.86,66.64 184.86,66.64 184.86,66.64 184.86,66.64 186.51,66.64 188.16,66.64 189.81,66.64 191.45,66.64 191.45,66.64 193.10,66.64 194.75,66.64 196.40,66.64" fill="none" stroke="#7c3aed" stroke-width="2.5"/>
<circle cx="196.40" cy="66.64" r="3.5" fill="#7c3aed"/>
<line x1="776" y1="98" x2="794" y2="98" stroke="#7c3aed" stroke-width="3"/>
<text x="800" y="102" font-size="11" font-family="Arial, sans-serif" fill="#374151">trial-20260321-converge7</text>
<polyline points="127.19,371.45 127.19,234.29 128.84,218.68 130.49,218.68 132.14,217.21 133.78,215.76 135.43,215.76 137.08,215.76 138.73,215.76 140.38,215.76 142.02,215.76 142.02,215.76 143.67,215.76 145.32,215.76 146.97,215.76 148.61,215.76 150.26,215.76 151.91,215.76 153.56,215.76 155.20,215.76 156.85,215.76 158.50,215.76 158.50,215.76 160.15,215.76 161.80,215.76 163.44,215.76 165.09,215.76 166.74,215.76 168.39,215.76 170.03,215.76 171.68,215.76 173.33,215.76 174.98,215.76 174.98,215.76 176.62,215.76 178.27,215.76 179.92,215.76 181.57,215.76 183.22,215.76 184.86,215.76 186.51,215.76 188.16,215.76 189.81,215.76 191.45,215.76 191.45,215.76 193.10,215.76 194.75,215.76 196.40,215.76 198.05,215.76 199.69,215.76 201.34,215.76 202.99,215.76 204.64,215.76 206.28,215.76 207.93,215.76 207.93,215.76 209.58,215.76 211.23,215.76 212.88,215.76 214.52,215.76 216.17,215.76 217.82,215.76 219.47,215.76 221.11,215.76 222.76,215.76 224.41,215.76 224.41,215.76 226.06,215.76 227.70,215.76 229.35,215.76 231.00,212.82 232.65,212.82 234.30,212.82 235.94,212.82 237.59,212.82 239.24,212.82 240.89,212.82 240.89,212.82 242.53,212.82 244.18,212.82 245.83,212.82 247.48,212.82 249.12,212.82 250.77,212.82 252.42,212.82 254.07,212.82 255.72,212.82 257.36,212.82 257.36,212.82 259.01,212.82 260.66,212.82 262.31,212.82 263.95,212.82 265.60,212.82 267.25,212.82 268.90,212.82 270.55,212.82 272.19,212.82 273.84,212.82 273.84,212.82 275.49,212.82 277.14,212.82 278.78,212.82 280.43,212.82 280.43,212.82 280.43,212.82 280.43,212.82 280.43,212.82" fill="none" stroke="#0f766e" stroke-width="2.5"/>
<circle cx="280.43" cy="212.82" r="3.5" fill="#0f766e"/>
<line x1="776" y1="116" x2="794" y2="116" stroke="#0f766e" stroke-width="3"/>
<text x="800" y="120" font-size="11" font-family="Arial, sans-serif" fill="#374151">trial-20260321-full3</text>
<polyline points="127.19,299.21 128.84,299.21 130.49,299.21 132.14,299.21 133.78,299.21 127.19,186.17 128.84,108.52 130.49,108.52 132.14,108.52 133.78,108.52 135.43,108.52 137.08,108.52 138.73,108.52 140.38,108.52 142.02,66.31 142.02,66.31 143.67,66.31 145.32,66.31 145.32,66.31 145.32,66.31 145.32,66.31 145.32,66.31 146.97,66.31 148.61,66.31 150.26,66.31 151.91,66.31 153.56,66.31 155.20,66.31 156.85,66.31 158.50,66.31 158.50,66.31 160.15,66.31 161.80,65.53 163.44,65.53 165.09,65.53 165.09,65.53 165.09,65.53 165.09,65.53 165.09,65.53 166.74,65.53 168.39,65.46 170.03,65.46 171.68,65.46 173.33,65.46 174.98,65.46 174.98,65.46 176.62,65.46 178.27,65.46 179.92,65.46 181.57,65.46 183.22,65.46 184.86,65.46 184.86,65.46 184.86,65.46 184.86,65.46 184.86,65.46 186.51,65.46 188.16,65.46 189.81,65.46 191.45,65.46 191.45,65.46" fill="none" stroke="#c2410c" stroke-width="2.5"/>
<circle cx="191.45" cy="65.46" r="3.5" fill="#c2410c"/>
<line x1="776" y1="134" x2="794" y2="134" stroke="#c2410c" stroke-width="3"/>
<text x="800" y="138" font-size="11" font-family="Arial, sans-serif" fill="#374151">trial-20260321-full40-crossent1</text>
<polyline points="127.19,299.21 128.84,299.21 130.49,299.21 132.14,299.21 133.78,299.21 125.55,299.21 127.19,186.25 128.84,137.41 130.49,137.41 132.14,137.41 133.78,101.76 135.43,101.76 137.08,73.09 138.73,73.09 140.38,73.09 142.02,73.09 142.02,73.09 143.67,73.09 145.32,73.09 145.32,73.09 145.32,73.09 145.32,73.09 145.32,73.09 145.32,73.09 146.97,73.09 148.61,73.09 150.26,73.09 151.91,73.09 153.56,73.09 155.20,73.09 156.85,73.09 158.50,73.09 158.50,73.09 160.15,73.09 161.80,73.09 163.44,65.53 165.09,65.53 165.09,65.53 165.09,65.53 165.09,65.53 165.09,65.53 165.09,65.53 166.74,65.53 168.39,65.53 170.03,65.53 171.68,65.53 173.33,65.53 174.98,65.53 174.98,65.53 176.62,65.53 178.27,65.53 179.92,65.53 181.57,65.53 183.22,65.53 184.86,65.53 184.86,65.53 184.86,65.53 184.86,65.53 184.86,65.53 184.86,65.53 186.51,65.53 188.16,65.53 189.81,65.53 191.45,65.53 191.45,65.53 193.10,65.53 194.75,65.53 196.40,65.53 198.05,65.53 199.69,65.53 201.34,65.53 202.99,65.53 204.64,65.53 204.64,65.53 204.64,65.53 204.64,65.53 204.64,65.53 204.64,65.53 206.28,65.53 207.93,65.53 207.93,65.53 209.58,65.53 211.23,65.53 212.88,65.53 214.52,65.53 216.17,65.53 217.82,65.53 219.47,65.53 221.11,65.53 222.76,65.53 224.41,65.53 224.41,65.53 224.41,65.53 224.41,65.53 224.41,65.53 224.41,65.53 224.41,65.53 226.06,65.53 227.70,65.53 229.35,65.53 231.00,65.53 232.65,65.53 234.30,65.53 235.94,65.53 237.59,65.53 239.24,65.53 240.89,65.53 240.89,65.53 242.53,65.53 244.18,65.53 244.18,65.53 244.18,65.53 244.18,65.53 244.18,65.53 244.18,65.53 245.83,65.53 247.48,65.53 249.12,65.53 250.77,65.53 252.42,65.53 254.07,65.53 255.72,65.53 257.36,65.53 257.36,65.53 259.01,65.53 260.66,65.53 262.31,65.53 263.95,65.53 263.95,65.53 263.95,65.53 263.95,65.53 263.95,65.53 263.95,65.53 265.60,65.53 267.25,65.53 268.90,65.53 270.55,65.53" fill="none" stroke="#4f46e5" stroke-width="2.5"/>
<circle cx="270.55" cy="65.53" r="3.5" fill="#4f46e5"/>
<line x1="776" y1="152" x2="794" y2="152" stroke="#4f46e5" stroke-width="3"/>
<text x="800" y="156" font-size="11" font-family="Arial, sans-serif" fill="#374151">trial-20260321-full40-puretf1</text>
<polyline points="127.19,299.21 128.84,299.21 130.49,299.21 132.14,299.21 133.78,299.21 125.55,299.21 127.19,150.58 128.84,150.58 130.49,137.68 132.14,137.65 133.78,101.89 135.43,101.89 137.08,101.89 138.73,101.89 140.38,101.89 142.02,101.89 142.02,101.89 143.67,66.47 145.32,66.47 145.32,66.47 145.32,66.47 145.32,66.47 145.32,66.47 145.32,66.47 146.97,66.47 148.61,66.47" fill="none" stroke="#2563eb" stroke-width="2.5"/>
<circle cx="148.61" cy="66.47" r="3.5" fill="#2563eb"/>
<line x1="776" y1="170" x2="794" y2="170" stroke="#2563eb" stroke-width="3"/>
<text x="800" y="174" font-size="11" font-family="Arial, sans-serif" fill="#374151">trial-20260321-full40-tf08-1</text>
<polyline points="127.19,299.21 128.84,299.21 130.49,299.21 132.14,299.21 133.78,299.21 125.55,299.21 127.19,186.18 128.84,137.52 130.49,66.42 132.14,66.42 133.78,66.42 135.43,66.42 137.08,66.42 138.73,66.42 140.38,66.42 142.02,66.42 142.02,66.42 143.67,66.42 145.32,66.42 145.32,66.42" fill="none" stroke="#dc2626" stroke-width="2.5"/>
<circle cx="145.32" cy="66.42" r="3.5" fill="#dc2626"/>
<line x1="776" y1="188" x2="794" y2="188" stroke="#dc2626" stroke-width="3"/>
<text x="800" y="192" font-size="11" font-family="Arial, sans-serif" fill="#374151">trial-20260321-full40-tfmajority1</text>
<polyline points="127.19,299.21 128.84,299.21 130.49,299.21 132.14,299.21 133.78,299.21 127.19,149.78 128.84,136.89 130.49,136.89 132.14,136.89 133.78,136.89 135.43,100.90 137.08,100.90 138.73,65.53 140.38,65.53 142.02,65.53 142.02,65.53 143.67,65.53 145.32,65.53 145.32,65.53" fill="none" stroke="#059669" stroke-width="2.5"/>
<circle cx="145.32" cy="65.53" r="3.5" fill="#059669"/>
<line x1="776" y1="206" x2="794" y2="206" stroke="#059669" stroke-width="3"/>
<text x="800" y="210" font-size="11" font-family="Arial, sans-serif" fill="#374151">trial-20260321-stability1</text>
<polyline points="127.19,299.21 128.84,299.21 130.49,299.21 132.14,299.21 133.78,299.21 127.19,185.05 128.84,171.72 130.49,171.72 132.14,136.54 133.78,136.54 135.43,100.83 137.08,100.83 138.73,100.83 140.38,65.44 142.02,65.44 142.02,65.44 143.67,65.44 145.32,65.44 145.32,65.44 145.32,65.44 145.32,65.44 145.32,65.44 146.97,64.87 148.61,64.87 150.26,64.87 151.91,64.87 153.56,64.87 155.20,64.87 156.85,64.87 158.50,64.87 158.50,64.87 160.15,64.87 161.80,64.87 163.44,64.87 165.09,64.87 165.09,64.87 165.09,64.87 165.09,64.87 166.74,64.87 168.39,64.87 170.03,64.87 171.68,64.87 173.33,64.87 174.98,64.87 174.98,64.87 176.62,64.87 178.27,64.87 179.92,64.87 181.57,64.87 183.22,64.87 184.86,64.87 184.86,64.87 184.86,64.87 184.86,64.87" fill="none" stroke="#ea580c" stroke-width="2.5"/>
<circle cx="184.86" cy="64.87" r="3.5" fill="#ea580c"/>
<line x1="776" y1="224" x2="794" y2="224" stroke="#ea580c" stroke-width="3"/>
<text x="800" y="228" font-size="11" font-family="Arial, sans-serif" fill="#374151">trial-20260321-stability2</text>
<polyline points="127.19,299.21 128.84,299.21 130.49,299.21 132.14,299.21 133.78,299.21 127.19,149.56 128.84,149.56 130.49,136.64 132.14,136.50 133.78,136.50 135.43,136.50 137.08,136.50 138.73,136.50 140.38,65.31 142.02,65.31 142.02,65.31 143.67,65.31 145.32,65.31 145.32,65.31 145.32,65.31 145.32,65.31 145.32,65.31 146.97,65.31 148.61,65.31 150.26,65.31 151.91,65.31 153.56,65.31 155.20,65.31 156.85,65.31 158.50,65.31 158.50,65.31 160.15,65.31 161.80,65.31 163.44,65.31 165.09,64.55 165.09,64.55 165.09,64.55 165.09,64.55 166.74,64.55 168.39,64.55 170.03,64.55 171.68,64.55 173.33,64.55 174.98,64.55 174.98,64.55 176.62,64.55 178.27,64.55 179.92,64.55 181.57,64.55 183.22,64.55 184.86,64.55 184.86,64.55 184.86,64.55 184.86,64.55 184.86,64.55" fill="none" stroke="#7c3aed" stroke-width="2.5"/>
<circle cx="184.86" cy="64.55" r="3.5" fill="#7c3aed"/>
<line x1="776" y1="242" x2="794" y2="242" stroke="#7c3aed" stroke-width="3"/>
<text x="800" y="246" font-size="11" font-family="Arial, sans-serif" fill="#374151">trial-20260321-stability3</text>
<polyline points="127.19,299.21 128.84,299.21 130.49,299.21 132.14,299.21 133.78,299.21 127.19,150.89 128.84,144.57 130.49,137.68 132.14,137.68 133.78,66.56 135.43,66.56 137.08,66.56 138.73,66.56 140.38,66.56 142.02,66.56 142.02,66.56 143.67,66.56 145.32,66.56 145.32,66.56 145.32,66.56 145.32,66.56 145.32,66.56 146.97,66.56 148.61,66.56 150.26,66.56 151.91,66.56 153.56,66.56 155.20,66.56 156.85,66.56 158.50,66.56 158.50,66.56 160.15,66.56 161.80,66.56 163.44,66.56 165.09,66.56 165.09,66.56 165.09,66.56 165.09,66.56 166.74,66.56 168.39,66.56 170.03,66.56 171.68,66.56 173.33,66.56 174.98,66.56 174.98,66.56 176.62,66.56 178.27,66.56 179.92,66.56 181.57,66.56 183.22,66.56 184.86,66.56 184.86,66.56 184.86,66.56 184.86,66.56" fill="none" stroke="#0f766e" stroke-width="2.5"/>
<circle cx="184.86" cy="66.56" r="3.5" fill="#0f766e"/>
<line x1="776" y1="260" x2="794" y2="260" stroke="#0f766e" stroke-width="3"/>
<text x="800" y="264" font-size="11" font-family="Arial, sans-serif" fill="#374151">trial-20260321-stability4</text>
<polyline points="127.19,299.21 128.84,299.21 130.49,299.21 132.14,299.21 133.78,299.21 127.19,186.23 128.84,137.49 130.49,101.91 132.14,101.73 133.78,101.73 135.43,101.73 137.08,101.73 138.73,101.73 140.38,101.73 142.02,101.73 142.02,101.73 143.67,101.73 145.32,73.13 145.32,73.13 145.32,73.13 145.32,73.13 145.32,73.13 146.97,73.13 148.61,65.65 150.26,65.65 151.91,65.65 153.56,65.65 155.20,65.65 156.85,65.65 158.50,65.65 158.50,65.65 160.15,65.65 161.80,65.65 163.44,65.65 165.09,65.65 165.09,65.65 165.09,65.65 165.09,65.65 165.09,65.65 166.74,65.65 168.39,65.65 170.03,65.65 171.68,65.65 173.33,65.65 174.98,65.65 174.98,65.65 176.62,65.65 178.27,65.65 179.92,65.65 181.57,65.65 183.22,65.65 184.86,65.65 184.86,65.65 184.86,65.65 184.86,65.65 184.86,65.65 184.86,65.65" fill="none" stroke="#c2410c" stroke-width="2.5"/>
<circle cx="184.86" cy="65.65" r="3.5" fill="#c2410c"/>
<line x1="776" y1="278" x2="794" y2="278" stroke="#c2410c" stroke-width="3"/>
<text x="800" y="282" font-size="11" font-family="Arial, sans-serif" fill="#374151">trial-20260321-stability5</text>
</svg>