<svg xmlns="http://www.w3.org/2000/svg" width="980" height="460" viewBox="0 0 980 460">
<rect width="100%" height="100%" fill="#ffffff"/>
<text x="86" y="24" font-size="20" font-family="Arial, sans-serif" fill="#111827">Train Step Total Loss</text>
<text x="86" y="442" font-size="12" font-family="Arial, sans-serif" fill="#4b5563">step / epoch</text>
<text x="18" y="52" font-size="12" font-family="Arial, sans-serif" fill="#4b5563" transform="rotate(-90 18 52)">train_step/loss_total</text>
<line x1="86" y1="396.00" x2="956" y2="396.00" stroke="#e5e7eb" stroke-width="1"/>
<text x="76" y="400.00" font-size="11" text-anchor="end" font-family="Arial, sans-serif" fill="#6b7280">-6.1619</text>
<line x1="86" y1="307.00" x2="956" y2="307.00" stroke="#e5e7eb" stroke-width="1"/>
<text x="76" y="311.00" font-size="11" text-anchor="end" font-family="Arial, sans-serif" fill="#6b7280">19.2425</text>
<line x1="86" y1="218.00" x2="956" y2="218.00" stroke="#e5e7eb" stroke-width="1"/>
<text x="76" y="222.00" font-size="11" text-anchor="end" font-family="Arial, sans-serif" fill="#6b7280">44.6469</text>
<line x1="86" y1="129.00" x2="956" y2="129.00" stroke="#e5e7eb" stroke-width="1"/>
<text x="76" y="133.00" font-size="11" text-anchor="end" font-family="Arial, sans-serif" fill="#6b7280">70.0513</text>
<line x1="86" y1="40.00" x2="956" y2="40.00" stroke="#e5e7eb" stroke-width="1"/>
<text x="76" y="44.00" font-size="11" text-anchor="end" font-family="Arial, sans-serif" fill="#6b7280">95.4558</text>
<line x1="86.00" y1="40" x2="86.00" y2="396" stroke="#f3f4f6" stroke-width="1"/>
<text x="86.00" y="420" font-size="11" text-anchor="middle" font-family="Arial, sans-serif" fill="#6b7280">-22.9500</text>
<line x1="260.00" y1="40" x2="260.00" y2="396" stroke="#f3f4f6" stroke-width="1"/>
<text x="260.00" y="420" font-size="11" text-anchor="middle" font-family="Arial, sans-serif" fill="#6b7280">82.4300</text>
<line x1="434.00" y1="40" x2="434.00" y2="396" stroke="#f3f4f6" stroke-width="1"/>
<text x="434.00" y="420" font-size="11" text-anchor="middle" font-family="Arial, sans-serif" fill="#6b7280">187.81</text>
<line x1="608.00" y1="40" x2="608.00" y2="396" stroke="#f3f4f6" stroke-width="1"/>
<text x="608.00" y="420" font-size="11" text-anchor="middle" font-family="Arial, sans-serif" fill="#6b7280">293.19</text>
<line x1="782.00" y1="40" x2="782.00" y2="396" stroke="#f3f4f6" stroke-width="1"/>
<text x="782.00" y="420" font-size="11" text-anchor="middle" font-family="Arial, sans-serif" fill="#6b7280">398.57</text>
<line x1="956.00" y1="40" x2="956.00" y2="396" stroke="#f3f4f6" stroke-width="1"/>
<text x="956.00" y="420" font-size="11" text-anchor="middle" font-family="Arial, sans-serif" fill="#6b7280">503.95</text>
<rect x="86" y="40" width="870" height="356" fill="none" stroke="#d1d5db" stroke-width="1"/>
<polyline points="125.55,366.44 127.20,339.05 128.85,363.93 130.50,363.41 132.15,359.76 133.80,357.23 135.45,360.85 137.10,363.05 138.75,348.91 140.41,363.76 140.41,358.64 142.06,362.86 143.71,355.26 145.36,364.81 147.01,343.10 148.66,367.07 150.31,362.38 151.96,364.43 153.62,360.97 155.27,361.97 156.92,362.38 156.92,360.52 158.57,364.45 160.22,364.04 161.87,362.85 163.52,366.92 165.17,359.26 166.82,365.27 168.48,362.17 170.13,363.56 171.78,361.45 173.43,365.09 173.43,363.50 175.08,367.55 176.73,360.15 178.38,366.73 180.03,364.48 181.69,364.66 183.34,365.01 184.99,364.69 186.64,368.99 188.29,365.11 189.94,358.12 189.94,364.55 191.59,357.46 193.24,365.92 194.89,364.80 196.55,364.38 198.20,366.53 199.85,365.00 201.50,357.24 203.15,354.94 204.80,361.42 206.45,359.21 206.45,361.69 208.10,360.16 209.75,366.88 211.41,369.70 213.06,365.25 214.71,361.99 216.36,364.24 218.01,361.01 219.66,362.60 221.31,361.14 222.96,364.75 222.96,363.77 224.62,367.96 226.27,363.97 227.92,366.41 229.57,362.38 231.22,365.93 232.87,324.98 234.52,365.54 236.17,365.41 237.82,356.62 239.48,351.86 239.48,359.11 241.13,369.10 242.78,366.60 244.43,366.71 246.08,366.23 247.73,363.47 249.38,368.16 251.03,366.77 252.69,366.72 254.34,365.51 255.99,361.60 255.99,366.09 257.64,363.13 259.29,369.44 260.94,353.74 262.59,370.43 264.24,368.37 265.89,365.95 267.55,359.69 269.20,368.85 270.85,365.06 272.50,364.48 272.50,364.91 274.15,360.04 275.80,344.21 277.45,363.58 279.10,366.18 280.76,364.48 282.41,364.05 284.06,369.55 285.71,366.40 287.36,365.67 289.01,369.77 289.01,363.39 290.66,366.46 292.31,369.63 293.96,366.83 295.62,364.86 297.27,363.61 298.92,361.13 300.57,366.23 302.22,362.26 303.87,365.44 305.52,360.29 305.52,364.67 307.17,361.37 308.83,369.64 310.48,360.83 312.13,369.36 313.78,368.88 315.43,368.20 317.08,350.77 318.73,365.50 320.38,369.31 322.03,361.84 322.03,364.57 323.69,368.51 325.34,364.96 326.99,362.83 328.64,369.40 330.29,366.52 331.94,359.28 333.59,367.30 335.24,365.21 336.89,362.96 338.55,365.47 338.55,365.24 340.20,368.28 341.85,370.01 343.50,350.08 345.15,363.85 346.80,369.66 348.45,364.40 350.10,365.30 351.76,365.86 353.41,369.94 355.06,365.95 355.06,365.33 356.71,361.07 358.36,365.73 360.01,364.59 361.66,366.55 363.31,366.60 364.96,369.01 366.62,369.52 368.27,365.16 369.92,362.17 371.57,361.04 371.57,365.14 373.22,367.00 374.87,367.57 376.52,366.33 378.17,361.85 379.83,362.77 381.48,365.81 383.13,364.53 384.78,368.32 386.43,365.44 388.08,367.81 388.08,365.74 389.73,367.17 391.38,365.10 393.03,364.54 394.69,368.63 396.34,359.94 397.99,365.85 399.64,364.95 401.29,365.58 402.94,369.50 404.59,365.75 404.59,365.70 406.24,366.92 407.90,362.36 409.55,366.55 411.20,367.17 412.85,361.00 414.50,364.43 416.15,366.78 417.80,359.89 419.45,368.99 421.10,367.85 421.10,365.19 422.76,367.89 424.41,362.23 426.06,362.97 427.71,357.58 429.36,367.30 431.01,370.98 432.66,366.79 434.31,317.51 435.96,367.91 437.62,369.46 437.62,361.06 439.27,364.76 440.92,365.34 442.57,351.87 444.22,369.35 445.87,361.95 447.52,365.57 449.17,365.30 450.83,369.87 452.48,365.52 454.13,360.52 454.13,364.01 455.78,366.15 457.43,364.69 459.08,364.26 460.73,369.57 462.38,366.69 464.03,355.54 465.69,370.11 467.34,364.21 468.99,367.07 470.64,367.92 470.64,365.62 472.29,369.53 473.94,366.80 475.59,364.67 477.24,366.04 478.90,365.22 480.55,366.23 482.20,366.94 483.85,367.20 485.50,368.82 487.15,357.84 487.15,365.93 488.80,371.10 490.45,369.25 492.10,364.74 493.76,366.90 495.41,369.84 497.06,362.51 498.71,366.96 500.36,368.71 502.01,369.62 503.66,356.64 503.66,366.63 505.31,366.82 506.97,366.51 508.62,359.73 510.27,371.14 511.92,367.37 513.57,366.40 515.22,367.24 516.87,368.72 518.52,366.30 520.17,366.63 520.17,366.68 521.83,368.39 523.48,364.87 525.13,367.23 526.78,358.19 528.43,368.65 530.08,362.45 531.73,367.93 533.38,369.01 535.03,361.02 536.69,366.05 536.69,365.38 538.34,365.51 539.99,366.90 541.64,369.77 543.29,365.83 544.94,367.15 546.59,366.07 548.24,369.79 549.90,361.22 551.55,362.54 553.20,367.95 553.20,366.27 554.85,367.39 556.50,365.20 558.15,367.92 559.80,370.16 561.45,363.96 563.10,366.77 564.76,367.78 566.41,365.41 568.06,368.38 569.71,366.67 569.71,366.96 571.36,365.22 573.01,371.02 574.66,365.89 576.31,369.95 577.97,366.67 579.62,369.91 581.27,360.94 582.92,365.90 584.57,363.17 586.22,370.84 586.22,366.95 587.87,367.73 589.52,363.23 591.17,366.34 592.83,369.55 594.48,368.03 596.13,367.39 597.78,360.60 599.43,367.85 601.08,368.19 602.73,365.37 602.73,366.43 604.38,369.46 606.04,368.02 607.69,367.96 609.34,367.80 610.99,367.51 612.64,366.70 614.29,366.58 615.94,368.16 617.59,361.46 619.24,366.05 619.24,366.97 620.90,363.96 622.55,367.85 624.20,366.40 625.85,367.69 627.50,370.87 629.15,363.87 630.80,366.57 632.45,365.07 634.10,361.60 635.76,369.12 635.76,366.30 637.41,358.31 639.06,360.14 640.71,366.66 642.36,360.05 644.01,366.09 645.66,365.16 647.31,369.66 648.97,366.38 650.62,367.02 652.27,361.32 652.27,364.08 653.92,368.90 655.57,367.32 657.22,364.72 658.87,363.54 660.52,365.72 662.17,369.07 663.83,367.02 665.48,370.58 667.13,360.95 668.78,367.78 668.78,366.56 670.43,362.19 672.08,366.77 673.73,366.40 675.38,352.26 677.04,359.64 678.69,369.35 680.34,367.30 681.99,366.57 683.64,365.97 685.29,365.94 685.29,364.24 686.94,366.85 688.59,369.66 690.24,367.61 691.90,366.67 693.55,367.75 695.20,366.94 696.85,366.77 698.50,370.26 700.15,366.57 701.80,368.49 701.80,367.76 703.45,357.54 705.11,359.31 706.76,364.47 708.41,369.32 710.06,369.81 711.71,367.32 713.36,365.41 715.01,368.26 716.66,366.81 718.31,360.97 718.31,364.92 719.97,369.00 721.62,360.41 723.27,367.60 724.92,369.20 726.57,370.24 728.22,370.91 729.87,367.95 731.52,365.62 733.17,366.97 734.83,370.23 734.83,367.81 736.48,366.96 738.13,371.06 739.78,370.21 741.43,365.45 743.08,371.30 744.73,370.05 746.38,367.09 748.04,367.50 749.69,370.71 751.34,364.12 751.34,368.44 752.99,369.89 754.64,362.96 756.29,367.22 757.94,366.77 759.59,368.03 761.24,360.47 762.90,358.01 764.55,369.89 766.20,355.96 767.85,363.01 767.85,364.22 769.50,370.30 771.15,370.31 772.80,371.36 774.45,357.18 776.11,363.67 777.76,369.02 779.41,369.70 781.06,370.16 782.71,364.82 784.36,371.45 784.36,367.80 786.01,366.24 787.66,366.96 789.31,367.88 790.97,366.08 792.62,357.77 794.27,365.18 795.92,365.05 797.57,369.03 799.22,366.69 800.87,367.91 800.87,365.88 802.52,367.08 804.18,369.94 805.83,371.32 807.48,359.86 809.13,366.94 810.78,367.04 812.43,358.62 814.08,367.98 815.73,363.16 817.38,362.97 817.38,365.49 819.04,370.32 820.69,370.02 822.34,360.59 823.99,366.04 825.64,370.01 827.29,364.17 828.94,366.72 830.59,370.89 832.25,361.25 833.90,367.44 833.90,366.75 835.55,365.99 837.20,361.76 838.85,367.27 840.50,369.99 842.15,366.13 843.80,362.37 845.45,370.13 847.11,369.01 848.76,365.94 850.41,367.17 850.41,366.58 852.06,366.96 853.71,369.72 855.36,370.78 857.01,359.93 858.66,365.54 860.31,363.98 861.97,368.48 863.62,364.04 865.27,366.62 866.92,348.76 866.92,364.48 868.57,358.93 870.22,366.91 871.87,365.72 873.52,368.00 875.18,369.47 876.83,366.76 878.48,369.68 880.13,369.99 881.78,366.67 883.43,365.46 883.43,366.76 885.08,367.74 886.73,365.54 888.38,367.58 890.04,367.94 891.69,368.01 893.34,370.72 894.99,370.97 896.64,369.50 898.29,369.57 899.94,365.89 899.94,368.35 901.59,362.95 903.25,369.93 904.90,366.03 906.55,367.25 908.20,366.47 909.85,364.40 911.50,369.49 913.15,364.96 914.80,369.73 916.45,361.22 916.45,366.24" fill="none" stroke="#2563eb" stroke-width="2.5"/>
<circle cx="916.45" cy="366.24" r="3.5" fill="#2563eb"/>
<line x1="776" y1="26" x2="794" y2="26" stroke="#2563eb" stroke-width="3"/>
<text x="800" y="30" font-size="11" font-family="Arial, sans-serif" fill="#374151">trial-20260321-cleandata1</text>
<polyline points="125.55,334.83 127.20,323.64 128.85,332.38 130.50,334.78 132.15,316.62" fill="none" stroke="#dc2626" stroke-width="2.5"/>
<circle cx="132.15" cy="316.62" r="3.5" fill="#dc2626"/>
<line x1="776" y1="44" x2="794" y2="44" stroke="#dc2626" stroke-width="3"/>
<text x="800" y="48" font-size="11" font-family="Arial, sans-serif" fill="#374151">trial-20260321-converge5</text>
<polyline points="125.55,334.25" fill="none" stroke="#059669" stroke-width="2.5"/>
<circle cx="125.55" cy="334.25" r="3.5" fill="#059669"/>
<line x1="776" y1="62" x2="794" y2="62" stroke="#059669" stroke-width="3"/>
<text x="800" y="66" font-size="11" font-family="Arial, sans-serif" fill="#374151">trial-20260321-converge6</text>
<polyline points="125.55,326.93 127.20,335.24 128.85,333.14 130.50,329.32 132.15,333.84 133.80,334.30 135.45,321.63 137.10,317.76 138.75,330.10 140.41,327.96 140.41,329.02 142.06,334.13 143.71,325.39 145.36,326.35 147.01,331.03 148.66,306.79 150.31,312.86 151.96,326.42 153.62,334.09 155.27,323.82 156.92,335.83 156.92,325.67 158.57,336.19 160.22,327.81 161.87,315.99 163.52,323.41 165.17,332.17 166.82,334.88 168.48,330.05 170.13,320.08 171.78,333.01 173.43,336.01 173.43,328.96 175.08,332.05 176.73,315.38 178.38,332.24 180.03,323.32 181.69,335.03 183.34,322.63 184.99,331.90 186.64,324.92 188.29,331.24 189.94,326.48 189.94,327.52 191.59,319.65 193.24,334.47 194.89,335.78" fill="none" stroke="#ea580c" stroke-width="2.5"/>
<circle cx="194.89" cy="335.78" r="3.5" fill="#ea580c"/>
<line x1="776" y1="80" x2="794" y2="80" stroke="#ea580c" stroke-width="3"/>
<text x="800" y="84" font-size="11" font-family="Arial, sans-serif" fill="#374151">trial-20260321-converge7</text>
<polyline points="125.55,358.72 127.20,364.79 128.85,362.59 130.50,359.01 132.15,363.60 133.80,363.07 135.45,356.71 137.10,363.78 138.75,361.76 140.41,363.81 140.41,361.78 142.06,362.21 143.71,360.80 145.36,360.21 147.01,363.13 148.66,364.75 150.31,364.67 151.96,364.15 153.62,365.20 155.27,361.46 156.92,356.93 156.92,362.35 158.57,361.49 160.22,360.70 161.87,361.09 163.52,357.37 165.17,365.95 166.82,362.22 168.48,366.71 170.13,357.79 171.78,361.99 173.43,361.62 173.43,361.69 175.08,361.88 176.73,364.93 178.38,362.75 180.03,361.67 181.69,357.75 183.34,364.05 184.99,360.34 186.64,366.17 188.29,357.99 189.94,362.38 189.94,361.99" fill="none" stroke="#7c3aed" stroke-width="2.5"/>
<circle cx="189.94" cy="361.99" r="3.5" fill="#7c3aed"/>
<line x1="776" y1="98" x2="794" y2="98" stroke="#7c3aed" stroke-width="3"/>
<text x="800" y="102" font-size="11" font-family="Arial, sans-serif" fill="#374151">trial-20260321-full40-crossent1</text>
<polyline points="125.55,356.14 127.20,364.44 128.85,362.91 130.50,349.88 132.15,360.80 133.80,364.40 135.45,360.07 137.10,359.25 138.75,353.84 140.41,360.01 140.41,359.17 142.06,363.27 143.71,363.12 145.36,362.40 147.01,364.52 148.66,362.25 150.31,355.22 151.96,368.03 153.62,364.61 155.27,360.12 156.92,360.81 156.92,362.43 158.57,337.30 160.22,362.24 161.87,362.10 163.52,346.28 165.17,360.75 166.82,361.77 168.48,366.20 170.13,364.87 171.78,366.22 173.43,350.62 173.43,357.83 175.08,358.21 176.73,364.96 178.38,366.02 180.03,356.48 181.69,362.78 183.34,362.24 184.99,365.16 186.64,354.30 188.29,368.53 189.94,358.58 189.94,361.73 191.59,367.50 193.24,366.04 194.89,364.86 196.55,362.41 198.20,364.87 199.85,369.10 201.50,367.47 203.15,358.52 204.80,360.52 206.45,365.13 206.45,364.64 208.10,357.55 209.75,364.42 211.41,365.38 213.06,369.29 214.71,360.24 216.36,366.11 218.01,364.75 219.66,365.80 221.31,360.28 222.96,362.09 222.96,363.59 224.62,364.27 226.27,364.84 227.92,359.62 229.57,361.89 231.22,363.02 232.87,367.17 234.52,368.14 236.17,362.68 237.82,365.88 239.48,364.00 239.48,364.15 241.13,367.57 242.78,367.18 244.43,346.98 246.08,348.70 247.73,366.16 249.38,363.62 251.03,360.64 252.69,365.56 254.34,364.98 255.99,358.41 255.99,360.98 257.64,358.89 259.29,365.34 260.94,364.69 262.59,363.64 264.24,363.01 265.89,369.27 267.55,366.22 269.20,364.83" fill="none" stroke="#0f766e" stroke-width="2.5"/>
<circle cx="269.20" cy="364.83" r="3.5" fill="#0f766e"/>
<line x1="776" y1="116" x2="794" y2="116" stroke="#0f766e" stroke-width="3"/>
<text x="800" y="120" font-size="11" font-family="Arial, sans-serif" fill="#374151">trial-20260321-full40-puretf1</text>
<polyline points="125.55,345.05 127.20,359.70 128.85,363.88 130.50,358.19 132.15,364.87 133.80,368.63 135.45,353.42 137.10,361.26 138.75,359.83 140.41,365.22 140.41,360.00 142.06,361.88 143.71,358.48 145.36,366.85 147.01,361.07" fill="none" stroke="#c2410c" stroke-width="2.5"/>
<circle cx="147.01" cy="361.07" r="3.5" fill="#c2410c"/>
<line x1="776" y1="134" x2="794" y2="134" stroke="#c2410c" stroke-width="3"/>
<text x="800" y="138" font-size="11" font-family="Arial, sans-serif" fill="#374151">trial-20260321-full40-tf08-1</text>
<polyline points="125.55,361.26 127.20,366.17 128.85,367.29 130.50,359.15 132.15,365.65 133.80,358.66 135.45,359.97 137.10,361.42 138.75,366.74 140.41,357.56 140.41,362.39 142.06,359.97 143.71,360.70" fill="none" stroke="#4f46e5" stroke-width="2.5"/>
<circle cx="143.71" cy="360.70" r="3.5" fill="#4f46e5"/>
<line x1="776" y1="152" x2="794" y2="152" stroke="#4f46e5" stroke-width="3"/>
<text x="800" y="156" font-size="11" font-family="Arial, sans-serif" fill="#374151">trial-20260321-full40-tfmajority1</text>
<polyline points="125.55,91.75 127.20,79.53 128.85,324.67 130.50,89.06 132.15,86.04 133.80,206.65 135.45,324.30 137.10,64.55 138.75,89.83 140.41,78.62 140.41,143.50 142.06,87.59 143.71,88.62" fill="none" stroke="#2563eb" stroke-width="2.5"/>
<circle cx="143.71" cy="88.62" r="3.5" fill="#2563eb"/>
<line x1="776" y1="170" x2="794" y2="170" stroke="#2563eb" stroke-width="3"/>
<text x="800" y="174" font-size="11" font-family="Arial, sans-serif" fill="#374151">trial-20260321-stability1</text>
<polyline points="125.55,339.10 127.20,335.57 128.85,331.80 130.50,324.59 132.15,320.65 133.80,339.58 135.45,339.41 137.10,332.52 138.75,333.77 140.41,330.51 140.41,332.75 142.06,322.55 143.71,337.22 145.36,333.24 147.01,329.91 148.66,338.73 150.31,327.54 151.96,337.82 153.62,338.72 155.27,338.80 156.92,339.86 156.92,334.44 158.57,325.65 160.22,331.50 161.87,340.21 163.52,318.75 165.17,336.97 166.82,310.77 168.48,341.40 170.13,319.75 171.78,334.02 173.43,340.33 173.43,329.94 175.08,329.70 176.73,337.09 178.38,341.51 180.03,319.71 181.69,340.75 183.34,333.55" fill="none" stroke="#dc2626" stroke-width="2.5"/>
<circle cx="183.34" cy="333.55" r="3.5" fill="#dc2626"/>
<line x1="776" y1="188" x2="794" y2="188" stroke="#dc2626" stroke-width="3"/>
<text x="800" y="192" font-size="11" font-family="Arial, sans-serif" fill="#374151">trial-20260321-stability2</text>
<polyline points="125.55,335.84 127.20,334.22 128.85,314.09 130.50,325.51 132.15,337.56 133.80,336.76 135.45,335.92 137.10,307.81 138.75,321.46 140.41,339.00 140.41,328.82 142.06,340.79 143.71,339.43 145.36,338.38 147.01,334.85 148.66,337.43 150.31,328.96 151.96,337.01 153.62,336.45 155.27,337.14 156.92,338.13 156.92,336.86 158.57,335.50 160.22,324.94 161.87,326.17 163.52,333.25 165.17,335.70 166.82,326.02 168.48,339.72 170.13,326.34 171.78,328.97 173.43,339.00 173.43,331.56 175.08,337.27 176.73,341.66 178.38,332.91 180.03,334.71 181.69,340.32 183.34,338.77" fill="none" stroke="#059669" stroke-width="2.5"/>
<circle cx="183.34" cy="338.77" r="3.5" fill="#059669"/>
<line x1="776" y1="206" x2="794" y2="206" stroke="#059669" stroke-width="3"/>
<text x="800" y="210" font-size="11" font-family="Arial, sans-serif" fill="#374151">trial-20260321-stability3</text>
<polyline points="125.55,344.87 127.20,341.14 128.85,334.69 130.50,332.43 132.15,321.12 133.80,340.99 135.45,336.26 137.10,339.15 138.75,340.17 140.41,340.11 140.41,337.09 142.06,339.98 143.71,336.22 145.36,328.76 147.01,340.50 148.66,334.53 150.31,338.66 151.96,335.91 153.62,336.98 155.27,345.95 156.92,336.87 156.92,337.44 158.57,337.23 160.22,340.86 161.87,343.14 163.52,335.28 165.17,339.44 166.82,339.13 168.48,340.39 170.13,339.97 171.78,338.75 173.43,334.76 173.43,338.89 175.08,342.59 176.73,345.65 178.38,344.01 180.03,343.25 181.69,341.40 183.34,343.33" fill="none" stroke="#ea580c" stroke-width="2.5"/>
<circle cx="183.34" cy="343.33" r="3.5" fill="#ea580c"/>
<line x1="776" y1="224" x2="794" y2="224" stroke="#ea580c" stroke-width="3"/>
<text x="800" y="228" font-size="11" font-family="Arial, sans-serif" fill="#374151">trial-20260321-stability4</text>
<polyline points="125.55,351.44 127.20,366.49 128.85,356.93 130.50,361.53 132.15,357.02 133.80,360.63 135.45,362.60 137.10,362.17 138.75,357.51 140.41,355.24 140.41,359.16 142.06,357.30 143.71,359.78 145.36,364.75 147.01,360.04 148.66,354.44 150.31,361.40 151.96,363.11 153.62,360.81 155.27,355.05 156.92,367.07 156.92,360.38 158.57,359.37 160.22,366.41 161.87,360.89 163.52,361.36 165.17,361.27 166.82,362.71 168.48,363.17 170.13,343.57 171.78,356.56 173.43,354.24 173.43,358.96 175.08,357.53 176.73,363.85 178.38,367.68 180.03,365.36 181.69,361.96 183.34,361.59" fill="none" stroke="#7c3aed" stroke-width="2.5"/>
<circle cx="183.34" cy="361.59" r="3.5" fill="#7c3aed"/>
<line x1="776" y1="242" x2="794" y2="242" stroke="#7c3aed" stroke-width="3"/>
<text x="800" y="246" font-size="11" font-family="Arial, sans-serif" fill="#374151">trial-20260321-stability5</text>
</svg>