<svg xmlns="http://www.w3.org/2000/svg" width="980" height="460" viewBox="0 0 980 460">
<rect width="100%" height="100%" fill="#ffffff"/>
<text x="86" y="24" font-size="20" font-family="Arial, sans-serif" fill="#111827">Train Step Stage 1 Loss</text>
<text x="86" y="442" font-size="12" font-family="Arial, sans-serif" fill="#4b5563">step / epoch</text>
<text x="18" y="52" font-size="12" font-family="Arial, sans-serif" fill="#4b5563" transform="rotate(-90 18 52)">train_step/loss_stage1</text>
<line x1="86" y1="396.00" x2="956" y2="396.00" stroke="#e5e7eb" stroke-width="1"/>
<text x="76" y="400.00" font-size="11" text-anchor="end" font-family="Arial, sans-serif" fill="#6b7280">0.133769</text>
<line x1="86" y1="307.00" x2="956" y2="307.00" stroke="#e5e7eb" stroke-width="1"/>
<text x="76" y="311.00" font-size="11" text-anchor="end" font-family="Arial, sans-serif" fill="#6b7280">0.798977</text>
<line x1="86" y1="218.00" x2="956" y2="218.00" stroke="#e5e7eb" stroke-width="1"/>
<text x="76" y="222.00" font-size="11" text-anchor="end" font-family="Arial, sans-serif" fill="#6b7280">1.4642</text>
<line x1="86" y1="129.00" x2="956" y2="129.00" stroke="#e5e7eb" stroke-width="1"/>
<text x="76" y="133.00" font-size="11" text-anchor="end" font-family="Arial, sans-serif" fill="#6b7280">2.1294</text>
<line x1="86" y1="40.00" x2="956" y2="40.00" stroke="#e5e7eb" stroke-width="1"/>
<text x="76" y="44.00" font-size="11" text-anchor="end" font-family="Arial, sans-serif" fill="#6b7280">2.7946</text>
<line x1="86.00" y1="40" x2="86.00" y2="396" stroke="#f3f4f6" stroke-width="1"/>
<text x="86.00" y="420" font-size="11" text-anchor="middle" font-family="Arial, sans-serif" fill="#6b7280">-22.9500</text>
<line x1="260.00" y1="40" x2="260.00" y2="396" stroke="#f3f4f6" stroke-width="1"/>
<text x="260.00" y="420" font-size="11" text-anchor="middle" font-family="Arial, sans-serif" fill="#6b7280">82.4300</text>
<line x1="434.00" y1="40" x2="434.00" y2="396" stroke="#f3f4f6" stroke-width="1"/>
<text x="434.00" y="420" font-size="11" text-anchor="middle" font-family="Arial, sans-serif" fill="#6b7280">187.81</text>
<line x1="608.00" y1="40" x2="608.00" y2="396" stroke="#f3f4f6" stroke-width="1"/>
<text x="608.00" y="420" font-size="11" text-anchor="middle" font-family="Arial, sans-serif" fill="#6b7280">293.19</text>
<line x1="782.00" y1="40" x2="782.00" y2="396" stroke="#f3f4f6" stroke-width="1"/>
<text x="782.00" y="420" font-size="11" text-anchor="middle" font-family="Arial, sans-serif" fill="#6b7280">398.57</text>
<line x1="956.00" y1="40" x2="956.00" y2="396" stroke="#f3f4f6" stroke-width="1"/>
<text x="956.00" y="420" font-size="11" text-anchor="middle" font-family="Arial, sans-serif" fill="#6b7280">503.95</text>
<rect x="86" y="40" width="870" height="356" fill="none" stroke="#d1d5db" stroke-width="1"/>
<polyline points="125.55,174.16 127.20,64.55 128.85,124.75 130.50,150.24 132.15,121.82 133.80,254.22 135.45,149.12 137.10,120.10 138.75,117.59 140.41,143.88 140.41,142.04 142.06,69.60 143.71,143.23 145.36,130.27 147.01,108.87 148.66,185.67 150.31,151.43 151.96,133.46 153.62,274.89 155.27,272.82 156.92,152.91 156.92,162.32 158.57,204.13 160.22,122.54 161.87,202.36 163.52,196.78 165.17,243.15 166.82,186.37 168.48,153.61 170.13,156.64 171.78,170.01 173.43,170.03 173.43,180.56 175.08,263.85 176.73,105.46 178.38,247.67 180.03,237.73 181.69,153.86 183.34,260.15 184.99,215.46 186.64,291.39 188.29,143.36 189.94,176.38 189.94,209.53 191.59,197.23 193.24,194.16 194.89,298.93 196.55,164.63 198.20,287.61 199.85,242.40 201.50,202.38 203.15,172.32 204.80,186.23 206.45,165.98 206.45,211.19 208.10,201.38 209.75,245.93 211.41,317.23 213.06,174.07 214.71,206.89 216.36,248.19 218.01,286.76 219.66,191.87 221.31,189.76 222.96,247.47 222.96,230.96 224.62,278.00 226.27,161.04 227.92,344.60 229.57,296.20 231.22,192.61 232.87,137.41 234.52,186.90 236.17,173.01 237.82,188.86 239.48,169.89 239.48,212.85 241.13,318.70 242.78,200.25 244.43,285.19 246.08,254.49 247.73,304.84 249.38,294.56 251.03,321.66 252.69,310.07 254.34,188.17 255.99,176.00 255.99,265.39 257.64,320.61 259.29,306.24 260.94,172.94 262.59,341.95 264.24,295.83 265.89,178.26 267.55,135.71 269.20,250.43 270.85,177.53 272.50,270.45 272.50,244.99 274.15,211.82 275.80,163.68 277.45,193.37 279.10,183.20 280.76,159.21 282.41,249.21 284.06,309.68 285.71,202.32 287.36,192.73 289.01,323.28 289.01,218.85 290.66,310.88 292.31,300.34 293.96,202.90 295.62,179.29 297.27,179.70 298.92,160.83 300.57,168.18 302.22,228.23 303.87,199.29 305.52,279.39 305.52,220.90 307.17,170.43 308.83,316.28 310.48,182.62 312.13,311.76 313.78,260.03 315.43,269.65 317.08,182.64 318.73,186.36 320.38,318.63 322.03,183.37 322.03,238.18 323.69,320.11 325.34,163.95 326.99,326.92 328.64,315.48 330.29,199.59 331.94,333.07 333.59,219.49 335.24,332.54 336.89,175.22 338.55,247.04 338.55,263.34 340.20,272.68 341.85,349.68 343.50,188.80 345.15,149.62 346.80,326.15 348.45,204.06 350.10,178.20 351.76,191.40 353.41,316.17 355.06,192.78 355.06,236.95 356.71,273.83 358.36,340.13 360.01,334.63 361.66,207.54 363.31,224.18 364.96,324.50 366.62,308.83 368.27,315.93 369.92,270.87 371.57,190.33 371.57,279.08 373.22,250.31 374.87,238.24 376.52,197.43 378.17,178.20 379.83,202.94 381.48,315.79 383.13,316.22 384.78,322.84 386.43,193.27 388.08,240.17 388.08,245.54 389.73,206.30 391.38,186.66 393.03,193.24 394.69,323.47 396.34,157.32 397.99,209.32 399.64,200.02 401.29,196.80 402.94,320.91 404.59,206.22 404.59,220.03 406.24,227.06 407.90,219.19 409.55,245.88 411.20,203.79 412.85,186.20 414.50,225.79 416.15,196.94 417.80,194.12 419.45,325.13 421.10,241.94 421.10,226.60 422.76,254.56 424.41,189.25 426.06,182.07 427.71,182.85 429.36,224.69 431.01,358.68 432.66,204.67 434.31,188.98 435.96,241.82 437.62,275.99 437.62,230.36 439.27,209.60 440.92,190.36 442.57,183.45 444.22,334.69 445.87,195.88 447.52,208.66 449.17,351.76 450.83,285.00 452.48,189.29 454.13,180.34 454.13,232.90 455.78,264.42 457.43,287.75 459.08,183.17 460.73,314.56 462.38,218.43 464.03,170.74 465.69,324.26 467.34,207.17 468.99,217.95 470.64,256.86 470.64,244.53 472.29,277.77 473.94,199.53 475.59,241.72 477.24,321.28 478.90,173.54 480.55,205.23 482.20,204.64 483.85,218.49 485.50,321.02 487.15,162.89 487.15,232.61 488.80,367.69 490.45,328.81 492.10,264.53 493.76,209.94 495.41,340.58 497.06,183.58 498.71,228.05 500.36,329.32 502.01,302.28 503.66,189.40 503.66,274.42 505.31,227.81 506.97,197.40 508.62,328.60 510.27,363.25 511.92,354.03 513.57,197.93 515.22,220.21 516.87,329.27 518.52,322.08 520.17,342.30 520.17,288.29 521.83,245.96 523.48,222.78 525.13,219.17 526.78,164.60 528.43,297.89 530.08,200.57 531.73,215.82 533.38,303.68 535.03,223.78 536.69,184.88 536.69,227.91 538.34,342.27 539.99,319.95 541.64,364.38 543.29,266.07 544.94,206.20 546.59,190.33 548.24,325.57 549.90,313.62 551.55,291.50 553.20,330.26 553.20,295.01 554.85,228.87 556.50,347.60 558.15,332.76 559.80,369.17 561.45,247.96 563.10,201.40 564.76,355.02 566.41,174.01 568.06,301.15 569.71,235.26 569.71,279.32 571.36,191.87 573.01,369.25 574.66,209.11 576.31,324.93 577.97,203.26 579.62,343.19 581.27,249.36 582.92,211.22 584.57,186.08 586.22,340.48 586.22,262.88 587.87,235.35 589.52,183.14 591.17,198.12 592.83,342.44 594.48,218.25 596.13,221.70 597.78,314.93 599.43,229.32 601.08,356.37 602.73,246.93 602.73,254.65 604.38,360.91 606.04,321.81 607.69,217.82 609.34,229.97 610.99,229.87 612.64,200.25 614.29,211.72 615.94,245.07 617.59,190.11 619.24,192.02 619.24,239.95 620.90,230.54 622.55,235.48 624.20,194.18 625.85,240.11 627.50,349.51 629.15,330.80 630.80,230.68 632.45,316.25 634.10,299.41 635.76,332.02 635.76,275.90 637.41,166.54 639.06,178.33 640.71,198.77 642.36,191.52 644.01,193.40 645.66,193.29 647.31,281.59 648.97,193.66 650.62,222.85 652.27,240.65 652.27,206.06 653.92,299.83 655.57,230.18 657.22,331.82 658.87,192.38 660.52,245.86 662.17,299.36 663.83,211.90 665.48,341.05 667.13,316.41 668.78,289.86 668.78,275.86 670.43,200.36 672.08,202.78 673.73,204.48 675.38,192.99 677.04,178.21 678.69,331.86 680.34,232.12 681.99,293.49 683.64,204.79 685.29,199.14 685.29,224.02 686.94,212.17 688.59,282.39 690.24,290.00 691.90,222.27 693.55,218.37 695.20,199.06 696.85,201.16 698.50,297.53 700.15,201.50 701.80,248.22 701.80,237.27 703.45,166.77 705.11,168.08 706.76,190.79 708.41,300.99 710.06,344.05 711.71,231.84 713.36,193.59 715.01,299.68 716.66,329.84 718.31,226.06 718.31,245.17 719.97,332.62 721.62,167.12 723.27,237.50 724.92,331.44 726.57,329.22 728.22,351.93 729.87,291.43 731.52,344.10 733.17,253.32 734.83,297.94 734.83,293.66 736.48,199.21 738.13,362.72 739.78,297.68 741.43,252.59 743.08,367.76 744.73,302.86 746.38,344.34 748.04,232.24 749.69,335.93 751.34,355.19 751.34,305.05 752.99,336.93 754.64,186.42 756.29,198.68 757.94,326.58 759.59,219.56 761.24,192.81 762.90,254.41 764.55,323.97 766.20,184.20 767.85,192.18 767.85,241.57 769.50,347.75 771.15,332.47 772.80,368.49 774.45,179.79 776.11,201.29 777.76,332.97 779.41,282.94 781.06,327.70 782.71,268.99 784.36,363.01 784.36,300.54 786.01,199.97 787.66,203.70 789.31,241.46 790.97,199.49 792.62,183.97 794.27,231.90 795.92,167.06 797.57,324.51 799.22,195.62 800.87,236.89 800.87,218.46 802.52,212.07 804.18,303.33 805.83,368.43 807.48,184.10 809.13,223.55 810.78,204.69 812.43,178.22 814.08,219.63 815.73,238.27 817.38,205.74 817.38,233.80 819.04,329.21 820.69,327.86 822.34,178.28 823.99,194.29 825.64,371.45 827.29,193.46 828.94,341.76 830.59,352.59 832.25,192.07 833.90,350.62 833.90,283.16 835.55,199.86 837.20,255.93 838.85,293.57 840.50,337.82 842.15,194.55 843.80,188.35 845.45,332.35 847.11,299.32 848.76,261.77 850.41,221.18 850.41,258.47 852.06,203.86 853.71,282.76 855.36,337.69 857.01,184.03 858.66,201.61 860.31,340.38 861.97,325.00 863.62,333.48 865.27,211.96 866.92,355.62 866.92,277.64 868.57,323.50 870.22,204.04 871.87,237.91 873.52,220.18 875.18,330.42 876.83,210.76 878.48,283.40 880.13,304.12 881.78,204.70 883.43,205.45 883.43,252.45 885.08,326.84 886.73,201.55 888.38,220.29 890.04,241.55 891.69,299.34 893.34,337.26 894.99,352.79 896.64,337.26 898.29,337.50 899.94,256.38 899.94,291.08 901.59,318.85 903.25,344.82 904.90,199.03 906.55,220.19 908.20,194.11 909.85,350.93 911.50,331.88 913.15,168.73 914.80,283.20 916.45,184.37 916.45,259.61" fill="none" stroke="#2563eb" stroke-width="2.5"/>
<circle cx="916.45" cy="259.61" r="3.5" fill="#2563eb"/>
<line x1="776" y1="26" x2="794" y2="26" stroke="#2563eb" stroke-width="3"/>
<text x="800" y="30" font-size="11" font-family="Arial, sans-serif" fill="#374151">trial-20260321-cleandata1</text>
<polyline points="125.55,276.65 127.20,251.49 128.85,129.86 130.50,289.28 132.15,105.88" fill="none" stroke="#dc2626" stroke-width="2.5"/>
<circle cx="132.15" cy="105.88" r="3.5" fill="#dc2626"/>
<line x1="776" y1="44" x2="794" y2="44" stroke="#dc2626" stroke-width="3"/>
<text x="800" y="48" font-size="11" font-family="Arial, sans-serif" fill="#374151">trial-20260321-converge5</text>
<polyline points="125.55,245.09" fill="none" stroke="#059669" stroke-width="2.5"/>
<circle cx="125.55" cy="245.09" r="3.5" fill="#059669"/>
<line x1="776" y1="62" x2="794" y2="62" stroke="#059669" stroke-width="3"/>
<text x="800" y="66" font-size="11" font-family="Arial, sans-serif" fill="#374151">trial-20260321-converge6</text>
<polyline points="125.55,258.75 127.20,245.09 128.85,316.37 130.50,277.66 132.15,245.41 133.80,135.55 135.45,170.09 137.10,187.14 138.75,130.44 140.41,158.38 140.41,212.49 142.06,141.69 143.71,293.65 145.36,111.76 147.01,136.64 148.66,147.01 150.31,135.20 151.96,152.79 153.62,246.11 155.27,117.53 156.92,142.79 156.92,162.52 158.57,202.72 160.22,174.78 161.87,205.63 163.52,163.90 165.17,302.27 166.82,137.66 168.48,278.16 170.13,135.71 171.78,290.66 173.43,236.29 173.43,212.78 175.08,281.16 176.73,122.24 178.38,258.61 180.03,150.40 181.69,258.24 183.34,119.78 184.99,145.77 186.64,155.48 188.29,171.80 189.94,186.03 189.94,184.95 191.59,97.24 193.24,207.80 194.89,172.98" fill="none" stroke="#ea580c" stroke-width="2.5"/>
<circle cx="194.89" cy="172.98" r="3.5" fill="#ea580c"/>
<line x1="776" y1="80" x2="794" y2="80" stroke="#ea580c" stroke-width="3"/>
<text x="800" y="84" font-size="11" font-family="Arial, sans-serif" fill="#374151">trial-20260321-converge7</text>
<polyline points="125.55,202.54 127.20,199.21 128.85,204.24 130.50,134.97 132.15,169.09 133.80,102.31 135.45,147.74 137.10,162.40 138.75,170.97 140.41,268.23 140.41,176.17 142.06,251.75 143.71,153.57 145.36,141.06 147.01,257.94 148.66,207.26 150.31,151.47 151.96,171.69 153.62,258.56 155.27,182.07 156.92,157.95 156.92,193.33 158.57,253.44 160.22,304.93 161.87,138.30 163.52,176.28 165.17,282.48 166.82,122.87 168.48,263.81 170.13,155.80 171.78,123.39 173.43,187.16 173.43,200.85 175.08,232.68 176.73,177.80 178.38,180.33 180.03,181.93 181.69,105.74 183.34,155.72 184.99,164.40 186.64,234.39 188.29,150.20 189.94,259.17 189.94,184.24" fill="none" stroke="#7c3aed" stroke-width="2.5"/>
<circle cx="189.94" cy="184.24" r="3.5" fill="#7c3aed"/>
<line x1="776" y1="98" x2="794" y2="98" stroke="#7c3aed" stroke-width="3"/>
<text x="800" y="102" font-size="11" font-family="Arial, sans-serif" fill="#374151">trial-20260321-full40-crossent1</text>
<polyline points="125.55,110.67 127.20,170.65 128.85,163.81 130.50,256.17 132.15,146.38 133.80,205.14 135.45,146.85 137.10,140.48 138.75,140.10 140.41,260.72 140.41,174.10 142.06,171.34 143.71,108.60 145.36,141.23 147.01,164.63 148.66,156.94 150.31,142.39 151.96,319.65 153.62,153.48 155.27,180.77 156.92,161.89 156.92,170.09 158.57,124.33 160.22,241.30 161.87,283.68 163.52,99.79 165.17,275.00 166.82,211.11 168.48,263.81 170.13,189.62 171.78,304.96 173.43,103.53 173.43,209.71 175.08,135.34 176.73,187.27 178.38,267.61 180.03,181.22 181.69,301.99 183.34,271.91 184.99,180.02 186.64,136.20 188.29,333.10 189.94,249.75 189.94,224.44 191.59,293.66 193.24,292.13 194.89,175.00 196.55,185.68 198.20,161.87 199.85,301.38 201.50,303.53 203.15,147.27 204.80,256.50 206.45,162.36 206.45,227.94 208.10,174.13 209.75,324.57 211.41,153.27 213.06,304.20 214.71,266.38 216.36,282.38 218.01,185.71 219.66,297.37 221.31,141.03 222.96,188.15 222.96,231.72 224.62,178.53 226.27,185.35 227.92,172.48 229.57,271.74 231.22,189.68 232.87,228.72 234.52,304.79 236.17,166.17 237.82,185.86 239.48,199.01 239.48,208.23 241.13,287.02 242.78,311.30 244.43,133.67 246.08,176.50 247.73,258.06 249.38,184.14 251.03,159.81 252.69,178.24 254.34,188.84 255.99,319.05 255.99,219.66 257.64,169.30 259.29,303.00 260.94,199.09 262.59,276.05 264.24,199.46 265.89,282.38 267.55,298.31 269.20,305.94" fill="none" stroke="#0f766e" stroke-width="2.5"/>
<circle cx="269.20" cy="305.94" r="3.5" fill="#0f766e"/>
<line x1="776" y1="116" x2="794" y2="116" stroke="#0f766e" stroke-width="3"/>
<text x="800" y="120" font-size="11" font-family="Arial, sans-serif" fill="#374151">trial-20260321-full40-puretf1</text>
<polyline points="125.55,132.12 127.20,167.96 128.85,159.25 130.50,139.87 132.15,245.71 133.80,306.58 135.45,204.10 137.10,151.31 138.75,86.39 140.41,317.83 140.41,191.11 142.06,149.65 143.71,230.38 145.36,279.86 147.01,138.27" fill="none" stroke="#c2410c" stroke-width="2.5"/>
<circle cx="147.01" cy="138.27" r="3.5" fill="#c2410c"/>
<line x1="776" y1="134" x2="794" y2="134" stroke="#c2410c" stroke-width="3"/>
<text x="800" y="138" font-size="11" font-family="Arial, sans-serif" fill="#374151">trial-20260321-full40-tf08-1</text>
<polyline points="125.55,116.50 127.20,244.25 128.85,293.83 130.50,278.04 132.15,246.22 133.80,177.86 135.45,141.22 137.10,260.47 138.75,289.22 140.41,202.53 140.41,225.01 142.06,187.15 143.71,197.96" fill="none" stroke="#4f46e5" stroke-width="2.5"/>
<circle cx="143.71" cy="197.96" r="3.5" fill="#4f46e5"/>
<line x1="776" y1="152" x2="794" y2="152" stroke="#4f46e5" stroke-width="3"/>
<text x="800" y="156" font-size="11" font-family="Arial, sans-serif" fill="#374151">trial-20260321-full40-tfmajority1</text>
<polyline points="125.55,304.59 127.20,187.88 128.85,170.03 130.50,290.17 132.15,172.43 133.80,252.07 135.45,136.81 137.10,144.45 138.75,215.11 140.41,287.63 140.41,216.12 142.06,284.07 143.71,187.90" fill="none" stroke="#2563eb" stroke-width="2.5"/>
<circle cx="143.71" cy="187.90" r="3.5" fill="#2563eb"/>
<line x1="776" y1="170" x2="794" y2="170" stroke="#2563eb" stroke-width="3"/>
<text x="800" y="174" font-size="11" font-family="Arial, sans-serif" fill="#374151">trial-20260321-stability1</text>
<polyline points="125.55,195.84 127.20,192.96 128.85,150.70 130.50,280.79 132.15,248.90 133.80,295.89 135.45,282.27 137.10,170.84 138.75,303.81 140.41,145.63 140.41,226.76 142.06,169.89 143.71,176.33 145.36,149.01 147.01,245.03 148.66,255.72 150.31,282.51 151.96,175.46 153.62,164.80 155.27,144.11 156.92,293.34 156.92,205.62 158.57,147.64 160.22,227.28 161.87,213.54 163.52,124.44 165.17,174.58 166.82,130.78 168.48,314.21 170.13,137.07 171.78,154.46 173.43,213.89 173.43,183.79 175.08,168.12 176.73,177.11 178.38,245.44 180.03,125.95 181.69,297.88 183.34,157.77" fill="none" stroke="#dc2626" stroke-width="2.5"/>
<circle cx="183.34" cy="157.77" r="3.5" fill="#dc2626"/>
<line x1="776" y1="188" x2="794" y2="188" stroke="#dc2626" stroke-width="3"/>
<text x="800" y="192" font-size="11" font-family="Arial, sans-serif" fill="#374151">trial-20260321-stability2</text>
<polyline points="125.55,216.11 127.20,316.96 128.85,90.48 130.50,153.98 132.15,295.32 133.80,144.85 135.45,184.59 137.10,113.18 138.75,137.52 140.41,281.37 140.41,193.44 142.06,309.43 143.71,180.09 145.36,239.67 147.01,147.15 148.66,171.24 150.31,222.54 151.96,183.27 153.62,161.12 155.27,175.81 156.92,264.21 156.92,205.45 158.57,155.83 160.22,152.06 161.87,133.83 163.52,267.62 165.17,150.30 166.82,143.74 168.48,253.80 170.13,158.81 171.78,191.42 173.43,186.28 173.43,179.37 175.08,225.01 176.73,297.35 178.38,328.59 180.03,219.87 181.69,213.81 183.34,185.95" fill="none" stroke="#059669" stroke-width="2.5"/>
<circle cx="183.34" cy="185.95" r="3.5" fill="#059669"/>
<line x1="776" y1="206" x2="794" y2="206" stroke="#059669" stroke-width="3"/>
<text x="800" y="210" font-size="11" font-family="Arial, sans-serif" fill="#374151">trial-20260321-stability3</text>
<polyline points="125.55,316.96 127.20,169.33 128.85,107.58 130.50,151.87 132.15,154.59 133.80,146.13 135.45,142.32 137.10,201.61 138.75,182.16 140.41,140.79 140.41,171.33 142.06,223.85 143.71,155.68 145.36,127.46 147.01,134.69 148.66,145.22 150.31,128.56 151.96,144.35 153.62,160.36 155.27,326.16 156.92,140.94 156.92,168.73 158.57,149.80 160.22,150.17 161.87,224.89 163.52,286.45 165.17,279.28 166.82,152.10 168.48,169.93 170.13,179.96 171.78,124.82 173.43,161.98 173.43,187.94 175.08,289.28 176.73,328.93 178.38,282.74 180.03,266.64 181.69,178.80 183.34,300.80" fill="none" stroke="#ea580c" stroke-width="2.5"/>
<circle cx="183.34" cy="300.80" r="3.5" fill="#ea580c"/>
<line x1="776" y1="224" x2="794" y2="224" stroke="#ea580c" stroke-width="3"/>
<text x="800" y="228" font-size="11" font-family="Arial, sans-serif" fill="#374151">trial-20260321-stability4</text>
<polyline points="125.55,144.67 127.20,293.41 128.85,251.81 130.50,278.18 132.15,171.87 133.80,165.97 135.45,146.46 137.10,249.51 138.75,154.59 140.41,136.04 140.41,199.25 142.06,123.67 143.71,157.68 145.36,209.84 147.01,306.15 148.66,128.59 150.31,188.63 151.96,148.05 153.62,123.98 155.27,122.41 156.92,298.25 156.92,180.72 158.57,143.94 160.22,253.55 161.87,192.83 163.52,191.76 165.17,231.62 166.82,185.65 168.48,151.40 170.13,286.01 171.78,144.84 173.43,135.68 173.43,191.73 175.08,160.91 176.73,179.67 178.38,220.79 180.03,297.96 181.69,113.98 183.34,142.19" fill="none" stroke="#7c3aed" stroke-width="2.5"/>
<circle cx="183.34" cy="142.19" r="3.5" fill="#7c3aed"/>
<line x1="776" y1="242" x2="794" y2="242" stroke="#7c3aed" stroke-width="3"/>
<text x="800" y="246" font-size="11" font-family="Arial, sans-serif" fill="#374151">trial-20260321-stability5</text>
</svg>