<svg xmlns="http://www.w3.org/2000/svg" width="980" height="460" viewBox="0 0 980 460">
<rect width="100%" height="100%" fill="#ffffff"/>
<text x="86" y="24" font-size="20" font-family="Arial, sans-serif" fill="#111827">Train vs Dev Stage 2 Loss by Epoch</text>
<text x="86" y="442" font-size="12" font-family="Arial, sans-serif" fill="#4b5563">step / epoch</text>
<text x="18" y="52" font-size="12" font-family="Arial, sans-serif" fill="#4b5563" transform="rotate(-90 18 52)">loss_stage2</text>
<line x1="86" y1="396.00" x2="956" y2="396.00" stroke="#e5e7eb" stroke-width="1"/>
<text x="76" y="400.00" font-size="11" text-anchor="end" font-family="Arial, sans-serif" fill="#6b7280">0.771080</text>
<line x1="86" y1="307.00" x2="956" y2="307.00" stroke="#e5e7eb" stroke-width="1"/>
<text x="76" y="311.00" font-size="11" text-anchor="end" font-family="Arial, sans-serif" fill="#6b7280">0.859823</text>
<line x1="86" y1="218.00" x2="956" y2="218.00" stroke="#e5e7eb" stroke-width="1"/>
<text x="76" y="222.00" font-size="11" text-anchor="end" font-family="Arial, sans-serif" fill="#6b7280">0.948566</text>
<line x1="86" y1="129.00" x2="956" y2="129.00" stroke="#e5e7eb" stroke-width="1"/>
<text x="76" y="133.00" font-size="11" text-anchor="end" font-family="Arial, sans-serif" fill="#6b7280">1.0373</text>
<line x1="86" y1="40.00" x2="956" y2="40.00" stroke="#e5e7eb" stroke-width="1"/>
<text x="76" y="44.00" font-size="11" text-anchor="end" font-family="Arial, sans-serif" fill="#6b7280">1.1261</text>
<line x1="86.00" y1="40" x2="86.00" y2="396" stroke="#f3f4f6" stroke-width="1"/>
<text x="86.00" y="420" font-size="11" text-anchor="middle" font-family="Arial, sans-serif" fill="#6b7280">-0.950000</text>
<line x1="260.00" y1="40" x2="260.00" y2="396" stroke="#f3f4f6" stroke-width="1"/>
<text x="260.00" y="420" font-size="11" text-anchor="middle" font-family="Arial, sans-serif" fill="#6b7280">7.6300</text>
<line x1="434.00" y1="40" x2="434.00" y2="396" stroke="#f3f4f6" stroke-width="1"/>
<text x="434.00" y="420" font-size="11" text-anchor="middle" font-family="Arial, sans-serif" fill="#6b7280">16.2100</text>
<line x1="608.00" y1="40" x2="608.00" y2="396" stroke="#f3f4f6" stroke-width="1"/>
<text x="608.00" y="420" font-size="11" text-anchor="middle" font-family="Arial, sans-serif" fill="#6b7280">24.7900</text>
<line x1="782.00" y1="40" x2="782.00" y2="396" stroke="#f3f4f6" stroke-width="1"/>
<text x="782.00" y="420" font-size="11" text-anchor="middle" font-family="Arial, sans-serif" fill="#6b7280">33.3700</text>
<line x1="956.00" y1="40" x2="956.00" y2="396" stroke="#f3f4f6" stroke-width="1"/>
<text x="956.00" y="420" font-size="11" text-anchor="middle" font-family="Arial, sans-serif" fill="#6b7280">41.9500</text>
<rect x="86" y="40" width="870" height="356" fill="none" stroke="#d1d5db" stroke-width="1"/>
<polyline points="125.55,85.76 145.83,155.57 166.10,166.29 186.38,120.59 206.66,64.55 226.94,223.86 247.22,109.37 267.50,136.13 287.78,68.89 308.06,105.43 328.34,164.45 348.62,182.95 368.90,150.00 389.18,211.74 409.46,131.11 429.74,194.13 450.02,224.31 470.30,171.61 490.58,232.66 510.86,209.97 531.14,241.73 551.42,225.11 571.70,212.23 591.98,234.22 612.26,316.68 632.54,227.08 652.82,150.74 673.10,208.44 693.38,226.01 713.66,114.04 733.94,278.92 754.22,232.03 774.50,275.63 794.78,273.81 815.06,298.61 835.34,247.12 855.62,213.94 875.90,200.67 896.17,282.36 916.45,168.40" fill="none" stroke="#2563eb" stroke-width="2.5"/>
<circle cx="916.45" cy="168.40" r="3.5" fill="#2563eb"/>
<line x1="776" y1="26" x2="794" y2="26" stroke="#2563eb" stroke-width="3"/>
<text x="800" y="30" font-size="11" font-family="Arial, sans-serif" fill="#374151">train_epoch_avg</text>
<polyline points="125.55,287.37 145.83,290.48 166.10,296.94 186.38,303.12 206.66,309.00 226.94,314.50 247.22,319.82 267.50,325.36 287.78,330.09 308.06,334.28 328.34,338.21 348.62,342.07 368.90,345.48 389.18,348.86 409.46,351.76 429.74,354.50 450.02,356.93 470.30,359.19 490.58,361.06 510.86,362.78 531.14,364.37 551.42,365.68 571.70,366.87 591.98,367.93 612.26,368.85 632.54,369.45 652.82,369.94 673.10,370.31 693.38,370.71 713.66,371.01 733.94,371.17 754.22,371.31 774.50,371.37 794.78,371.41 815.06,371.44 835.34,371.45 855.62,371.45 875.90,371.45 896.17,371.45 916.45,371.45" fill="none" stroke="#dc2626" stroke-width="2.5"/>
<circle cx="916.45" cy="371.45" r="3.5" fill="#dc2626"/>
<line x1="776" y1="44" x2="794" y2="44" stroke="#dc2626" stroke-width="3"/>
<text x="800" y="48" font-size="11" font-family="Arial, sans-serif" fill="#374151">dev_eval</text>
</svg>